<svg xmlns="http://www.w3.org/2000/svg" width="295pt" height="791pt" viewBox="0 0 295 791" fill-rule="evenodd"><path d="M16.9 2.6c-1.1 1.3-.1 9.6 1.1 8.9.4-.3.6-2.4.5-4.7-.1-2.4 0-2.8.2-1.1.6 4.5 2 4.1 2.5-.6.3-3.3 0-3.9-1.5-3.8-1 .1-2.3.7-2.8 1.3zM38 4c0 1.6.5 3 1 3 .6 0 1-1.4 1-3 0-1.7-.4-3-1-3-.5 0-1 1.3-1 3z"/><path d="M55 3.5c0 1.9-.4 2.3-1.7 1.8-1.3-.5-1.5-.3-.8 1.3 1.5 3.5 1.9 7.7.6 7-.6-.4-1.1-.1-1.1.8 0 .8 1.1 1.6 2.8 1.8 1.5.2-10.2.8-26.1 1.2C10.6 17.9 0 18.6 0 19.3c0 .6 3.9.8 10.7.5 5.9-.3 9.9-.1 8.8.3-1.1.4-4.6.8-7.7.8-3.9.1-5.8.5-5.8 1.3 0 1-.3 1-.9 0-1-1.6-4.3-1.2-4.9.5-.5 1.6 6.1 1.8 8.9.3 1.4-.8 1.9-.7 1.9.1 0 .6.7.9 1.5.6.8-.4 1.7-.2 2 .3.4.6-2.4 1-6.9 1H0v5.1c0 4.8.1 5 2.3 4.3 3.5-1.1 8.8-1.3 8.1-.3-.7 1.3 1 1.1 2.3-.2 1.5-1.5 8.2-2.9 8.9-1.8.3.5 1.5.8 2.7.7 2.7-.1 5 .4 5.7 1.4.3.4 1.9.1 3.4-.7 2.2-1.2 3.2-1.2 4.3-.4.9.8 2.1.9 3.6.2 1.2-.5 3.1-.9 4.2-.9 1.9.1 2 .8 1.9 11.8 0 6.5.2 11.8.5 11.8s.8-4.8.9-10.7c.4-12.1 1.1-13.4 6.5-12.6 2.3.3 3.7 0 3.7-.6s1.4-.9 3.3-.7c1.7.2 3.1.9 3 1.5-.4 1.5 1 1.4 2.5-.1.9-.9 1.2-.8 1.2.5 0 .9.7 1.7 1.5 1.7s1.5.7 1.5 1.5c0 .9.9 1.5 2.3 1.5 1.6 0 1.8.3.8.9-.9.6-1 1.1-.2 1.5.7.5 1.1 4.1 1.1 9.4 0 5.1-.4 8.2-.9 7.4-.7-1.1-.9-1.1-1.4.2-.4 1.1-1.5 1.3-4.1.9-4.4-.7-4.7.4-.6 1.8 2.6 1 3 1.6 3 4.9 0 2 .3 6.5.6 9.9.6 5 .9 5.9 2 5 .8-.6 1.4-2.3 1.4-3.8 0-1.9.9-3.2 2.9-4.4 3.2-1.8 7.9-2.5 5.1-.7-1.2.7-1.2 1-.1 1 .9 0 1.1.7.7 2.3-.5 2.1-.3 2.3 2.4 1.9 1.7-.2 3.2-1.2 3.5-2.3.4-1 1.1-1.9 1.7-1.9.8 0 .8 2.6.2 8.7-.5 4.9-.8 13.2-.6 18.5l.2 9.8-14-.1c-7.6 0-14.3.2-14.8.5-1.5.9-3.5-2.1-2.9-4.3.6-2.5-.7-4.6-2.4-3.5-.7.4-5.1.8-9.7.8-6.6.1-8.5.4-9.2 1.7-.8 1.3-3.8 1.8-16.2 2.4-8.4.5-17 .8-19.1.6-2.7-.1-3.7.3-3.7 1.3 0 1.9 10.6 2.4 34 1.5 13-.5 17.8-.4 22.5.8 3.3.8 7.4 1.5 9.2 1.5 1.8 0 3.4.6 3.7 1.4.3.8 1.5 1.4 2.6 1.4s2 .3 2 .7c0 .5-16.6.6-37 .5-26.3-.3-37-.1-37 .7 0 .7 2.4 1.1 6.3 1.1 3.4 0 21.5.1 40.3.2 30.6.3 34.3.5 36.7 2.1 2.7 1.7 2.8 1.7 5.2-.9 1.4-1.5 2.7-2.5 3-2.3.6.7 2.1 24.7 1.7 28.9-.3 3.1-.9 3.9-5 6-2.5 1.4-6.2 3.5-8.1 4.8-1.9 1.2-4.6 2.5-5.9 2.9-2.6.6-6.4 3.4-9.1 6.7-.9 1.1-2.9 3.3-4.4 4.9-3.6 3.8-6.1 10.2-9.6 24.2-2.6 10.4-2.9 11-5.4 11.3-3.2.4-3.6 2.2-.6 2.9 2.3.6 2.2 1.8-.6 19.3-2 12.1-3.5 28.9-3.5 40.5-.1 11.4-.2 11.8-6.4 36-2.5 9.9-5.9 24.4-7.5 32.2-2 9.5-3.7 15.1-5.1 17.1-2.7 3.7-4.5 16.2-2.3 16.2 1.5 0 1.2 5.4-.8 16-.6 3.1-.9 6.9-.7 8.5.2 2.6-.1 3.2-2.7 4.1-2.5.9-3 1.6-3.1 4.6 0 1.9-.4 3.9-.7 4.5-.4.6-.6 3-.5 5.3.1 3.2.7 4.5 2.5 5.8 2.3 1.4 2.4 1.9 1.8 7.6-.8 6.2-2.2 8.6-5 8.6-.9 0-3.6.5-6.1 1.1-3.2.8-4.4 1.6-4.4 3 0 2.3-.4 2.3 8.1.2 4.9-1.2 6.9-2.1 6.9-3.2 0-.9.6-2.8 1.4-4.3.9-1.7 1.1-2.9.4-3.6-1.6-1.6.1-3.4 2.4-2.6 1.5.4 1.8.3 1.3-.6-.7-1.1 7 2.9 10.1 5.2.6.4 1.4.5 1.7.1.4-.3.7.3.7 1.5 0 2.7 1 5.2 2.1 5.2.5 0 .8-.8.7-1.8-.4-5.6 0-6.2 4.4-6 4 .3 4.3.1 4.6-2.4.2-1.5 1.3-3.4 2.4-4.2 1.1-.8 1.8-2 1.6-2.8-.3-.7.4-2.5 1.6-3.9 1.2-1.5 2.7-3.5 3.4-4.5 1.1-1.6 1.2-1.3.6 2.6-.4 2.5-.8 25.2-1 50.5-.4 47.9-.6 52.4-1.8 54.3-3.2 5.2-7 21.2-5 21.2 1.8 0 4.4-2.3 4.4-3.9 0-1 .6-2.4 1.3-3 2.1-1.7 4.1 10.9 2.8 16.9-.5 2.4-.8 4.7-.6 5.1.3.3-.2 4.4-.9 9-.8 4.6-1.7 13.6-2 19.9-.6 13.3.7 17.5 6.1 20 2.4 1.1 3.4 2.5 4.4 5.8 1 3.5 1 4.5 0 5.2-.9.5-.6.9.8 1.3 1.2.3 2.1 1.2 2.1 2.1 0 .9.9 3.4 2 5.6 1.1 2.2 2 4.8 2 6 0 1.1 1.2 3.9 2.7 6.1 2.3 3.4 2.8 5.6 3.4 13.7.5 7.3.3 10.1-.7 11.2-.8.9-1.3 4.5-1.3 9.5-.1 13-.1 12.9-4.1 9.5-2.9-2.6-4.6-2.7-17.3-1.2-5.6.7-7.2.6-9.5-.8-4.2-2.6-10.4-10.1-13.7-16.7-2.9-5.6-3-6.2-3.1-21.3-.5-54.1-2.4-106.6-4-109.1-.3-.6-1.4-.7-2.4-.4-1.4.4-1.9-.2-2.4-2.9-.4-2.1-1.6-4.1-3.2-5.1l-2.6-1.7.7 5 .6 4.9-6 .7-6.1.7v43.5c0 34.5.3 43.4 1.2 42.8 1-.6 1-.4.1.7-1.8 1.9-1.8 36.5 0 37.2.9.4.9.6 0 .6-1 .1-1.2 9.8-1.3 42.1v42h2.4c1.5 0 2.6-.7 2.9-1.8.3-1 .5-.5.6 1.2.1 2.7-.1 2.8-2.9 2.3-2.3-.5-3-.3-3 .9s.7 1.5 2.5 1.2c1.4-.3 2.5-.1 2.5.3 0 .5-.4.9-.9.9s-.7 1-.4 2.2c.4 2.1.3 2.2-1 .6-1.5-1.9-2.7-1.4-2.7.9 0 .8.5 1.1 1.2.7 1-.6 1-.4 0 .7-1.6 1.7-1.6 3.2 0 2.3 1-.6 1-.5.2.7-1.4 1.6-1.6 7.1-.3 6.3.5-.3.9.2.9 1 0 .9-.4 1.6-1 1.6s-1 2.7-1 6c0 5.1.3 6 1.8 6 1.4 0 1.5-.2.2-1-.9-.6-1-1-.3-1 .6 0 1.5.5 1.8 1 1.1 1.8 2.7 1 2.2-1.1-.5-1.9-.4-1.9 1.1-.6.9.8 2.7 1.8 3.9 2.1 1.5.5 2.3 1.5 2.3 3.1 0 1.5-.7 2.5-2.3 2.9-3.6.9-5 .7-4.4-.8.9-2.2-3.8-2.6-5.1-.5-1.3 2.1-.2 3.2 2.2 2.3 1.8-.7 2 .4.7 2.5-.8 1.2-1.2 1.2-2.5.2-1.4-1.2-1.6-.9-1.6 2.3 0 2.9.4 3.6 2 3.6 1 0 2.4-.8 3-1.8 1.1-1.6 1.1-1.6.6 0-.8 2.6 3.6 1.9 4.8-.7.9-1.9 1-1.9 1.3.2.3 1.3 1.1 2.3 1.9 2.3 1.7 0 1.9-2.6.2-3.3-.8-.3-.6-.6.5-.6 1.1-.1 1.7.6 1.7 1.9 0 2 .7 2 62 2h62v-13h4.5c2.5 0 4.5-.4 4.5-.8 0-.7 11.9-3.2 15-3.2.6 0 1 3.6 1 8.5v8.5h59v-3.3c0-4.9 2-11.3 3-9.7.7 1.2 1.3 1.2 3.3.1 1.4-.7 3.4-1 4.6-.6 1.2.3 2.1.2 2.1-.3 0-.6-.5-1.2-1.1-1.4-.6-.2 1.1-.5 3.7-.6 2.6-.1 5-.6 5.3-1.1.6-.9 7.9-.6 13.6.4 2.2.5 2.6.4 1.5-.4-1.2-.8-1.2-1.3-.2-2.3.6-.6 1.2-.8 1.2-.2 0 .5 4.5.9 10.4.9 8.9 0 10.7-.3 12.6-2l2.1-1.9-.7 2.9-.7 2.9 2.7-1.8c1.5-.9 3.4-1.5 4.2-1.2 1 .4 1.4-.2 1.4-1.9 0-1.3.5-2.7 1-3 1.6-1 1.3-56.2-.2-56.8-1-.4-1-.6 0-.6.8-.1 1.2-1.7 1.2-4.7 0-3.6-.3-4.4-1.2-3.6-1 .8-1.3.4-1.4-1.3-.1-1.6.2-2.2 1.2-1.8 1.8.7 2-6.7.2-8.5-.9-.9-.9-1.2 0-1.2 1.8 0 1.7-43.6 0-44.3-1-.4-1-.6 0-.6.9-.1 1.2-4.4 1.2-17.9v-17.7h-4.8c-5.5.1-7.4-.4-6.7-1.6.3-.4 1.2-.6 2-.2 1.1.4 1.3.1.9-1.2-.6-1.5-.4-1.6 1.4-.6 1.1.6 2.3 1.5 2.6 2 .4.5 1.5.7 2.6.4 2.6-.7 2.7-5.7.3-7.3-1.5-.9-1.5-1.1-.2-.7 1.3.4 1.7-.2 1.7-3.3.1-3-.4-4-1.9-4.5-2-.7-2.7-2.5-.9-2.5.6 0 1 .4 1 1 0 .5.4 1 .8 1 .5 0 .9-5.8 1-12.8.1-12 0-12.8-1.8-12.9-1.1-.1-2 .3-2 .9 0 .7-.5.6-1.5-.2-.8-.7-2.1-1-2.9-.7-1 .4-1.3.1-1-.8.6-1.4-1.7-4.1-5.2-6.1-1-.7-1.5-1.6-1.1-2 .5-.5 1.4-.2 2.1.6 3.5 4.4 8.5 8.2 9.8 7.4.7-.5 1.8-.9 2.3-.9 1.5 0 1.6-41.6.2-43.4-.9-1.1-.9-1.3 0-.8 1.4.9 1.6-7.2.2-9.4-.5-.8-.9-.9-.9-.3 0 1.8-4.6 3.4-5.9 2.1-1.8-1.8-3.5.6-2.2 3.1.6 1 .7 2.2.3 2.6-.3.4 0 1.2.8 1.7 1.2.9 1.2 1-.3.5-1-.3-2.3-.6-2.9-.6-.5 0-.8-1-.7-2.3.2-1.2 0-2.8-.4-3.5-1-1.6-5.4-1.6-6.1 0-.5 1-.7 1-1.2 0-.8-1.8-2.4-1.5-2.5.5-.1 1-.5-.7-.9-3.7-1.2-8.5-1.2-50.2 0-49.5.6.3 1-.1 1-1s-.4-1.4-.9-1c-.6.3-.9-1.3-.9-3.7 0-2.4 0-5.6-.1-7.2l-.1-2.9-2 2.6c-1.8 2.3-2 4.3-2.2 32.3-.3 25.7-.5 29.9-1.8 29.6-.8-.2-5.1 0-9.7.3-7.8.7-8.3.9-9.5 3.6-1.5 3.4-2.8 3.7-3.5.9-.7-2.8-2.3-2.5-2.3.4 0 1.9-.4 2.2-2.4 1.9-1.3-.3-2.6 0-3 .5-.5.9-1.7 6.5-2 10.2-.3 2.4-1.4 3.8-4.4 5.3-1.5.7-3.6 1.8-4.7 2.4-7.1 3.7-13.7 6.4-14.8 6-.7-.2 0-1 1.5-1.7 2-1 2.5-1.6 1.8-2.5-.7-.9-.7-2.1 0-4 .6-1.5.9-3 .6-3.2-.2-.2-1 1.3-1.6 3.3-1.9 5.6-14.9 16.9-17 14.7-.3-.3 0-.8.7-1 .7-.2 1-1 .7-1.6-.2-.7.8-2.5 2.3-4.1 1.5-1.7 2.9-3.9 3-5 .3-1.8-.1-1.6-2.1.9-5.3 6.6-6.8 7.9-9.4 8.1-1.5.1-3.1.3-3.5.3-.5.1-.5.5-.2 1.1 1 1.6-2.1 1.2-3.5-.4-.9-1.2-.5-2.7 1.8-7.3 3.4-6.5 5.4-14.8 5.8-23.8l.2-6-1.8 5c-1 2.7-1.9 5.9-1.9 7-.2 3.6-4.9 9.5-7.7 9.5-3.4 0-3.9-2.1-2-7.7.9-2.5 1.6-5.9 1.6-7.3 0-1.5.9-5.3 2-8.6 1.1-3.2 2.3-8.6 2.7-11.9.4-3.7 1.4-7.1 2.8-9 1.2-1.7 3.4-5.3 5-8 1.6-2.8 5.3-7.9 8.3-11.5 3-3.5 5.9-7.7 6.4-9.2.6-1.7 1.4-2.5 2.1-2.1.7.4 1.9.8 2.7.8 4.5.4 4.9.6 4.4 2-.4 1 0 1.5 1.5 1.5 3.3 0 8.3 2.4 11.1 5.3 1.4 1.5 3 2.7 3.6 2.7 1.5 0 5.4 4.4 5.4 6.1 0 1.2.2 1.2.9-.1.6-.8 2.7-1.4 5.1-1.5 5.1-.1 6.2-1.7 5.5-7.3-1.1-7.4 6.1-18.2 15-22.7 1.2-.6 2.4-2.8 3-5.3.6-2.4 1.4-4 1.7-3.7 1.5 1.6 4.8-7.6 4.8-13.3 0-3.2.5-8.5 1.1-11.8.6-3.2 1.5-12.2 1.9-19.9.4-7.7 1.4-16.3 2.2-19.1l1.3-5.1 6 1.7c3.3.9 7.2 2.2 8.8 2.8 2.5 1.1 2.7 1 2.7-1.2 0-2.5-2.7-4-12.2-6.6-4.7-1.2-6.2-3.2-3.3-4.4.8-.3 1.5-1.4 1.5-2.4s.9-4.4 2-7.6c1.7-5.1 1.8-5.6.3-5.4-2.7.5-4.9-6.5-3.5-10.6 2.2-5.9.8-30.3-2.9-51.1-.6-3.3-1.5-8.5-2-11.5s-2.1-11.4-3.4-18.5c-1.4-7.2-2.9-15.9-3.4-19.5-1.7-12.2-8.1-45.5-9.7-50.5-2.1-6.5-8.7-17.5-12.5-20.9-1.8-1.7-2.8-3.3-2.5-4.2.4-1-.5-2-2.7-2.9-1.7-.8-2.5-1.5-1.7-1.6.8-.1.2-.4-1.5-.8-2.1-.4-3.1-1.3-3.3-2.9-.4-2.4-2.2-3.1-2.2-.7 0 1.1-.5 1.2-2.2.5-1.3-.5-4.9-1.6-8-2.6-3.2-.9-5.8-2-5.8-2.5s-.6-.6-1.4-.3c-.8.3-3.9-.6-6.9-2-2.9-1.4-5.9-2.6-6.6-2.6-.6 0-1.9-.4-2.9-.9-.9-.5-4.4-2-7.7-3.3-5.9-2.4-6-2.4-6.7-7.2-.5-3.4-.1-6.4 1.1-10.4 1-3.2 2.2-7.3 2.6-9.2.3-1.9 2.3-7.3 4.2-11.9 4.9-11.5 5.7-19.8 3.7-37.1-1.5-13.2-5-26.7-7.9-30.6-.8-1-1.5-2.8-1.5-3.9-.1-1.1-.4-1.5-.6-.9-.3.6-2.4-.8-4.8-3C171.8 7.3 165.2 4 157.5 4c-1.7 0-3.5-.4-4-.9-1.4-1.4-15.3 1.2-20.6 3.9-5.6 2.8-9.9 6.8-9.9 9.3 0 1-3 5.2-6.7 9.3-5 5.4-7.4 7.4-9.3 7.4-1.5 0-2 .3-1.3.8.7.4.9 1.3.4 2.1-.5.7-1.3 1.1-1.9.7-.6-.3-1.3-.2-1.6.3-.4.5-.2 1.2.4 1.6.6.3.6 1.3.1 2.3-3.2 6.5-6.1 13.1-6.6 15.2-.6 2.4-1 2.5-6.3 2.5-4 0-5.6.4-5.4 1.2.3 1.8-3.5 1.6-4.1-.1-.4-1 .7-1.6 3.6-2.1 2.4-.5 3.4-1 2.5-1.2-1-.3-1.8-.9-1.8-1.5 0-.5-.7-.8-1.5-.4-.8.3-1.5.2-1.5-.3s.8-1.1 1.9-1.4c1.6-.4 1.9-1.5 2-7.5 0-3.9-.4-7.4-.9-7.7-1.5-.9-1.2-2 1.4-4.8 2.7-2.9 3.9-9.8 1.8-10.5-1.2-.4-1.6.8-1.3 4 .3 2.2.3 2.2-9.9-.6-7.5-2-8.5-2.6-9.1-5-.7-2.6-.6-2.8 1.9-2.3 3.1.7 11.9 3.2 14.5 4.2.9.4 1.7.3 1.7-.3 0-.5-2.5-1.7-5.5-2.7-3-.9-5.5-2.1-5.5-2.7 0-2.5 2.3-4.8 4.8-4.9 2.4 0 2.5-.1.7-.9-2.8-1.2-8.5-1.2-8.5 0 0 .5.5 1 1 1 1.2 0 1.3 2 .2 3.8-1.5 2.3-4.4.2-4-2.8.2-1.6 0-2.7-.6-2.6-2.3.3-3.6 1.8-3.6 4.2 0 2.2-.4 2.5-3.2 2.2l-3.3-.3.2-6.2c.2-3.5 0-6.2-.5-6.2-1.9.3-2.3-.2-1.2-1.6 1-1.2 1-1.5-.4-1.5-1 0-1.6.9-1.6 2.5zM156.5 6c-.4.6-1.6.8-2.6.5-1.1-.4-2.6-.1-3.4.5-.9.8-1.5.8-1.5.2 0-1.9-12.7 2.1-14.7 4.6-.7.9-1.3 1.1-1.3.5 0-.6-.6-1-1.2-.9-2.6.2-1.8-1.9.9-2.5 1.5-.4 5.3-1.4 8.3-2.2 6.4-1.8 16.5-2.2 15.5-.7zM129 15c-.8.6-2.4.9-3.5.9-1.5 0-1.3-.4 1-1.4 3.2-1.4 4.9-1 2.5.5zm-90 4c.3.1-.6.5-1.8 1.1-2.6 1-4.6.3-3.7-1.2.5-.7 2.7-.7 5.5.1zm11.5-.3c-1.1.3-2.3 1-2.6 1.5-.4.6-1.6.7-2.8.3-3.2-1-1.7-2.1 3.1-2.2 2.4-.1 3.4.1 2.3.4zm11.5.8c-1.4 1.6-2.5 2-1.5.6.3-.5-.7-1.2-2.2-1.4-2.2-.3-2-.4 1.1-.6 3.3-.1 3.7.1 2.6 1.4zm-30 .4c0 1.5-1.6 2.2-3.4 1.5-2.5-.9-1.9-2.4.9-2.4 1.4 0 2.5.4 2.5.9zm10.2 3c1.6.7-.5 1-7.7 1-5.5 0-9.2-.3-8.2-.7 2.9-1.1 13.3-1.3 15.9-.3zm12.5-.3c-.3.3-1.2.4-1.9.1-.8-.3-.5-.6.6-.6 1.1-.1 1.7.2 1.3.5zm9.6.1c-.7.2-2.1.2-3 0-1-.3-.4-.5 1.2-.5 1.7 0 2.4.2 1.8.5zm-16.6.9c-.3.3-1.2.4-1.9.1-.8-.3-.5-.6.6-.6 1.1-.1 1.7.2 1.3.5zM143 31c14.6 2.2 21.9 5.7 23.6 11.4.4 1.2 1.2 2.8 1.9 3.6.7.8 1.3 4.4 1.4 8 .2 9.8.5 11.4 2.1 12.7 1.1.9 1.2 1.2.2 1.3-1 0-.9.4.3 1.6 1.2 1.3 1.4 2.9 1 7.8-.4 3.3-1.1 7.5-1.6 9.2-1 3.2-4.9 6.1-6.7 5-.9-.5-2.6.9-2.7 2.4-.2 1.3-3.8 8-4.4 8-.3 0-1.2 1.5-2 3.2-1.4 3.4-7.5 9.9-8.9 9.6-1.1-.2-6.2 2.4-6.2 3.2 0 .4-1.6 1.1-3.5 1.4-1.9.4-3.8 1.2-4.2 1.9-.9 1.3-9.3 1.8-9.3.5 0-.4-.9-.8-2.1-.8-3.1 0-5.6-1.7-6.8-4.7-.7-1.6-2-4.4-3.1-6.3-1.1-2.1-1.5-3.9-.9-4.4 1.5-1.6 1.1-3.9-.6-3.2-.8.3-1.5.3-1.5.1 0-.3-.9-4.9-2.1-10.2-1.8-8.4-1.9-10.4-.9-15.8.7-3.5 2.1-7.7 3.2-9.5 2.1-3.6.6-3.4 15.2-1.4 3.8.6 4.5.4 5.6-1.6 1-1.8.8-2.7-1.2-5.6-2.8-4-5.8-5.4-14-6.3-1.4-.2-.8-4.2.6-4.7.8-.3 1.3-1.1 1-1.8-.3-.7.8-3.7 2.3-6.7 3.3-6.3 9.6-10.4 14.8-9.5 1.7.3 5.9 1 9.5 1.6zm-62.6 6.5c-.4.8-.8 1.5-1 1.5-.2 0-.4-.7-.4-1.5s.4-1.5 1-1.5c.5 0 .7.7.4 1.5zm4.4 3.4c.3 2.4-.3 3.8-1.9 5.2-1.2 1-2.6 1.6-3 1.3-1.5-.9-1-6.3.8-8.4 2.3-2.7 3.7-2 4.1 1.9zm80.8 57.8c-1.1 1.1-1.7-.4-.9-2.3.7-1.8.8-1.8 1.1-.1.2 1 .1 2.1-.2 2.4zm-119.2 7.2c.6 1-1.6 2.1-4.2 2.1-1.3 0-1.2-.3.4-1.5 2.2-1.7 3.1-1.8 3.8-.6zm43.9 5.8c-1.3.3-2.3 1.3-2.5 2.6-.2 1.2-.9 2.2-1.5 2.1-.7-.1-2.6-.2-4.3-.3-1.6 0-3-.5-3-1 0-.4 1.2-.6 2.8-.3 2.4.5 2.5.3 1.4-1.1-1.2-1.4-.9-1.6 2-2 1.8-.2 4.2-.4 5.3-.4 1.7 0 1.7 0-.2.4zM155 131c0 1.6-4.7 10.6-9.7 18.7-3.5 5.7-5 7.3-6.8 7.3-3.2 0-5.6 1-4.9 2.1.3.6-.5.7-2.2.3-1.9-.5-2.5-.4-2 .5 1.3 2-2 1.2-4.6-1.2-3.6-3.1-4.4-5.1-5.7-13.6-1.4-9.1-1-11 2.5-10.3 1.4.3 2.9 0 3.3-.6.9-1.5 6.7.1 6.4 1.7-.2.6.2 1.1.7 1.1.6 0 1-.6 1-1.3 0-.8.3-.7 1 .3.8 1.2 1.5 1.2 4.7.2 4.6-1.6 6.7-2.4 11.3-4.5 4.2-1.9 5-2 5-.7zm-37.6 23.6c.3.8.2 1.2-.4.9-.6-.3-1-1-1-1.6 0-1.4.7-1.1 1.4.7zm9.6 6.9c0 .6-3.2 1.9-7 2.9-1.4.3-.7-.3 1.5-1.4 4.1-2 5.5-2.4 5.5-1.5zm-20 81.2c0 1.7-2.9 8.7-3 7.2 0-3 1.2-7.9 2.1-7.9.5 0 .9.3.9.7zm1.5 3.5c-.4 1.8-1.1 3.7-1.5 4.2-.5.5-.4-1 .2-3.3 1.2-4.8 2.3-5.6 1.3-.9zm-1.8 9c-.3.8-.6.5-.6-.6-.1-1.1.2-1.7.5-1.3.3.3.4 1.2.1 1.9zM56 399.1c-1.1 6-3.4 7.8-2.5 1.9.8-5 1.2-6 2.4-6 .5 0 .5 1.8.1 4.1zm210 112.3c0 .3-.4.8-1 1.1-.5.3-1 .1-1-.4 0-.6.5-1.1 1-1.1.6 0 1 .2 1 .4zm12.5 3.7c-.7 1.1-3.5 1.2-3.5.1 0-.4.9-.8 2-.9 1.1-.1 1.8.2 1.5.8zm-40.1 4c-.3.6-1.2.8-2 .5-.8-.3-1.4 0-1.4.6s-.3.9-.6.5c-1-1 .3-2.3 2.5-2.4 1.2-.1 1.9.3 1.5.8zm35.3-.5c-.3.3-1.2.4-1.9.1-.8-.3-.5-.6.6-.6 1.1-.1 1.7.2 1.3.5zm8.3 1.4c0 .5-.5 1-1.1 1-.5 0-.7-.5-.4-1 .3-.6.8-1 1.1-1 .2 0 .4.4.4 1zm-5.6 5.2c-.4.6-1 .5-1.5-.3-1.4-2.2-1-3.3.6-1.9.8.7 1.2 1.7.9 2.2zM290 523c0 .5-.7 1-1.6 1-.8 0-1.2-.5-.9-1 .3-.6 1-1 1.6-1 .5 0 .9.4.9 1zm-44.9 2.3c-1 .9-1.1.8-.5-.6.3-1 .9-1.5 1.2-1.2.3.3 0 1.1-.7 1.8zm45.3 3.2c-.4.8-.8 1.5-1 1.5-.2 0-.4-.7-.4-1.5s.4-1.5 1-1.5c.5 0 .7.7.4 1.5zm-24.7 3.7c-.3.7-.5.2-.5-1.2s.2-1.9.5-1.3c.2.7.2 1.9 0 2.5zM287 530c0 .5-.4 1-.9 1-.6 0-1.3-.5-1.6-1-.3-.6.1-1 .9-1 .9 0 1.6.4 1.6 1zm6 2.3c0 .8-.8 2.3-1.8 3.4-1.6 1.9-2 2-4.2.7l-2.5-1.4 2.6.6c2.8.6 4.8-.9 2.8-2.2-.8-.4-.7-.9.2-1.5 2-1.2 2.9-1.1 2.9.4zm-27.4 8.5c-1.1 1-1.5-.4-.8-2.8l.7-2.5.3 2.3c.2 1.3.1 2.6-.2 3zm8.4-3.8c0 .5-.4 1-.9 1-.6 0-1.3-.5-1.6-1-.3-.6.1-1 .9-1 .9 0 1.6.4 1.6 1zm4 1.5c0 .9-.6 1.2-1.5.9-.8-.4-1.5-.1-1.5.5s-.8 1.1-1.7 1.1c-1.3 0-.9-.6 1.2-2 3.6-2.4 3.5-2.4 3.5-.5zm12.6 2.6c.4.8.1.8-1.4 0-1.2-.6-2.4-1.6-2.8-2.2-.4-.8-.1-.8 1.4 0 1.2.6 2.4 1.6 2.8 2.2zm-58.6 1c0 .6-.4.7-1 .4-.5-.3-1-1.1-1-1.6 0-.6.5-.7 1-.4.6.3 1 1.1 1 1.6zm21.4-.5c.3.8.2 1.2-.4.9-.6-.3-1-1-1-1.6 0-1.4.7-1.1 1.4.7zm33.7 1.1c1.3 1.6 1.2 1.7-.3.4-1-.7-1.8-1.5-1.8-1.7 0-.8.8-.3 2.1 1.3zm-37.3 2c-1 .2-2.6.2-3.5 0-1-.3-.2-.5 1.7-.5s2.7.2 1.8.5zm27 3.2c-.6.2-1.4-.1-1.6-.8-.2-.6-1-1.1-1.8-1.1s-1.4-.5-1.4-1.1c0-.5 1.4-.2 3 .8 1.8 1 2.5 2 1.8 2.2zm5.2-2.9c0 .5-.5 1-1.1 1-.5 0-.7-.5-.4-1 .3-.6.8-1 1.1-1 .2 0 .4.4.4 1zm-92.1 1.4c1.7.9 2 1.5 1.1 2.1-.7.4-2.1-.1-3.3-1.4-2.4-2.4-1.4-2.7 2.2-.7zm75.7 2.3c-1 1-1.9-.5-1-1.8.6-1.1.8-1.1 1.2 0 .2.7.1 1.5-.2 1.8zm-21.1-.7c-.3.5-1 1-1.6 1-.5 0-.9-.5-.9-1 0-.6.7-1 1.6-1 .8 0 1.2.4.9 1zm39.5 0c0 .5-.4 1-1 1-.5 0-1-.5-1-1 0-.6.5-1 1-1 .6 0 1 .4 1 1zm5.9 1.4c1 1.1.7 1.4-1.4 1.2-1.4 0-2.5-.7-2.5-1.4 0-1.6 2.5-1.5 3.9.2zm-42.1 3.6c.7 1.1.9 2 .4 2-1 0-3.2-2.2-3.2-3.2 0-1.5 1.5-.8 2.8 1.2zm29.7 1c.3.5.1 1-.4 1-.6 0-1.1-.5-1.1-1 0-.6.2-1 .4-1 .3 0 .8.4 1.1 1zm12.7 3c-1.2 1.1-2.4 2-2.8 2-.4 0 .1-.9 1.1-2s2.3-2 2.8-2c.6 0 .1.9-1.1 2zm-17.2 1c0 .5-.5 1-1.1 1-.5 0-.7-.5-.4-1 .3-.6.8-1 1.1-1 .2 0 .4.4.4 1zm4.9 2.9c-.1 1.7-.3 2-.6.8-.2-.9-1.1-1.7-1.9-1.7-.8 0-1.4-.6-1.4-1.4 0-.9.7-1.2 2-.9 1.4.4 2 1.3 1.9 3.2zm-12.9-2.1c0 .4-.9.8-2 .8s-2-.4-2-.8.9-.8 2-.8 2 .4 2 .8zm-22.3 5.9c-.7.6-4.6-1-4.1-1.8.3-.5 1.4-.3 2.4.3 1.1.7 1.8 1.3 1.7 1.5zm30 .5c-.3.8-.6.5-.6-.6-.1-1.1.2-1.7.5-1.3.3.3.4 1.2.1 1.9zm-18.2-.2c.3.5-.1 1-1 1s-1.3-.5-1-1c.3-.6.8-1 1-1 .2 0 .7.4 1 1zm20.9 2.5c-.4.8-.8 1.5-1 1.5-.2 0-.4-.7-.4-1.5s.4-1.5 1-1.5c.5 0 .7.7.4 1.5zm13 0c-.4.8-1 1.5-1.5 1.5-.4 0-.6-.7-.3-1.5.4-.8 1-1.5 1.5-1.5.4 0 .6.7.3 1.5zM285 570c0 .5-1.8 1-4 1s-4-.5-4-1c0-.6 1.8-1 4-1s4 .4 4 1zm-34 1.6c0 .8-.4 1.2-1 .9-.5-.3-1-1-1-1.6 0-.5.5-.9 1-.9.6 0 1 .7 1 1.6zm42.6 2.2c-.6.5-3.6-2.3-3.6-3.4 0-.4.9.1 2 1.1s1.8 2 1.6 2.3zM240 572c0 .5.7 1 1.6 1 .8 0 1.2.5.9 1-.4.7-1.3.7-2.6 0-2-1.1-2.6-3-.9-3 .6 0 1 .4 1 1zm32.7 1.2c-.3.8-.6.5-.6-.6-.1-1.1.2-1.7.5-1.3.3.3.4 1.2.1 1.9zm-33.6 3.2c.5-.3.9 0 .9.5 0 .6-.7 1.1-1.5 1.1s-1.5-.8-1.4-1.8c0-1 .3-1.2.6-.4.2.6.9 1 1.4.6zm46.9-.5c0 .6-.4 1.3-1 1.6-.5.3-1-.1-1-.9 0-.9.5-1.6 1-1.6.6 0 1 .4 1 .9zm6.6 2.8c-.6.6-3.6-.9-3.6-1.8 0-.5.9-.4 2 .3 1 .7 1.8 1.4 1.6 1.5zm-10.9.6c1 .9 1.2 1.7.6 1.7-.7 0-1.5-.5-1.8-1-.4-.7-1.4-.6-2.8.1-1.2.7-1.9.8-1.5.4.4-.4 0-1.4-.9-2-1.5-1.1-1.3-1.3 1.5-1.1 1.7.1 3.9.9 4.9 1.9zm5.8-.3c.3.5.1 1-.4 1-.6 0-1.1-.5-1.1-1 0-.6.2-1 .4-1 .3 0 .8.4 1.1 1zm-48.5 2c0 .5-.5 1-1.1 1-.5 0-.7-.5-.4-1 .3-.6.8-1 1.1-1 .2 0 .4.4.4 1zm11 3.5c0 .8-.4 1.5-.9 1.5s-1.1-.7-1.5-1.5c-.3-.9 0-1.5.9-1.5.8 0 1.5.7 1.5 1.5zm22.7 1.7c-.3.8-.6.5-.6-.6-.1-1.1.2-1.7.5-1.3.3.3.4 1.2.1 1.9zm-36.2.2c1.8 1.3 1.8 1.4-.8.9-1.5-.3-2.7-.9-2.7-1.4 0-1.3 1.3-1.1 3.5.5zM248 589c0 .5-.2 1-.4 1-.3 0-.8-.5-1.1-1-.3-.6-.1-1 .4-1 .6 0 1.1.4 1.1 1zm32.7 1.2c-.3.8-.6.5-.6-.6-.1-1.1.2-1.7.5-1.3.3.3.4 1.2.1 1.9zm-43.7-.8c0 .3-.4.8-1 1.1-.5.3-1 .1-1-.4 0-.6.5-1.1 1-1.1.6 0 1 .2 1 .4zm49 2.2c0 .2-.7.4-1.5.4s-1.5-.4-1.5-1c0-.5.7-.7 1.5-.4.8.4 1.5.8 1.5 1zm-45.5.4c1.9.8 1.9.9-.2.9-1.2.1-2.5-.4-2.8-.9-.7-1.2.2-1.2 3 0zm37.6 1.8c-1.9.6-1.2 2.8 1.2 4 1.7.8 1.8 1.1.5 1.1-1 .1-2.7-.8-3.7-1.8-1.7-1.7-1.7-2-.4-2.5.9-.4 1.3-1.3.9-2.2-.6-1.5-.4-1.5 1-.3 1 .8 1.2 1.5.5 1.7zM6 596.3c.9.3.4.6-1.2.6-2.7.1-3.5-.8-2.1-2.2.4-.4.9-.3 1.2.1.3.5 1.3 1.2 2.1 1.5zm232.6 2.6c-1.3 2-2.6 1.1-2.6-1.6 0-2.5.1-2.6 1.6-1.1.9.9 1.3 2.1 1 2.7zm44.9-2.9c-.3.5-1 1-1.6 1-.5 0-.9-.5-.9-1 0-.6.7-1 1.6-1 .8 0 1.2.4.9 1zm5.9 1.6c1.6.6 1.2 2.4-.5 2.4-.6 0-.8-.4-.4-.9.3-.5-.3-1.2-1.2-1.4-1-.3-1.3-.5-.6-.6.6 0 1.8.2 2.7.5zM142.5 600c.3.6-.1.7-.9.4-1.8-.7-2.1-1.4-.7-1.4.6 0 1.3.4 1.6 1zm3 6.5c.6 1.1.8 4.1.5 6.7-.4 2.7-.2 4.8.3 4.8s.7.7.3 1.5c-.3.8-.2 1.5.3 1.5 1.1 0 3 7.4 3.1 12 0 1.9.2 10.9.4 20 .4 18.2.8 20.9 4.3 26 1.2 1.9 2.3 3.9 2.3 4.3 0 .5 1.4 2.9 3 5.4 3.6 5.3 3.7 6.3.6 6.3-2.1 0-2.5.6-3.1 4.2-.8 4.8-3.1 9.8-4.4 9.8-1.6 0-5.2 8.1-4.5 10.2.4 1.4.2 1.8-.5 1.4-.6-.4-1.1 0-1.1.9s.5 1.3 1 1c.6-.3 1 0 1 .8 0 1-1.5 1.4-5.1 1.6-2.9.1-5.5.4-5.9.6-2.2 1.4-2.7-3.2-2.3-20.5.3-10.2.6-20.1.6-22 0-1.9-.1-9.6-.2-17-.3-13.1-.3-13.5 1.8-13.8 2.5-.4 2.9-3 .4-2.8-1.3.1-1.9-1-2.5-4.4-.4-2.6-.4-4.8.2-5.4 1.3-1.3 4 1.2 4 3.8.1 1.8.2 1.9 1 .5.6-1 .6-2.8.1-4.6-.5-1.8-.5-5.1 0-7.8 1.2-6.2.4-7-1.1-1.3-.7 2.3-1.4 4.9-1.6 5.6-.6 1.9-2.7 1-3-1.4-.2-1 .5-4.8 1.6-8.4 1-3.6 2.1-9.9 2.4-14 .2-4.1.4-7.6.5-7.8.4-1.2 4.8.7 5.6 2.3zM274 606c0 .5-.5 1-1.1 1-.5 0-.7-.5-.4-1 .3-.6.8-1 1.1-1 .2 0 .4.4.4 1zm15 2.8c0 1.3-1.2 2.2-2.2 1.6-1-.6-.1-2.4 1.3-2.4.5 0 .9.4.9.8zm-50.5 3.2c.3.5.1 1-.4 1-.6 0-1.1-.5-1.1-1 0-.6.2-1 .4-1 .3 0 .8.4 1.1 1zm35.5 2.4c0 .3-.4.8-1 1.1-.5.3-1 .1-1-.4 0-.6.5-1.1 1-1.1.6 0 1 .2 1 .4zm4 .6c0 .5-.7.7-1.5.4-.8-.4-1.5-.8-1.5-1 0-.2.7-.4 1.5-.4s1.5.4 1.5 1zm13.9 2.4c1.2 1.3 1.9 2.6 1.4 2.8-.4.2-2-.9-3.5-2.4s-2.1-2.8-1.4-2.8c.7 0 2.3 1.1 3.5 2.4zm-8.9-.4c0 .5-.2 1-.4 1-.3 0-.8-.5-1.1-1-.3-.6-.1-1 .4-1 .6 0 1.1.4 1.1 1zm-43.5 3c-.3.5-1.1 1-1.6 1-.6 0-.7-.5-.4-1 .3-.6 1.1-1 1.6-1 .6 0 .7.4.4 1zm9.5 3c0 .5-.5 1-1.1 1-.5 0-.7-.5-.4-1 .3-.6.8-1 1.1-1 .2 0 .4.4.4 1zm24.3 2c-.3 1.2-.8 1.9-1.1 1.6-.5-.6.5-3.6 1.2-3.6.2 0 .2.9-.1 2zm4.7-1.6c0 .3-.4.8-1 1.1-.5.3-1 .1-1-.4 0-.6.5-1.1 1-1.1.6 0 1 .2 1 .4zm15 1.6c.7 1.4.7 2 0 2-.5 0-1-.7-1-1.5 0-.9-.6-1.2-1.5-.9-.8.4-1.5.1-1.5-.5 0-1.9 2.9-1.2 4 .9zm-6 4.5c0 1.2-1.9 1.2-2.3 0-.4-.9-.1-1.2.9-.8.7.3 1.4.7 1.4.8zm-46.4 1c2 1.9.5 1.9-2 0-1.1-.9-1.4-1.5-.7-1.5s1.9.7 2.7 1.5zm42.4.9c.8.3.2.4-1.4 0-2.7-.5-2.8-.4-1.5 1.3 1.3 1.6 1.2 1.7-.3.4-1-.7-2.4-1.1-3.2-.8-.8.3-1.7.1-2-.6-.3-.9-.8-.8-1.5.3-.9 1.3-1.1 1.2-1.1-.3s.6-1.7 3.5-1.3c2.2.4 3.5.2 3.5-.5 0-.8.4-.8 1.3-.2.6.6 1.9 1.3 2.7 1.7zm7.5 2.4c-.8.9-3.5-2-2.8-3.1.4-.6 1.1-.3 1.9.8.8 1 1.2 2.1.9 2.3zm-35.8-2.2c-.3.3-1.2.4-1.9.1-.8-.3-.5-.6.6-.6 1.1-.1 1.7.2 1.3.5zm-5 4c-.3.3-1.2.4-1.9.1-.8-.3-.5-.6.6-.6 1.1-.1 1.7.2 1.3.5zm5.3 3.6c0 .6-.6.5-1.5-.2-.8-.7-1.5-1.4-1.5-1.6 0-.2.7-.1 1.5.2.8.4 1.5 1.1 1.5 1.6zm23.5 1.6c-.3.3-1.1 0-1.8-.7-.9-1-.8-1.1.6-.5 1 .3 1.5.9 1.2 1.2zm6 1.2c1.3.5 1.4.9.5.9-.8 0-2.4-.4-3.5-.9-1.3-.5-1.4-.9-.5-.9.8 0 2.4.4 3.5.9zm-31.5.4c0 .2-.7.7-1.6 1-.8.3-1.2.2-.9-.4.6-1 2.5-1.4 2.5-.6zm-8.3 1.2c-.3.3-1.2.4-1.9.1-.8-.3-.5-.6.6-.6 1.1-.1 1.7.2 1.3.5zm46.3.4c0 .5-.5 1-1.1 1-.5 0-.7-.5-.4-1 .3-.6.8-1 1.1-1 .2 0 .4.4.4 1zm-17 2.1c0 .5-.4.9-1 .9-.5 0-1-.7-1-1.6 0-.8.5-1.2 1-.9.6.3 1 1 1 1.6zM5.4 659.5c-.4.8-1.4 1.5-2.3 1.5-1.4-.1-1.3-.3.3-1.5 2.5-1.9 2.7-1.9 2 0zm7.6-.5c0 .5-.2 1-.4 1-.3 0-.8-.5-1.1-1-.3-.6-.1-1 .4-1 .6 0 1.1.4 1.1 1zm-2 2c0 .5-.4 1-1 1-.5 0-1-.5-1-1 0-.6.5-1 1-1 .6 0 1 .4 1 1zm4.1 3.1c-1.3 1.1-2.6 1.7-2.9 1.4-.7-.6 2.9-3.4 4.3-3.4.6 0-.1.9-1.4 2zm-8.6-.1c.3.5.2 1-.4 1-.5 0-1.3-.5-1.6-1-.3-.6-.2-1 .4-1 .5 0 1.3.4 1.6 1zm224.5.5c0 .8-.4 1.5-1 1.5-.5 0-.7-.7-.4-1.5.4-.8.8-1.5 1-1.5.2 0 .4.7.4 1.5zM33.3 677.7l3.8 4.1-5 .7c-2.8.4-5.5.4-6.1 0-1.1-.7-1.4-11.8-.3-12.9.5-.4 1.5.3 2.3 1.6.8 1.3 3.2 4.2 5.3 6.5zm203.5-5.4c1.8 2.1 2.5 9.2 1.3 11.5-1 1.8-1.5 2-4 1.1-2.9-1-2.9-1.1-2.4-6.7.7-6.7 2.6-8.9 5.1-5.9zM5 681c0 .5-.5 1-1.1 1-.5 0-.7-.5-.4-1 .3-.6.8-1 1.1-1 .2 0 .4.4.4 1zm280 3.9c0 .5-1.3 1.1-3 1.4-1.8.4-3 1.3-3 2.2 0 1.7 1.1 2 2.6.5.8-.8 1.5-.6 2.4.5 1.7 2 3.7 1.9 4.9-.3.7-1.1 1.3-1.4 2-.7.6.6.7 1.6.1 2.5-.9 1.5-5.8 1.8-12.5.6-2.2-.4-5.1-.7-6.5-.7-2.4 0-2.3-.1.5-1.1 1.7-.6 3.7-1.6 4.5-2.3 1.2-1 4.1-2.3 7.8-3.4.1-.1.2.3.2.8zm2.7 2.7c-.3.3-1.2.4-1.9.1-.8-.3-.5-.6.6-.6 1.1-.1 1.7.2 1.3.5zM261 691c0 .5-.5 1-1.1 1-.5 0-.7-.5-.4-1 .3-.6.8-1 1.1-1 .2 0 .4.4.4 1zm8 .1c0 .4-.9.9-2 1.2-1.4.4-1.8 1-1.3 2.2.4 1.2.2 1.6-.6 1.4-.7-.3-1.2-.8-1.2-1.2.1-.4.1-1.5.1-2.5 0-1.2.8-1.7 2.5-1.7 1.4 0 2.5.3 2.5.6zm-198.1 3.6c.6 2 .8 4 .5 4.4-.2.4 0 1 .6 1.4 1.1.7 1.4 7.5.3 7.5-1.8-.1-3.5-1.9-3.8-4.1-.2-1.3-.8-4.4-1.4-6.9-.5-2.5-.7-4.8-.5-5.2 1.2-1.9 3.4-.5 4.3 2.9zm184.1-3.3c0 .3-.4.8-1 1.1-.5.3-1 .1-1-.4 0-.6.5-1.1 1-1.1.6 0 1 .2 1 .4zm-17.8 3.5c-2.2 2.2-2.7 1.9-1.2-.8.6-1.2 1.5-1.9 2-1.6.5.3.2 1.4-.8 2.4zm38.4 2c-.1 4.4-.3 4.8-1.6 3.6-.8-.7-3.2-1.3-5.3-1.3-2.1 0-4.1-.3-4.4-.6-.4-.3.5-.6 2-.6 1.4 0 2.9-.5 3.2-1 .3-.6 1.4-1 2.4-1s2.1-.9 2.4-2c.9-3.4 1.4-2.2 1.3 2.9zm-3.1-2.9c-.4.6-1 .8-1.5.5-.5-.3-1.1-.1-1.5.5-.3.5-1.1 1-1.6 1s-.4-.7.3-1.5c1.5-1.6 5.3-2.1 4.3-.5zm-25.5 1.5c0 .1-.7.8-1.5 1.5-1.3 1-1.5.9-1.5-.8 0-1.5.5-2 1.5-1.6.8.4 1.5.7 1.5.9zm9.3-.1c2.4.1 3.6 2.6 1.2 2.6-1.2 0-1.5.6-1 2 1.1 3.4-.4 2.2-2.4-2-1.1-2.2-1.5-3.7-.9-3.4.6.4 2 .7 3.1.8zm4.7-.4c0 .5-.2 1-.4 1-.3 0-.8-.5-1.1-1-.3-.6-.1-1 .4-1 .6 0 1.1.4 1.1 1zm27.2.5c1.2 1.7.9 3-.4 1.7-1.5-1.5-3.2-1.6-2.3-.2.3.5.2 1-.4 1-.6 0-1.5-.8-2-1.8-.7-1.4-.5-1.7 1.7-1.7 1.5-.1 3 .4 3.4 1zm-56.7 1.5c.3.5.1 1-.4 1-.6 0-1.1-.5-1.1-1 0-.6.2-1 .4-1 .3 0 .8.4 1.1 1zm49 2c.3.5-.3 1-1.5 1s-1.8-.5-1.5-1c.3-.6 1-1 1.5-1s1.2.4 1.5 1zm9.5 2.5c0 .8-.4 1.7-1 2-.6.4-1-.5-1-2s.4-2.4 1-2c.6.3 1 1.2 1 2zm-55 .6c.6 1.1.9 2.5.6 3.2-.2.7-.5.5-.5-.4-.1-.9-.8-1.9-1.6-2.3-.8-.3-1.5-1-1.5-1.6 0-1.7 1.9-1.1 3 1.1zm16.9 2.3c.1.5-.5.3-1.3-.4-.8-.6-1.2-1.9-.9-2.7.6-1.4.8-1.4 1.4.3.4 1 .8 2.3.8 2.8zm11.5-2.8c1 2.7.7 3.1-2 2.6l-2.6-.5 1.7 2.7c1 1.5 1.5 2.9 1.1 3.3-.3.3-.6.1-.6-.5 0-.7-.4-1.2-1-1.2-.5 0-1 .6-1 1.4 0 2.2-2.2 3.1-3.4 1.4-.6-.8-2-2-3.1-2.6-1.7-1-1.8-1.1-.3-1.2 1.2 0 1.5-.5 1.1-1.8-.6-1.6-.6-1.6 1 0 .9.9 1.7 2.2 1.7 2.8 0 2 2.5.4 2.6-1.6.2-4.1.4-4.6 1.8-4.1 1 .4 1.3.1.9-.9-.3-.7-.1-1.4.5-1.4.5 0 1.3.7 1.6 1.6zm6.9 1.2c-1.3.2-2.3.8-2.3 1.4 0 .6-.2.9-.5.6-1.4-1.3.7-3.5 2.8-3l2.2.7-2.2.3zm13.4 1.3c-.9 1.5-1.3 1.5-2.4.3-1.8-1.7-3-1.8-3.6-.2-.4.8-.6.7-.6-.3-.1-1.3.8-1.6 3.8-1.5 3.3 0 3.7.3 2.8 1.7zm-50 3.1c-.3.8-.6.5-.6-.6-.1-1.1.2-1.7.5-1.3.3.3.4 1.2.1 1.9zm9.8-.3c.9 1.6-2.5 4.1-5.5 4.1-3.6 0-3.1-2.2.8-3.7 3.6-1.4 4-1.5 4.7-.4zm29.5.1c0 1.3-2.8 2.5-3.8 1.6-.3-.4 0-1.1.8-1.6 2-1.3 3-1.2 3 0zm15-.6c0 .3-.4.8-1 1.1-.5.3-1 .1-1-.4 0-.6.5-1.1 1-1.1.6 0 1 .2 1 .4zm-20 1.6c0 .9-2.3 3-3.2 3-.4 0-.8-.8-.8-1.8 0-1.1.7-1.8 2-1.8 1.1 0 2 .3 2 .6zm-101.3 2.2c-.3.8-.6.5-.6-.6-.1-1.1.2-1.7.5-1.3.3.3.4 1.2.1 1.9zm80.6-.7c0 .6-.7 1.1-1.6 1.1-1.6.2-1.6.1-.1-.3 1.4-.4 1.5-.7.3-1.5-1.1-.7-1.1-.9-.1-.6.8.2 1.4.8 1.5 1.3zm31.1 1.7c-.3.4-1.1.5-1.9.2-1.1-.5-1.2-.9-.2-1.9 1.2-1.3 3.1.1 2.1 1.7zm5.6-1.4c0 .5-.7.9-1.5.9s-1.5-.4-1.5-.9c0-.4.7-.8 1.5-.8s1.5.4 1.5.8zM164 711c0 .5-.5 1-1.1 1-.5 0-.7-.5-.4-1 .3-.6.8-1 1.1-1 .2 0 .4.4.4 1zm128 1c0 .5-.5 1-1.1 1-.5 0-.7-.5-.4-1 .3-.6.8-1 1.1-1 .2 0 .4.4.4 1zm-46.3 3.1c.4 2.3 1.1 3 2.7 2.8 3.7-.2 4.6.1 4.6 1.6 0 .8.5 1.5 1.1 1.5.5 0 .7.5.3 1.2-.6.9-.9.9-1.2 0-.2-.7-.8-1-1.3-.6-.5.3-.9.1-.9-.4s-1.1-1.2-2.5-1.4c-1.5-.3-2.5-.1-2.5.7 0 .6-1.3 1.2-3 1.2-1.6 0-3-.4-3-.9 0-.4-1.3-.8-3-.8-2.2 0-3-.5-3-1.7 0-1.3.3-1.4 1.2-.5 1.9 1.9 3.7 1.4 3.1-.8-.3-1.1-1-1.7-1.6-1.3-.6.3-.7.1-.3-.5 1.3-2.1 3.6-1.3 3.6 1.2 0 1.9.4 2.2 2.5 1.8 2.6-.5 3.2-1.6 1.5-2.7-1.3-.8-1.3-3.5 0-3.5.6 0 1.3 1.4 1.7 3.1zm-88.6 1.2c-.8.8-1.1.7-1.1-.4 0-2 1.3-3.4 1.8-1.9.3.7-.1 1.7-.7 2.3zm100.3.3c.8 2.1.8 2.4-.5 2.4-.5 0-.7-.5-.4-1 .3-.6-.1-1-1-1s-1.3-.5-1-1c.9-1.5 2.2-1.2 2.9.6zm-90.7 5.6c-.3.7-.5.2-.5-1.2s.2-1.9.5-1.3c.2.7.2 1.9 0 2.5zM261 720c0 .5-.5 1-1.1 1-.5 0-.7-.5-.4-1 .3-.6.8-1 1.1-1 .2 0 .4.4.4 1zm-104.8 1.5c0 .5-.5 1.1-1.1 1.3-.6.2-1.1-.4-1.1-1.3s.5-1.5 1.1-1.3c.6.2 1.1.8 1.1 1.3zm6.8-1.1c0 .3-.4.8-1 1.1-.5.3-1 .1-1-.4 0-.6.5-1.1 1-1.1.6 0 1 .2 1 .4zm74.3 4.3c-.7 1.8-1.6 1.6-3-.6-1-1.6-1-2 .5-2.3 2-.5 3.2 1 2.5 2.9zm-70.6 3c0 2.1-.2 2.9-.4 1.8-.3-1.1-.9-2.4-1.4-3-1.3-1.3-1.1-2.5.4-2.5.9 0 1.4 1.3 1.4 3.7zm93.3-2.1c0 .8-.4 1.2-1 .9-.5-.3-1-1-1-1.6 0-.5.5-.9 1-.9.6 0 1 .7 1 1.6zm25.1 1.7c-1 .9-1.1.8-.5-.6.3-1 .9-1.5 1.2-1.2.3.3 0 1.1-.7 1.8zM273 729c0 .5-.4 1-.9 1-.6 0-1.3-.5-1.6-1-.3-.6.1-1 .9-1 .9 0 1.6.4 1.6 1zm-195.9 1c1 .6 1.9 1.7 1.9 2.4 0 .8.8 2.4 1.9 3.7 1.5 1.8 1.6 2.8.8 4.6-.6 1.3-1.3 2.3-1.7 2.3-1.3 0-4.2-3.9-3.6-4.8.3-.4-.4-2.3-1.5-4-3-5-2.2-6.5 2.2-4.2zm75.9 3c0 .5-.5 1-1.1 1-.5 0-.7-.5-.4-1 .3-.6.8-1 1.1-1 .2 0 .4.4.4 1zm126 0c0 .5-.7 1-1.6 1-.8 0-1.2-.5-.9-1 .3-.6 1-1 1.6-1 .5 0 .9.4.9 1zM3 736.7c0 2-.3 2.4-1.1 1.6-.7-.7-.9-1.9-.6-2.7 1-2.4 1.7-1.9 1.7 1.1zm5.3-.7c-.3 1.1-.9 2-1.4 2-1 0-1.2-2.4-.2-3.3 1.3-1.3 2.1-.7 1.6 1.3zm9.7-1c0 .5-.7.7-1.5.4-.8-.4-1.5-.8-1.5-1 0-.2.7-.4 1.5-.4s1.5.4 1.5 1zm5.8.4c-.7.8-1.7 1.2-2.2.9-.4-.3-.2-.9.5-1.4 2.2-1.3 3.1-1.1 1.7.5zm245-.2c.7.7 1.2 1.7 1.2 2.2 0 .8-.3.7-.8 0-.4-.6-1.6-1.6-2.7-2.2-1.5-.8-1.6-1.1-.4-1.2.8 0 2 .5 2.7 1.2zM13 737.1c0 .5.5.7 1.1.4.6-.4 2.2.7 3.6 2.4s3.2 3.1 3.9 3.1c.8 0 1 .8.6 2.2-.4 1.6-.7 1.8-1 .8-.5-1.8-3.1-4-4.7-4-.7 0-1.7 1.1-2.3 2.5-1 2.2-.9 2.5.8 2.5 1 0 2.2.5 2.6 1.1.4.7-.5.9-3 .6-2.1-.3-3.9-.7-4.2-1-.7-.7.7-3.7 1.7-3.7.5 0 .2-1.6-.6-3.6-1.8-4.5-1.8-4.4 0-4.4.8 0 1.5.5 1.5 1.1zm253.8 1.7c.2 1.2-.2 2.2-.8 2.2-.7 0-1-.7-.6-1.5.4-1-.1-1.5-1.5-1.5-1.2 0-1.7-.4-1.4-1.1 1.1-1.7 4-.5 4.3 1.9zm16.2-.8c0 .5-.4 1-1 1-.5 0-1-.5-1-1 0-.6.5-1 1-1 .6 0 1 .4 1 1zm-208.6 2.9c.3.5-.8 1.1-2.5 1.5-1.6.3-3.7 1.3-4.5 2.1-1.8 1.7-3.4 2-3.4.5 0-.6.4-1 .9-1s1.1-.9 1.4-2c.4-1.5 1.4-2 4-2 2 0 3.8.4 4.1.9zM60 744c.8 1.4.5 1.9-1.3 2.4-4 1.1-5.4.7-5.2-1.5.3-4 4.5-4.6 6.5-.9zm186.5 1.6c-.9.9-1.9 1.3-2.3 1-.3-.4-.1-1.1.6-1.5.8-.5 1-1.5.5-2.7-.7-1.8-.6-1.8 1.1-.2 1.6 1.7 1.6 1.9.1 3.4zM11 742.7c-.1 2.1-1.9 3.5-3.6 2.9-1.8-.7-1.8-.8 0-2.2 2.2-1.5 3.6-1.8 3.6-.7zm22.7 0c-.6 1 11.8.9 15.9-.1 3-.7 3.1-.6 2.6 2.3-.3 2.3-1.1 3.1-3.3 3.6-1.6.4-3.7.4-4.8 0-1.2-.3-2.1 0-2.4 1-.4.8-2.5 2.3-4.7 3.2-3.5 1.5-4.1 2.2-3.8 4.3.4 2.3.1 2.6-2.4 2.2-2.9-.4-3.9-2.2-1.3-2.2.8 0 1.6-.6 1.6-1.3.1-.6.3-2.2.4-3.5.3-2.9-1.1-2.8-3.1.3-.9 1.4-2 2.2-2.5 1.9-.5-.3-.9.7-.8 2.3 0 2.5.1 2.6.9.8.8-1.9.9-1.8.9.4.1 1.9-.3 2.2-2.1 1.8-1.2-.4-2.8-.1-3.5.5-1 .8-1.3.6-1.3-.6 0-.9.7-1.6 1.5-1.6s1.7-1.4 2.1-3.5c.6-3.2 1.4-4 3.7-3.6 1 .2.9-1.7-.3-2.4-1.3-.8-.1-3.5 1.6-3.5 2.1 0 5.6 3.9 5 5.6-.4.9.1 1.4 1.5 1.4 1.9 0 1.9-.1.4-3.1-.9-1.6-2.3-3.3-3.1-3.6-1.9-.7-1.8-3.3.2-3.3.8 0 1.3.3 1.1.7zm133.3-.3c0 .2-.7.7-1.6 1-.8.3-1.2.2-.9-.4.6-1 2.5-1.4 2.5-.6zm-104 2.2c0 .8-.4 1.2-1 .9-.5-.3-1-1-1-1.6 0-.5.5-.9 1-.9.6 0 1 .7 1 1.6zm-40 8.5c0 1.1-.4 1.7-1 1.4-.5-.3-1-1.3-1-2.1s.5-1.4 1-1.4c.6 0 1 .9 1 2.1zm25 .6c0 3.3-2.1 3.9-4.2 1.3-2.5-3-2.3-3.5 1.2-3.5 2.4 0 3 .4 3 2.2zm9-1.7c0 .5-.4 1-1 1-.5 0-1-.5-1-1 0-.6.5-1 1-1 .6 0 1 .4 1 1zm-44.4 2.5c.9 1.4 1.5 2.7 1.3 2.9-.2.2-1.3.8-2.4 1.5-1.9 1.1-1.9 1.2.2.6 1.7-.5 2.2-.3 1.7.8-.3.9-1.3 1.3-2.6.9-1.1-.3-2.4.1-2.9.9-.7 1.2-.9 1.2-.9 0 0-.8-.7-1.1-1.9-.8-1.4.3-1.8.1-1.4-.9.6-1.7 1.5-1.8 3.2-.2 1.1 1.1 1.2.8.6-1.2-.4-1.4-1.2-2.7-1.6-2.8-.5-.2-.9-.8-.9-1.4 0-.6.8-.4 1.8.5 2 1.9 4.2 2.2 4.2.8 0-.6-.4-1.3-1-1.6-.5-.3-1-1-1-1.6 0-1.8 2-.9 3.6 1.6zm5.8 2.1c-1.2 2.9-1.3 4.3-.5 5.6.6.9.8 2.4.5 3.3-.7 1.7-2.4 2.1-2.4.4 0-.5-.4-.7-1-.4-.5.3-1-.1-1-.9s.5-1.8 1.1-2.2c.6-.3.8-1.7.5-2.9-.4-1.6.1-3.1 1.6-4.8 2.9-3.3 3.2-2.9 1.2 1.9zm147-2.4c-.8 2.7-1.2 3.3-1.9 2.7-.7-.8.7-4.9 1.7-4.9.5 0 .6 1 .2 2.2zM38 756c0 .5-.7 1-1.5 1s-1.5-.5-1.5-1c0-.6.7-1 1.5-1s1.5.4 1.5 1zm50.5 8.8c0 7.1-.3 8.7-1.5 8.7-.8 0-1.6-.7-1.6-1.5-.1-.8-.2-2.1-.3-2.8 0-.6-.9-1.2-1.8-1.3-1.1 0-1.3-.3-.5-.6 1.4-.6 1.6-5.9.2-6.8-.6-.4-.5-1.4.1-2.9.8-1.6 1.7-2.2 3.2-1.9 2.1.4 2.2 1 2.2 9.1zm-46-7.8c.3.5-.1 1-.9 1-.9 0-1.6-.5-1.6-1 0-.6.4-1 .9-1 .6 0 1.3.4 1.6 1zm2 3.5c.5 0 1.1.9 1.3 2 .2 1.4 0 1.6-.6.7-.5-.7-1.6-1-2.5-.6-1.3.5-1.7.1-1.7-1.6 0-1.4.4-1.9 1.3-1.3.6.4 1.6.8 2.2.8zM35 762c2.1 1.3 2.1 5-.1 7.4-2.1 2.2-2.3 1.9-.9-1.8.7-1.9.6-2.9-.5-4-2.5-2.5-1.5-3.5 1.5-1.6zm17 1c0 .5-.5 1-1.1 1-.5 0-.7-.5-.4-1 .3-.6.8-1 1.1-1 .2 0 .4.4.4 1zm-48 2.5c0 1.5-.6 2.5-1.5 2.5-1.2 0-1.3-.4-.3-2.5.6-1.4 1.3-2.5 1.5-2.5.1 0 .3 1.1.3 2.5zm28 .4c0 1.1-.4 2.3-1 2.6-.5.3-1-.1-1-1 0-1.2-.4-1.4-1.9-.5-3.1 1.6-4.3 1.2-2.3-.9 2.3-2.6 6.2-2.7 6.2-.2zm261-.9c0 .5-.9 1-2.1 1-1.1 0-1.7-.5-1.4-1 .3-.6 1.3-1 2.1-1s1.4.4 1.4 1zm-251 1.5c1.1 1.3 1 1.4-.4.9-.9-.3-1.6-1-1.6-1.5 0-1.3.6-1.1 2 .6zm-31.6.5c-.7.7-1.9.7-3.5.1-2.3-.9-2.2-1 1.1-1 2.3-.1 3.1.2 2.4.9zm42.1 0c-.3.5-1.2 1-1.8 1-.7 0-.6-.4.3-1 1.9-1.2 2.3-1.2 1.5 0zm-30.1 4.9c-.6.6-2.4-1.9-2.4-3.4.1-.6.7-.1 1.5.9.8 1.1 1.2 2.2.9 2.5zm269.3-3.3c-.3.3-1.2.4-1.9.1-.8-.3-.5-.6.6-.6 1.1-.1 1.7.2 1.3.5zm-252.2 1.5c1.1 1.7-.1 2.1-1.5.4-.8-.9-.8-1.5-.2-1.5.6 0 1.4.5 1.7 1.1zM16 772.5c0 .8-.4 1.5-1 1.5-.5 0-1-.7-1-1.5s.5-1.5 1-1.5c.6 0 1 .7 1 1.5zm28.7 1.7c-.3.8-.6.5-.6-.6-.1-1.1.2-1.7.5-1.3.3.3.4 1.2.1 1.9zm-23.4.8c2.1 2.4 2.1 3 .4 3-1.8 0-4.9-3.4-4-4.3 1-1.1 1.7-.8 3.6 1.3zm30.7-1c0 .5-.2 1-.4 1-.3 0-.8-.5-1.1-1-.3-.6-.1-1 .4-1 .6 0 1.1.4 1.1 1zm-24.7 4.5c-.5 4.3.6 6.1 2.2 3.5 1.1-1.8 2.5-1 2.5 1.5 0 2.6 1.5 3.5 2.2 1.3.2-.6 1-.8 1.7-.4.9.6.9 1.1 0 2.2-1.5 1.9-3.5 1.8-5.7-.3-1-1-2.6-2.3-3.6-2.8-1.4-.8-1.6-1.8-1-5.3.9-5.6 2.5-5.4 1.7.3zm11.5-3.2c1.4-.5 1.6 1.3.2 2.2-.5.3-2-.4-3.2-1.6-2-1.9-2.1-2-.3-1.2 1.1.6 2.6.8 3.3.6zm-19.3 5.6c-.3.5.5 1.3 1.7 1.7 1.9.6 2 .8.6 1.8-.8.6-1.7 1.8-2.1 2.6-.3 1-.6.7-.6-.8-.1-1.3-.6-3.2-1.1-4.3-.9-1.5-.7-1.9.5-1.9.9 0 1.4.4 1 .9zm17.7 1.3c-.7.7-1.2.8-1.2.2 0-1.4 1.2-2.6 1.9-1.9.2.3-.1 1.1-.7 1.7zm3.3 2.8c-.3.5-1.1 1-1.6 1-.6 0-.7-.5-.4-1 .3-.6 1.1-1 1.6-1 .6 0 .7.4.4 1zm9.5 1.6c0 .2-.7.4-1.5.4s-1.5-.4-1.5-1c0-.5.7-.7 1.5-.4.8.4 1.5.8 1.5 1z"/><path d="M141.2 57.6c-3.4 2.4-2.7 7.4 1.2 8.7 2.1.7 3.5.6 4.9-.3 1.6-.9 2.1-.9 2.8.1.5.8 3.3 1.4 7.3 1.5 5.8.2 6.4 0 5.1-1.3-2-2-1.9-2.5.8-2.3 4.1.4 4.1 0 .3-3.4-2.7-2.3-5.2-3.5-8.4-4-7.3-1-11.6-.7-14 1zm9.1 13.1c.9.2 2.3.2 3 0 .6-.3-.1-.5-1.8-.5-1.6 0-2.2.2-1.2.5zM115 83c-1.4 1.1-3.1 2.5-3.8 3.1-.7.6-1.2 2.5-1 4.2.3 2.8.7 3.2 3.1 3.2 1.6.1 3.3.8 3.8 1.8 1.2 2.1 2.9 2.2 2.9.2 0-1.1 1.1-1.5 3.8-1.5 2.1 0 4.1.3 4.5.6.3.4 3.2.8 6.4 1 4 .2 6.1.8 7 2 1 1.3 2 1.5 5 .9 2.1-.4 5.2-.8 6.8-.8 4.6-.3 4.6-3.8 0-7.3-2.9-2.2-3.8-2.5-4.8-1.4-.9 1-.9 1.1.2.5.9-.5 1.2-.3.9.6-.3.9-1.6 1.3-3.4 1.1-2.4-.2-2.6-.1-1.1.8.9.6 1.7 1.8 1.7 2.6s-.4 1.3-.9 1c-1.2-.8-22.7-3.6-27.3-3.6-2.1 0-3.8-.4-3.8-1 0-1.6 7.1-2.4 10.5-1.1 5.9 2.1 10.3 1.4 13.6-2.2l3-3.2-3.7-.3c-2.1-.2-4.8.2-6.2.9-2 1.1-2.8 1.1-5.5-.5-2.8-1.6-3.2-1.6-4.3-.2-1.3 1.8-4 2.1-4.9.6-.4-.6-.1-1.7.5-2.5 1.8-2.1-.1-1.8-3 .5zm7.4 24.9c.7 1 6.6 2 8.3 1.4 2.6-1 0-2.3-4.3-2.3-2.5 0-4.3.4-4 .9zM140 671c0 1.9.3 2.1 1.2 1.2.9-.9.9-1.5 0-2.4-.9-.9-1.2-.7-1.2 1.2zm9.1 8.7c.6 1.5 1.6 4.1 2.4 5.8.8 1.6 1.5 4 1.7 5.2.2 1.7.6 2 1.8 1.3 1.3-.8 1-1.9-2-7.6-3.7-7-5.7-9.4-3.9-4.7zM141 685c0 .8.5 2.2 1 3 .9 1.3 1 1.3 1 0 0-.8-.5-2.2-1-3-.9-1.3-1-1.3-1 0zm4.8 7.7c-.2.5-.1 2.4.2 4.3l.6 3.5 1.1-3.5c1-3.6.8-5-.7-5-.5 0-1 .3-1.2.7zM42 746c0 .5.7 1 1.5 1s1.5-.5 1.5-1c0-.6-.7-1-1.5-1s-1.5.4-1.5 1zM2.5 3.9c-.6 1.1.9 2.3 1.9 1.4.9-.9.7-2.3-.3-2.3-.6 0-1.2.4-1.6.9zM36.3 8c0 3 .2 4.3.4 2.7.2-1.5.2-3.9 0-5.5-.2-1.5-.4-.2-.4 2.8zM110 4.5c-1 1.3-.9 1.5.9 1.5 1.2 0 2.1-.6 2.1-1.5 0-.8-.4-1.5-.9-1.5s-1.4.7-2.1 1.5zm77.3 3c-1.4 3.7-2.4 9.5-1.7 9.5 1.2 0 3.5-3 3-3.9-.4-.5-.1-1.1.6-1.3.9-.3.9-1.3.2-3.8l-1-3.5-1.1 3zM39.2 11c0 1.4.2 1.9.5 1.2.2-.6.2-1.8 0-2.5-.3-.6-.5-.1-.5 1.3zM0 12.7C0 15.3.4 16 2 16c2.5 0 2.5-.8 0-4L0 9.5v3.2zm100 5.8c0 4.1.4 7.5 1 7.5.5 0 .8-3.3.7-7.5-.1-4.1-.5-7.5-.9-7.5s-.8 3.4-.8 7.5zM62.5 34c.3.5.8 1 1.1 1 .2 0 .4-.5.4-1 0-.6-.5-1-1.1-1-.5 0-.7.4-.4 1zM45.8 57.7c.6.2 1.8.2 2.5 0 .6-.3.1-.5-1.3-.5-1.4 0-1.9.2-1.2.5zm6.2.3c2 1.3 7.7 1.3 8.5 0 .4-.6-1.4-1-4.7-1-3.8 0-4.9.3-3.8 1zm-45.7.7c.9.2 2.3.2 3 0 .6-.3-.1-.5-1.8-.5-1.6 0-2.2.2-1.2.5zm5.5 0c.6.2 1.8.2 2.5 0 .6-.3.1-.5-1.3-.5-1.4 0-1.9.2-1.2.5zM78 77.1c0 1.2-.7 2.7-1.6 3.3-1.4 1-1.2 1.5 1.2 3.9 1.5 1.5 2.9 2.7 3.3 2.7.3 0 .4-2.7.3-6-.3-4.3-.8-6-1.8-6-.8 0-1.4 1-1.4 2.1zm-6.2 7.3c-.3 1.4-.2 2.6.3 2.6 1.4 0 2-2 1.1-3.6-.8-1.4-1-1.2-1.4 1zm-26 2.3c1.2.2 3 .2 4 0 .9-.3-.1-.5-2.3-.4-2.2 0-3 .2-1.7.4zm12.7.3c.3.5 1 1 1.6 1 .5 0 .9-.5.9-1 0-.6-.7-1-1.6-1-.8 0-1.2.4-.9 1zM39.2 99c0 1.4.2 1.9.5 1.2.2-.6.2-1.8 0-2.5-.3-.6-.5-.1-.5 1.3zm34.4 1.9c-.3.5-.2 2 .3 3.3.6 1.2 1 1.8 1.1 1.3.1-.6.3-1.8.5-2.7.4-2-1-3.4-1.9-1.9zM218 103c0 .5.5 1 1.1 1 .5 0 .7-.5.4-1-.3-.6-.8-1-1.1-1-.2 0-.4.4-.4 1zm5 0c0 .5.7 1 1.6 1 .8 0 1.2-.5.9-1-.3-.6-1-1-1.6-1-.5 0-.9.4-.9 1zm17 .1c0 .5.5.7 1 .4.6-.3 1-.8 1-1.1 0-.2-.4-.4-1-.4-.5 0-1 .5-1 1.1zm-173.9.3c.2.2 1.3.6 2.4.8 1.1.1 2.3 1 2.7 1.8.5 1.1.7.9.7-.8.1-1.8-.4-2.2-3.1-2.2-1.7 0-2.9.2-2.7.4zm.3 3.3c1 1.1 3.6 1.2 3.6.2 0-.5-1-.9-2.2-.9-1.2 0-1.8.3-1.4.7zm123.3 8.6c-.4 1-.7 2.8-.7 4 .1 2 .2 2 1.1.4.6-1 .9-2.8.7-4-.3-2-.4-2-1.1-.4zM70.5 125c-6 .4-21.4.7-34.1.6l-23-.1.9 3c1.9 5.8 2.6 7.2 2.6 5.3.1-1.4 1.3-1.8 6.4-2.1l6.2-.3-6.2-.2c-5.6-.2-6.3-.4-6.3-2.2 0-2 .5-2 22.3-1.8 20.8.3 22.3.4 21.9 2-.4 1.6-1.9 1.8-12.6 2l-12.1.2 12.5.5c14.9.7 19 .4 19-1.5 0-.8.8-1.4 1.8-1.4s2.3-.5 3-1.2c.9-.9 1.2-.8 1.2.4 0 .9-.4 1.9-.9 2.2-1 .6-1.3 7-.5 9.8.6 2.2 4.4 2.4 4.4.3 0-.8.4-1.5.9-1.5s1.7-2.1 2.7-4.8c.9-2.6 2.5-5.4 3.5-6.4 2.6-2.2 2.4-3.8-.3-3.6-1.3 0-7.2.4-13.3.8zm-4.5 4c0 .5-.5 1-1.1 1-.5 0-.7-.5-.4-1 .3-.6.8-1 1.1-1 .2 0 .4.4.4 1zm-64.2-2.3c1.2.2 3.2.2 4.5 0 1.2-.2.2-.4-2.3-.4s-3.5.2-2.2.4zm213.4 3.8c0 1.6.2 2.2.5 1.2.2-.9.2-2.3 0-3-.3-.6-.5.1-.5 1.8z"/><path d="M32.8 131.7c.7.3 1.6.2 1.9-.1.4-.3-.2-.6-1.3-.5-1.1 0-1.4.3-.6.6zm185.3 3.9c0 1.1.3 1.4.6.6.3-.7.2-1.6-.1-1.9-.3-.4-.6.2-.5 1.3zm-138.1 5c0 .8.5 1.2 1 .9.6-.3 1-1 1-1.6 0-.5-.4-.9-1-.9-.5 0-1 .7-1 1.6zm155 1c0 .8.5 1.2 1 .9.6-.4.8-1.1.5-1.6-.9-1.4-1.5-1.1-1.5.7zm4 2.5c0 1.8.2 1.9 1.5.5.8-.8 1.5-1.7 1.5-2 0-.3-.7-.6-1.5-.6-.9 0-1.5.9-1.5 2.1zM80.3 147c0 2.5.2 3.5.4 2.2.2-1.2.2-3.2 0-4.5-.2-1.2-.4-.2-.4 2.3zm168.7 1.7c0 2.3 1.7 4.9 2.6 4.1.9-1-.4-5.8-1.6-5.8-.6 0-1 .8-1 1.7zm-3 5.3c-.9.6-1 1-.3 1 .6 0 1.5-.5 1.8-1 .8-1.2.4-1.2-1.5 0zm-222 4.2c-3.6 3.8-2.4 5.1 1.7 1.8 1.4-1.1 2.9-1.7 3.4-1.4.5.3.6-.2.3-1-.9-2.2-3-2-5.4.6zM3.2 206.9c2 .4 4.3 1.2 5 1.8.9.7 1.8.4 3.1-.9 1.6-1.7 1.5-1.8-5-1.7-5.7.1-6.2.2-3.1.8zm289.4 131.9c-.9 1.4.2 12.4 1.4 13.6.7.7 1-1.4 1-6.7 0-6.9-.9-9.3-2.4-6.9zm-5.6 12.8c0 1.4.4 2.3 1 1.9.6-.3 1-1.5 1-2.6 0-1-.4-1.9-1-1.9-.5 0-1 1.2-1 2.6zm-276.5 2.9c-.5.2-3.1.6-5.7 1l-4.8.6v8c0 6.9.2 7.9 1.8 7.9 1.4 0 2.1-1.4 3.1-6.3 1.5-7.2 2.7-9.3 4.7-7.6.9.8 1.5.5 2.3-1 1.7-3 1.4-3.6-1.4-2.6zM283.2 380c0 1.4.2 1.9.5 1.2.2-.6.2-1.8 0-2.5-.3-.6-.5-.1-.5 1.3zm-2.7 21c.3.5.8 1 1.1 1 .2 0 .4-.5.4-1 0-.6-.5-1-1.1-1-.5 0-.7.4-.4 1zm-2.9 6.3c.1 1.2.3 3.1.3 4.1.1 1.5.4 1.7 1.3.8.8-.8.8-1.5-.1-2.6-.9-1-.9-1.5 0-1.8.8-.3.7-.7-.3-1.6-1.2-1-1.4-.8-1.2 1.1zm3.4.6c0 1.1.3 2.2.8 2.4.4.3.7-.6.7-1.9 0-1.3-.3-2.4-.7-2.4-.5 0-.8.9-.8 1.9zm1 7.2c0 1.3-.4 1.8-1.2 1.3-.7-.4-.8-.3-.4.4 1.2 1.9 2.3 1.4 2.8-1.3.3-1.4.1-2.5-.3-2.5-.5 0-.9.9-.9 2.1zm-.2 8.4c.2 1.9.6 3.5.8 3.5.2 0 .4-1.6.4-3.5s-.4-3.5-.8-3.5-.6 1.6-.4 3.5zM278 430c-.3 5.2-.4 9.7-.3 9.9 1 1.6 1.3-1.9 1.1-10l-.3-9.4-.5 9.5zm8.3-3c0 2.5.2 3.5.4 2.2.2-1.2.2-3.2 0-4.5-.2-1.2-.4-.2-.4 2.3zm-10.5 15.7c-1 .2-1.8.9-1.8 1.5 0 .5.7.7 1.5.4.9-.3 1.5-.1 1.4.7-.3 2.3.1 3.7 1 3.7.5 0 .9-1.6.9-3.5s-.3-3.4-.6-3.4c-.4.1-1.5.3-2.4.6zm9.5 6.8c0 2.2.2 3 .4 1.7.2-1.2.2-3 0-4-.3-.9-.5.1-.4 2.3zm-12.3-1c0 .8.7 1.5 1.6 1.5 1.4 0 1.4-.3.4-1.5-.7-.8-1.4-1.5-1.6-1.5-.2 0-.4.7-.4 1.5zm4 3.6c0 .5.5.7 1 .4.6-.3 1-.8 1-1.1 0-.2-.4-.4-1-.4-.5 0-1 .5-1 1.1zm-3.9 1.5c0 1.1.3 1.4.6.6.3-.7.2-1.6-.1-1.9-.3-.4-.6.2-.5 1.3zm3.6 2c-.3.3-.3 1.3 0 2.1s.1 1.8-.4 2.2c-.7.4-.6 1.1.3 1.9 1.2 1.1 1.4.6 1.4-2.8 0-4-.2-4.5-1.3-3.4zM26 469.5c-.1.5-.2 1.8-.1 2.7.1 1-.3 1.8-.9 1.8-2.3 0-4.4 3.3-4.3 6.9 0 2-.3 4.3-.8 5.2-.5.9-.4 2 .2 2.6.6.6 1.1 2.8 1.2 4.9.2 2.9.9 4.5 3 6.2 1.5 1.3 2.7 3 2.7 3.8 0 1.4 3.6 3.6 8 4.9 2 .6 1.9.3-1-1.7-2.2-1.5-3.7-3.5-4.1-5.3-.3-1.7-1-2.9-1.7-2.8-.7.2-1.2-.1-1.2-.6s-.7-1.7-1.6-2.5c-1.4-1.4-1.4-1.6 0-1.6.8 0 2 .8 2.5 1.7.8 1.4 1 .9 1.1-2.5 0-2.3-.7-5.3-1.5-6.6-.8-1.2-1.8-4.3-2.1-6.9-.6-3.9-.4-4.7 1-4.7.9 0 1.6-.6 1.5-1.3-.1-1.8-1.7-5.4-1.9-4.2zm14.1 3.1c0 1.1.3 1.4.6.6.3-.7.2-1.6-.1-1.9-.3-.4-.6.2-.5 1.3zM0 477.3c0 2.1.8 5.4 1.9 7.5 1.5 3 4.5 11.8 6.7 20.1.3 1 .8 1 1.8.2.7-.6 1.6-.8 1.9-.4 1.3 1.2.7-2.2-1.7-9.7-2.3-7.6-6.1-15.8-9-19.5-1.5-1.9-1.5-1.8-1.6 1.8zM279.5 506l-3 .8 3 .1c1.7 0 3.7-.4 4.5-.9 1.3-.9 1.3-1 0-.9-.8.1-2.8.5-4.5.9zm11.8-.3c.9.2 2.3.2 3 0 .6-.3-.1-.5-1.8-.5-1.6 0-2.2.2-1.2.5zm-18.3 2.1c0 1.5 2.2 3 3.7 2.5 1.1-.4 1-.8-.4-1.9-2.1-1.5-3.3-1.8-3.3-.6zm6.8.9c.6.2 1.8.2 2.5 0 .6-.3.1-.5-1.3-.5-1.4 0-1.9.2-1.2.5zm-37 2c.7.3 1.6.2 1.9-.1.4-.3-.2-.6-1.3-.5-1.1 0-1.4.3-.6.6zm-8.2 1.2c-.4.7-.5 1.5-.2 1.8.9.9 1.9-.4 1.4-1.8-.4-1.1-.6-1.1-1.2 0zm-33 6.3c-.6 1.9-1.6 12.1-1.2 11.7 1.1-1.1 3.3-12 2.5-12.5-.5-.3-1.1.1-1.3.8zm23 .5c-.6 1.4-.5 1.5.5.6.7-.7 1-1.5.7-1.8-.3-.3-.9.2-1.2 1.2zm-12 4.9c-1 3.7-.2 3.9 1.1.4.6-1.7.8-3 .3-3-.4 0-1.1 1.2-1.4 2.6zm9.5 1.8c-1.4 5.7-1.4 6.6.2 6.6.8 0 1.2-1.8 1.3-5.5.1-3 0-5.5-.1-5.5s-.8 2-1.4 4.4zM27.5 590c.3.5 1.1 1 1.6 1 .6 0 .7-.5.4-1-.3-.6-1.1-1-1.6-1-.6 0-.7.4-.4 1zm1.3 32.7c.7.3 1.6.2 1.9-.1.4-.3-.2-.6-1.3-.5-1.1 0-1.4.3-.6.6zm29.2 1.7c0 .9-.6 1.6-1.4 1.6-1.8 0-2.6 2.2-2.6 6.8v3.7h5c2.8 0 5-.2 5-.4 0-.3-.8-1.3-1.7-2.3-1-1.1-1.7-3.6-1.8-6 0-2.4-.5-4.3-1.2-4.5-.7-.3-1.3.2-1.3 1.1zm-.3 6.8c-.3.8-.6.5-.6-.6-.1-1.1.2-1.7.5-1.3.3.3.4 1.2.1 1.9z"/><path d="M64.4 632.5c1.5 1.4 3.1 2.5 3.5 2.5.5 0 .6-1.1.3-2.5-.3-2-1-2.5-3.5-2.5h-3l2.7 2.5zM158 778c0 .5.5 1 1 1 .6 0 1-.5 1-1 0-.6-.4-1-1-1-.5 0-1 .4-1 1zm-6.2.7c.7.3 1.6.2 1.9-.1.4-.3-.2-.6-1.3-.5-1.1 0-1.4.3-.6.6zm-3.3 3.3c.3.5 1 1 1.6 1 .5 0 .9-.5.9-1 0-.6-.7-1-1.6-1-.8 0-1.2.4-.9 1zm143.8 5c0 2.5.2 3.5.4 2.2.2-1.2.2-3.2 0-4.5-.2-1.2-.4-.2-.4 2.3z"/></svg>