<svg version="1.0" xmlns="http://www.w3.org/2000/svg" width="393.333" height="1054.667" viewBox="0 0 295 791"><path d="M143 5c-4.5.9-9.4 2.9-8.8 3.5.3.3 2.1-.2 4.1-1 2-.8 4.7-1.5 5.9-1.5 1.8.1 1.6.4-1.2 1.4-7.4 2.8-8.8 3.5-9.3 4.8-.3.7-.6.8-.6.2-.1-.6-1.2-.9-2.6-.6-3.1.5-4.3 2.2-1.8 2.3 1.4 0 1.2.3-.7 1.2-2.5 1.2-17.9 16.6-20.8 20.9-.9 1.2-1.9 2.5-2.3 2.8-1 .8-6.6 14.2-7.4 18.1-.4 1.8-1.3 4.3-2 5.4-.7 1.1-1.3 4.9-1.4 8.5 0 3.6-.5 9-1.1 12-1 5.2-.5 50.5.6 53.9.3.8.2 4-.2 7.1-.5 4.9-1 5.9-3.8 7.6-1.7 1.2-4.4 2.9-6 4-5.6 3.7-10.1 6.4-14.3 8.5-2.4 1.1-4.3 2.5-4.3 3s-1.7 2.8-3.9 5.2c-4.3 4.6-7 12-11.5 31.2-5.2 22.2-7.3 39-8.1 65-.3 11.9-.9 15-6.4 36.7-3.3 13-7.2 29.6-8.6 36.9-1.5 7.8-3.3 14.1-4.2 15.2-1.4 1.4-1.7 4.3-1.9 15-.1 7.3-.7 15.1-1.3 17.4-.6 2.3-.9 5.3-.6 6.6.5 1.9 0 2.6-2.8 3.9l-3.3 1.6-.2 8.3c-.2 7.2.1 8.4 1.8 9.6 1.1.8 2 2.3 2 3.3 0 2 3.4 4.5 4.9 3.5.5-.3 3.4.9 6.4 2.7 4.1 2.3 5.7 3.8 6.1 6 .3 1.5 1 2.8 1.6 2.8.6 0 .8-.4.5-1-.3-.5-.3-2.5 0-4.4.7-3.3.8-3.4 3.6-2.4 3.5 1.2 5.9-.3 5.9-3.7 0-1.3.7-2.5 1.5-2.9.8-.3 1.5-1.5 1.5-2.7 0-1.1.9-3.2 2-4.6 1.3-1.7 2-4.1 2-7 0-5.7 1.9-13.4 3.7-15.3 1.3-1.3 1.4-.4.8 7.5-.3 4.9-1.3 12-2.1 15.6-1.3 5.6-1.4 10.5-.5 34 .5 15.1.7 35.9.4 46.3-.6 18.8-.6 18.9-4.3 28.2-3.5 8.9-4.2 14.4-1.8 14.4.5 0 1.6-1.6 2.4-3.5.8-1.9 1.8-3.5 2.3-3.5.4 0 1.3 2.5 2 5.5 1.4 6 .9 14.7-1.6 28.8-1 5.7-1.4 12.9-1.2 20.6.4 10.9.6 12.2 2.8 14.5 1.3 1.4 3.3 2.6 4.4 2.8 1.5.2 2.4 1.6 3.4 5.3.8 2.7 2.3 6.8 3.3 9.1 1 2.2 2.6 6.7 3.5 10 1 3.2 2.8 7.3 4.1 9.1 2.1 2.8 2.4 4.2 2.4 12.3 0 5-.5 10-1 11.1-1 1.9-1.6 46.5-.6 51.9.6 4 2.7 11.1 3.6 12.9.5.9 1.6 3.3 2.4 5.3.8 2.1 1.9 3.8 2.4 3.8s1.7 2.1 2.6 4.7c1 2.7 2.9 6.9 4.2 9.4 2.8 5.5 2.9 6.5.8 8.6-2.7 2.7-.1 14.7 4.1 18.9.7.7 1.5 3.5 1.8 6.3.3 2.9.9 5.6 1.2 6.1.4.6 8.8 1 21 1h20.3l.6-7.3c.3-3.9.8-9.9 1.2-13.2.4-4.4.2-6.7-.9-9-4.1-8-4.5-10.2-4.8-23.5-.3-12.2 0-48.8.3-55 .1-1.4-.1-13.6-.5-27.2-.6-22.8-.5-25.4 1.4-32.5 1.6-6.5 2-10.5 1.8-23.8-.4-23.5-.3-25.9.5-28.1.6-1.6 1-1.3 2.6 2.1 1.5 3.1 1.9 6.4 2 15 .1 10.2.3 11.4 3 16.5 2.3 4.3 3 6.8 3 11.3 0 3.2.4 6.7 1 7.7.5 1 1.4 12.4 1.8 25.2l.8 23.3 4.4 8c2.4 4.4 4.6 8.2 5 8.5.3.3 1.6 2.3 2.9 4.5 2.3 3.8 2.4 5 2.9 28.7.4 21 .2 25.8-1.2 31.7-1.3 5.4-1.6 9.8-1.1 20.9.3 7.7.5 14.5.5 15.1 0 .8 8.7 1.1 28.5 1.1H223v-3.3c0-1.9.9-6.3 2-9.8 4-12.8 4.5-15.6 7.1-43.4 1.2-11.9.6-28.7-1.2-33.2-1.3-3.5-1.9-18-.8-20.9.5-1.5.2-3.3-1.1-5.5-1-1.9-2.3-4.4-2.9-5.6-.5-1.1-1.5-2.4-2-2.8-2.2-1.3-1-5 2.8-9 2.2-2.2 5.1-6.9 6.6-10.4 2.4-5.7 2.7-7.9 3.2-23.5.6-16.4.5-17.6-2.2-28.1-2.5-10-2.6-11.2-1.2-14 .8-1.6 2-4.2 2.7-5.7.8-1.8 1.1-5.5.8-11.5-.4-7.7-.9-9.6-4.1-15.7-2.8-5.2-3.7-8.1-3.7-11.7 0-2.6-.5-5.1-1-5.4-.6-.3-2.5.4-4.3 1.7-1.7 1.3-3.2 2.1-3.2 1.9 0-.7-5 1.1-6.5 2.4-.8.8-2.8 1.6-4.5 2l-3 .7 2.5-1.9c2-1.4 2.5-2.8 2.7-6.3l.1-4.5-2.3 5.2c-1.4 3.1-3 5.3-3.9 5.3-.9 0-1.6.6-1.6 1.2-.1 1.7-7.5 6.8-9.8 6.7-1 0-1.2-.3-.5-.6.7-.2 1.3-1 1.3-1.7 0-.6 1-2.4 2.2-3.9 1.2-1.5 2.3-3.7 2.5-4.8.3-1.8-.1-1.7-2.7 1.1-1.6 1.8-3 3.5-3 3.9 0 1.1-4.2 3.3-6.8 3.6-1.3.1-2.8.9-3.3 1.6-.7 1.2-1.1 1.1-2.5-.2-1.5-1.6-1.4-2.1 1.4-7.5 3.8-7.3 5.5-15.2 5.8-26.9l.3-9-1.4 6.5c-3.2 15.4-6 21-10.5 21-3 0-3.4-2.3-1.6-7.7.9-2.5 1.6-5.9 1.6-7.3 0-1.5.9-5.3 2-8.6 1.1-3.2 2.3-8.6 2.7-11.9.4-3.9 1.4-7.1 2.9-9 1.2-1.7 3.4-5.3 5-8 1.5-2.8 5-7.7 7.9-11.1 2.8-3.3 5.7-7.5 6.4-9.2.8-1.9 1.8-2.9 2.5-2.5.6.4 1.8.8 2.6.8 4.5.4 4.9.6 4.4 2-.4 1.1.1 1.5 1.7 1.5 4.1.1 8.9 2.9 16.5 9.6 1.6 1.4 3.9 2.1 7.2 2.3 6.5.2 7.7-1.4 7.4-8.9-.2-4.2.1-6 1.2-7 .9-.7 1.6-1.9 1.6-2.6 0-2 10.1-11.4 12.2-11.4 1.7 0 2.1-.8 3.2-7.6.3-1.8 1.7-4.4 3.1-5.9 1.9-2.1 2.5-3.9 2.5-7.3 0-2.5.7-8.2 1.5-12.6.8-4.5 1.9-14.4 2.4-22.1.4-7.7 1.5-16.7 2.4-20 5.2-20.4 5.3-21.1 3.5-28-1.5-5.7-1.6-6.8-.3-9.9.8-2 1.5-5.4 1.5-7.8 0-6-3.9-40.8-5-44.3-1-3.2-7.7-40.1-8.9-49.5-2.1-15.3-7.5-43-9.3-47.9-3.7-10.1-14.9-25.1-21.8-29.3-1.9-1.2-4.8-2.4-6.5-2.6-1.6-.2-3.5-.8-4.1-1.3-.6-.5-1.9-.7-2.8-.3-.9.3-1.6.2-1.6-.4 0-.6-2.4-1.8-5.2-2.7-2.9-1-6.2-2.3-7.3-2.9-1.1-.7-4.2-2-7-3-13.1-4.6-17.5-6.9-18.1-9.2-1.4-5.4 2.8-24.1 7.3-32.9 4.1-8.1 5.6-17 5-30-1-19.6-4.9-35.4-9.6-38.7-1-.7-2.1-2.3-2.5-3.5-1-3-9.6-10.7-15.1-13.3-3.7-1.8-5.2-2-8.7-1.3-3.6.7-7.1.8-12.3.4-.5-.1-.3-.6.5-1.1 1.3-.9 1.3-1 0-.9-.8.1-3.1.5-5 .9zm-.5 25.8c11.1 1.6 18.3 4.2 21.5 7.9 1.7 1.8 3 4 3 4.7 0 .8.6 1.8 1.3 2.4.7.6 1.4 3.9 1.5 7.9.5 11 .6 11.7 2.2 13 1.1.9 1.2 1.2.2 1.3-1 0-.9.4.3 1.6 1.2 1.3 1.4 2.9 1 7.8-.4 3.3-1.1 7.5-1.6 9.2-1 3.2-4.9 6.1-6.7 5-.6-.3-2.3 1.9-3.7 4.9-1.5 3-3 5.5-3.4 5.5-.3 0-1.2 1.5-2 3.2-1.9 4.5-7.1 9.3-11.5 10.8-2 .6-3.4 1.6-3.1 2.1.4.5-.4.9-1.5.9-1.2 0-3.6.6-5.3 1.4-3.7 1.7-10.7 2.6-10.7 1.4 0-.4-1-.8-2.2-.8-2.8-.1-4.9-1.7-6.6-5-.7-1.4-2.1-4-3.3-5.9-1.4-2.4-1.7-3.7-1-4.4 1.7-1.7 1.3-4-.4-3.3-.8.3-1.5.3-1.5.1 0-.3-.9-4.9-2.1-10.2-1.8-8.4-1.9-10.4-.9-15.8.7-3.5 2.1-7.7 3.2-9.5 2.1-3.6.6-3.4 15.4-1.3 3.6.5 4.4.2 5.4-1.7 1-1.8.8-2.7-1.2-5.6-2.4-3.6-4.9-4.9-11-6-2.9-.5-3.8-1.1-3.8-2.5 0-1.1.6-2.2 1.4-2.5.8-.3 1.3-1.1 1-1.8-.3-.7.8-3.7 2.3-6.7 3.4-6.6 8.9-10.2 14.3-9.5 1.9.3 6.2.9 9.5 1.4zm23.1 67.9c-1.1 1.1-1.7-.4-.9-2.3.7-1.8.8-1.8 1.1-.1.2 1 .1 2.1-.2 2.4zM155 131c0 3.6-13.1 25.2-16.2 26.8-3 1.5-19 7.2-20.3 7.2-.5 0 .5-1 2.4-2.2 3.3-2.1 3.3-2.2 1.1-3-2.3-.8-5.9-4.6-6-6.2 0-.5.8-.2 1.8.7 3.2 2.9 4.1 2 2.5-2.4-.7-2.3-1.5-7.1-1.6-10.8-.2-6.4-.1-6.6 2.1-6.3 1.3.2 3-.2 3.7-.8 1.5-1.2 7.6.1 10.2 2.3 1.3.9 3.5.4 10.9-2.9 8.3-3.6 9.4-3.9 9.4-2.4zm-48 111.7c0 1.7-2.9 8.7-3 7.2 0-3 1.2-7.9 2.1-7.9.5 0 .9.3.9.7zm1.2 4.8c-.2 1.4-.8 2.8-1.3 3.1-.5.3-.7-.2-.4-1 .3-.9.7-2.3 1-3.1.7-2.4 1.3-1.7.7 1zm-1.5 8.7c-.3.7-.5.2-.5-1.2s.2-1.9.5-1.3c.2.7.2 1.9 0 2.5zM191.3 547c.8 0 .7.4-.1 1.2-.9.9-1.6.8-3-.6-1.6-1.8-1.6-1.9.1-1.2 1 .3 2.4.6 3 .6z"/><path d="M141.2 57.6c-3.4 2.4-2.7 7.4 1.2 8.7 2.1.7 3.5.6 4.9-.3 1.6-.9 2.1-.9 2.8.1.5.8 3.3 1.4 7.3 1.5 5.8.2 6.4 0 5.1-1.3-2-2-1.9-2.5.8-2.3 4.1.4 4.1 0 .3-3.4-2.7-2.3-5.2-3.5-8.4-4-7.3-1-11.6-.7-14 1zm9.1 13.1c.9.2 2.3.2 3 0 .6-.3-.1-.5-1.8-.5-1.6 0-2.2.2-1.2.5zm-34.5 11.6c-.7.8-2.4 1.9-3.6 2.6-1.9 1-2.3 1.9-2 4.9.2 3 .7 3.7 2.4 3.7 1.2 0 3.2.9 4.4 2 2 1.8 2.2 1.8 3.1.2 1-1.7 6.8-2.5 8.2-1.1.3.4 2.5.8 4.9 1.1 7.8.8 8.3.9 8.6 2.6.4 1.7 2.4 1.6 7.8-.4 1.2-.4 3.1-.5 4.2-.2 4.5 1.1 4-5.2-.7-8-3.3-1.9-5.1-2.2-5.1-.6 0 .5.5.7 1.1.3.7-.4 1-.1.7.7-.3.9-1.6 1.3-3.4 1.1-2.4-.2-2.6-.1-1.1.8 4.6 2.9-1.1 3.5-11.8 1.3-1.1-.2-5.8-.6-10.4-1-7.5-.6-8.2-.8-6.5-2 1.3-1 3.2-1.2 5.9-.8 13.1 1.9 13.2 1.9 16.5-1.6 1.6-1.9 3-3.6 3-3.9 0-.9-7.3 0-9.8 1.3-1.9.9-3 .8-5.4-.6-2.8-1.6-3.2-1.6-4.8-.2-3 2.7-6.4.9-4-2 1.6-1.9-.3-2-2.2-.2zm7.3 24.7c-1.6 1-.1 2 3.7 2.6 2.5.4 6.2-1 5.2-1.9-1.1-.9-7.8-1.5-8.9-.7zM26 469.5c-.1.5-.2 1.8-.1 2.7.1 1-.3 1.8-.9 1.8-.7 0-2.3.9-3.7 2-1.4 1.1-2 2-1.4 2 1.2 0 1.1 5.6-.3 7.8-.4.6-.2 2.1.4 3.2.6 1.1 1.1 3.5 1.2 5.4.1 2.6.9 4 3 5.6 1.5 1.1 2.8 2.9 2.8 3.8 0 1 1.4 3.1 3.2 4.8 1.8 1.6 2.6 2.1 1.8 1-1.4-1.8-1.3-1.8 1.8-1.2 4 .9 4.1.1.2-1.9-3.4-1.8-5-6.3-5-14.3 0-2.8-.4-5.2-.8-5.2-.5 0-1.6-1.6-2.5-3.5-2-4.2-1.4-8.2 1.3-8.7 1.6-.3 1.7-.6.5-3.3-.7-1.7-1.4-2.6-1.5-2zm1 25.5c.8.5 1.2 1.1 1 1.4-.3.2-1.4-.2-2.4-1-2.2-1.5-1-1.9 1.4-.4zm13.2-23c0 1.4.2 1.9.5 1.2.2-.6.2-1.8 0-2.5-.3-.6-.5-.1-.5 1.3zm161.4 46.2c-.7 2.2-1.8 12.3-1.3 11.8 1.2-1.2 3.4-12.1 2.6-12.6-.5-.3-1.1.1-1.3.8zm21.5 4.3c-2.5 6.7-2.8 10.7-.6 9.9.9-.4 1.2-1.5.9-3.3-.3-1.4.1-4.6 1-7.1 2.2-6.5 1.2-6.1-1.3.5zm-8.9-2.2c-.6.6-1.3 2.6-1.7 4.2l-.7 3 1.4-2.5c2.7-4.9 3.3-7.5 1-4.7z"/></svg>