<?xml version="1.0" encoding="UTF-8" standalone="yes"?>
<!-- Created with sK1/UniConvertor (http://sk1project.org/) -->
<svg xmlns="http://www.w3.org/2000/svg" xmlns:xlink="http://www.w3.org/1999/xlink"
  width="295pt" height="791pt" viewBox="0 0 295 791"
  fill-rule="evenodd">
<g>
<g>
<path style="stroke:none; fill:#000000" d="M 16.9 2.59998C 15.8 3.89996 16.8 12.2 18 11.5C 18.4 11.2 18.6 9.09998 18.5 6.79999C 18.4 4.39996 18.5 4 18.7 5.70001C 19.3 10.2 20.7 9.79999 21.2 5.10004C 21.5 1.80005 21.2 1.20001 19.7 1.30005C 18.7 1.40002 17.4 2 16.9 2.59998z"/>
<path style="stroke:none; fill:#000000" d="M 38 4C 38 5.59998 38.5 7 39 7C 39.6 7 40 5.59998 40 4C 40 2.29999 39.6 1 39 1C 38.5 1 38 2.29999 38 4z"/>
<path style="stroke:none; fill:#000000" d="M 55 3.5C 55 5.40002 54.6 5.79999 53.3 5.29999C 52 4.79999 51.8 5 52.5 6.59998C 54 10.1 54.4 14.3 53.1 13.6C 52.5 13.2 52 13.5 52 14.4C 52 15.2 53.1 15.9999 54.8 16.2C 56.3 16.4 44.6 16.9999 28.7 17.4C 10.6 17.9 -1.90735e-06 18.6 -1.90735e-06 19.3C -1.90735e-06 19.9 3.9 20.1 10.7 19.8C 16.6 19.5 20.6 19.7 19.5 20.1C 18.4 20.5 14.9 20.9 11.8 20.9C 7.9 20.9999 6 21.4 6 22.2C 6 23.2 5.7 23.2 5.1 22.2C 4.1 20.6 0.799997 20.9999 0.199997 22.7C -0.300003 24.2999 6.3 24.4999 9.1 22.9999C 10.5 22.2 11 22.2999 11 23.0999C 11 23.6999 11.7 23.9999 12.5 23.6999C 13.3 23.2999 14.2 23.4999 14.5 23.9999C 14.9 24.5999 12.1 24.9999 7.6 24.9999L -2.86102e-06 24.9999L -2.86102e-06 30.0999C -2.86102e-06 34.8998 0.0999971 35.0999 2.3 34.3998C 5.8 33.2999 11.1 33.0999 10.4 34.0999C 9.7 35.3998 11.4 35.1998 12.7 33.8998C 14.2 32.3998 20.9 30.9998 21.6 32.0999C 21.9 32.5999 23.1 32.8998 24.3 32.7999C 27 32.6999 29.3 33.1999 30 34.1999C 30.3 34.5999 31.9 34.2999 33.4 33.4999C 35.6 32.2999 36.6 32.2999 37.7 33.0999C 38.6 33.8998 39.8 33.9999 41.3 33.2999C 42.5 32.7999 44.4 32.3998 45.5 32.3998C 47.4 32.4998 47.5 33.1998 47.4 44.1998C 47.4 50.6998 47.6 55.9998 47.9 55.9998C 48.2 55.9998 48.7 51.1998 48.8 45.2998C 49.2 33.1998 49.9 31.8998 55.3 32.6998C 57.6 32.9998 59 32.6998 59 32.0999C 59 31.4999 60.4 31.1998 62.3 31.3998C 64 31.5999 65.4 32.2999 65.3 32.8998C 64.9 34.3998 66.3 34.2999 67.8 32.7999C 68.7 31.8998 69 31.9999 69 33.2999C 69 34.1999 69.7 34.9999 70.5 34.9999C 71.3 34.9999 72 35.6999 72 36.4999C 72 37.3999 72.9 37.9999 74.3 37.9999C 75.9 37.9999 76.1 38.2999 75.1 38.8999C 74.2 39.4999 74.1 39.9999 74.9 40.3999C 75.6 40.8999 76 44.4999 76 49.7999C 76 54.8999 75.6 57.9999 75.1 57.2C 74.4 56.1 74.2 56.1 73.7 57.4C 73.3 58.4999 72.2 58.7 69.6 58.3C 65.2 57.6 64.9 58.7 69 60.1C 71.6 61.1 72 61.7 72 65C 72 67 72.3 71.5 72.6 74.9C 73.2 79.9 73.5 80.8 74.6 79.9C 75.4 79.3 76 77.6 76 76.1C 76 74.2 76.9 72.9 78.9 71.7C 82.1 69.9 86.8 69.2 84 71C 82.8 71.7 82.8 72 83.9 72C 84.8 72 85 72.7 84.6 74.3C 84.1 76.4 84.3 76.6 87 76.2C 88.7 76 90.2 75 90.5 73.9C 90.9 72.9 91.6 72 92.2 72C 93 72 93 74.6 92.4 80.7C 91.9 85.6 91.6 93.9 91.8 99.2L 92 109L 78 108.9C 70.4 108.9 63.7 109.1 63.2 109.4C 61.7 110.3 59.7 107.3 60.3 105.1C 60.9 102.6 59.6 100.5 57.9 101.6C 57.2 102 52.8 102.4 48.2 102.4C 41.6 102.5 39.7 102.8 39 104.1C 38.2 105.4 35.2 105.9 22.8 106.5C 14.4 107 5.8 107.3 3.7 107.1C 0.999995 107 -5.00679e-06 107.4 -5.00679e-06 108.4C -5.00679e-06 110.3 10.6 110.8 34 109.9C 47 109.4 51.8 109.5 56.5 110.7C 59.8 111.5 63.9 112.2 65.7 112.2C 67.5 112.2 69.1 112.8 69.4 113.6C 69.7 114.4 70.9 115 72 115C 73.1 115 74 115.3 74 115.7C 74 116.2 57.4 116.3 37 116.2C 10.7 115.9 -7.62939e-06 116.1 -7.62939e-06 116.9C -7.62939e-06 117.6 2.39999 118 6.29999 118C 9.69999 118 27.8 118.1 46.6 118.2C 77.2 118.5 80.9 118.7 83.3 120.3C 86 122 86.1 122 88.5 119.4C 89.9 117.9 91.2 116.9 91.5 117.1C 92.1 117.8 93.6 141.8 93.2 146C 92.9 149.1 92.3 149.9 88.2 152C 85.7 153.4 82 155.5 80.1 156.8C 78.2 158 75.5 159.3 74.2 159.7C 71.6 160.3 67.8 163.1 65.1 166.4C 64.2 167.5 62.2 169.7 60.7 171.3C 57.1 175.1 54.6 181.5 51.1 195.5C 48.5 205.9 48.2 206.5 45.7 206.8C 42.5 207.2 42.1 209 45.1 209.7C 47.4 210.3 47.3 211.5 44.5 229C 42.5 241.1 41 257.9 41 269.5C 40.9 280.9 40.8 281.3 34.6 305.5C 32.1 315.4 28.7 329.9 27.1 337.7C 25.1 347.2 23.4 352.8 22 354.8C 19.3 358.5 17.5 371 19.7 371C 21.2 371 20.9 376.4 18.9 387C 18.3 390.1 18 393.9 18.2 395.5C 18.4 398.1 18.1 398.7 15.5 399.6C 13 400.5 12.5 401.2 12.4 404.2C 12.4 406.1 12 408.1 11.7 408.7C 11.3 409.3 11.1 411.7 11.2 414C 11.3 417.2 11.9 418.5 13.7 419.8C 16 421.2 16.1 421.7 15.5 427.4C 14.7 433.6 13.3 436 10.5 436C 9.59998 436 6.89998 436.5 4.39998 437.1C 1.19998 437.9 -1.62125e-05 438.7 -1.62125e-05 440.1C -1.62125e-05 442.4 -0.400016 442.4 8.09998 440.3C 13 439.1 15 438.2 15 437.1C 15 436.2 15.6 434.3 16.4 432.8C 17.3 431.1 17.5 429.9 16.8 429.2C 15.2 427.6 16.9 425.8 19.2 426.6C 20.7 427 21 426.9 20.5 426C 19.8 424.9 27.5 428.9 30.6 431.2C 31.2 431.6 32 431.7 32.3 431.3C 32.7 431 33 431.6 33 432.8C 33 435.5 34 438 35.1 438C 35.6 438 35.9 437.2 35.8 436.2C 35.4 430.6 35.8 430 40.2 430.2C 44.2 430.5 44.5 430.3 44.8 427.8C 45 426.3 46.1 424.4 47.2 423.6C 48.3 422.8 49 421.6 48.8 420.8C 48.5 420.1 49.2 418.3 50.4 416.9C 51.6 415.4 53.1 413.4 53.8 412.4C 54.9 410.8 55 411.1 54.4 415C 54 417.5 53.6 440.2 53.4 465.5C 53 513.4 52.8 517.9 51.6 519.8C 48.4 525 44.6 541 46.6 541C 48.4 541 51 538.7 51 537.1C 51 536.1 51.6 534.7 52.3 534.1C 54.4 532.4 56.4 545 55.1 551C 54.6 553.4 54.3 555.7 54.5 556.1C 54.8 556.4 54.3 560.5 53.6 565.1C 52.8 569.7 51.9 578.7 51.6 585C 51 598.3 52.3 602.5 57.7 605C 60.1 606.1 61.1 607.5 62.1 610.8C 63.1 614.3 63.1 615.3 62.1 616C 61.2 616.5 61.5 616.9 62.9 617.3C 64.1 617.6 65 618.5 65 619.4C 65 620.3 65.9 622.8 67 625C 68.1 627.2 69 629.8 69 631C 69 632.1 70.2 634.9 71.7 637.1C 74 640.5 74.5 642.7 75.1 650.8C 75.6 658.1 75.4 660.9 74.4 662C 73.6 662.9 73.1 666.5 73.1 671.5C 73 684.5 73 684.4 69 681C 66.1 678.4 64.4 678.3 51.7 679.8C 46.1 680.5 44.5 680.4 42.2 679C 38 676.4 31.8 668.9 28.5 662.3C 25.6 656.7 25.5 656.1 25.4 641C 24.9 586.9 23 534.4 21.4 531.9C 21.1 531.3 20 531.2 19 531.5C 17.6 531.9 17.1 531.3 16.6 528.6C 16.2 526.5 15 524.5 13.4 523.5L 10.8 521.8L 11.5 526.8L 12.1 531.7L 6.09998 532.4L -1.85966e-05 533.1L -1.85966e-05 576.6C -1.85966e-05 611.1 0.299981 620 1.19998 619.4C 2.19998 618.8 2.19998 619 1.29998 620.1C -0.500019 622 -0.500019 656.6 1.29998 657.3C 2.19998 657.7 2.19998 657.9 1.29998 657.9C 0.299981 658 0.0999814 667.7 -1.85966e-05 700L -1.85966e-05 742L 2.39998 742C 3.89998 742 4.99998 741.3 5.29998 740.2C 5.59998 739.2 5.79998 739.7 5.89998 741.4C 5.99998 744.1 5.79998 744.2 2.99998 743.7C 0.699981 743.2 -1.85966e-05 743.4 -1.85966e-05 744.6C -1.85966e-05 745.8 0.699981 746.1 2.49998 745.8C 3.89998 745.5 4.99998 745.7 4.99998 746.1C 4.99998 746.6 4.59998 747 4.09998 747C 3.59998 747 3.39998 748 3.69998 749.2C 4.09998 751.3 3.99998 751.4 2.69998 749.8C 1.19998 747.9 -1.88351e-05 748.4 -1.88351e-05 750.7C -1.88351e-05 751.5 0.499981 751.8 1.19998 751.4C 2.19998 750.8 2.19998 751 1.19998 752.1C -0.400019 753.8 -0.400019 755.3 1.19998 754.4C 2.19998 753.8 2.19998 753.9 1.39998 755.1C -1.87159e-05 756.7 -0.200019 762.2 1.09998 761.4C 1.59998 761.1 1.99998 761.6 1.99998 762.4C 1.99998 763.3 1.59998 764 0.999981 764C 0.399981 764 -1.85966e-05 766.7 -1.85966e-05 770C -1.85966e-05 775.1 0.299981 776 1.79998 776C 3.19998 776 3.29998 775.8 1.99998 775C 1.09998 774.4 0.999982 774 1.69998 774C 2.29998 774 3.19998 774.5 3.49998 775C 4.59998 776.8 6.19998 776 5.69998 773.9C 5.19998 772 5.29998 772 6.79998 773.3C 7.69998 774.1 9.49998 775.1 10.7 775.4C 12.2 775.9 13 776.9 13 778.5C 13 780 12.3 781 10.7 781.4C 7.09998 782.3 5.69998 782.1 6.29998 780.6C 7.19998 778.4 2.49998 778 1.19998 780.1C -0.100018 782.2 0.999982 783.3 3.39998 782.4C 5.19998 781.7 5.39998 782.8 4.09998 784.9C 3.29998 786.1 2.89998 786.1 1.59998 785.1C 0.199982 783.9 -1.8239e-05 784.2 -1.8239e-05 787.4C -1.8239e-05 790.3 0.399982 791 1.99998 791C 2.99998 791 4.39998 790.2 4.99998 789.2C 6.09998 787.6 6.09998 787.6 5.59998 789.2C 4.79998 791.8 9.19998 791.1 10.4 788.5C 11.3 786.6 11.4 786.6 11.7 788.7C 12 790 12.8 791 13.6 791C 15.3 791 15.5 788.4 13.8 787.7C 13 787.4 13.2 787.1 14.3 787.1C 15.4 787 16 787.7 16 789C 16 791 16.7 791 78 791L 140 791L 140 784.5L 140 778L 144.5 778C 147 778 149 777.6 149 777.2C 149 776.5 160.9 774 164 774C 164.6 774 165 777.6 165 782.5L 165 791L 194.5 791L 224 791L 224 787.7C 224 782.8 226 776.4 227 778C 227.7 779.2 228.3 779.2 230.3 778.1C 231.7 777.4 233.7 777.1 234.9 777.5C 236.1 777.8 237 777.7 237 777.2C 237 776.6 236.5 776 235.9 775.8C 235.3 775.6 237 775.3 239.6 775.2C 242.2 775.1 244.6 774.6 244.9 774.1C 245.5 773.2 252.8 773.5 258.5 774.5C 260.7 775 261.1 774.9 260 774.1C 258.8 773.3 258.8 772.8 259.8 771.8C 260.4 771.2 261 771 261 771.6C 261 772.1 265.5 772.5 271.4 772.5C 280.3 772.5 282.1 772.2 284 770.5L 286.1 768.6L 285.4 771.5L 284.7 774.4L 287.4 772.6C 288.9 771.7 290.8 771.1 291.6 771.4C 292.6 771.8 293 771.2 293 769.5C 293 768.2 293.5 766.8 294 766.5C 295.6 765.5 295.3 710.3 293.8 709.7C 292.8 709.3 292.8 709.1 293.8 709.1C 294.6 709 295 707.4 295 704.4C 295 700.8 294.7 700 293.8 700.8C 292.8 701.6 292.5 701.2 292.4 699.5C 292.3 697.9 292.6 697.3 293.6 697.7C 295.4 698.4 295.6 691 293.8 689.2C 292.9 688.3 292.9 688 293.8 688C 295.6 688 295.5 644.4 293.8 643.7C 292.8 643.3 292.8 643.1 293.8 643.1C 294.7 643 295 638.7 295 625.2L 295 607.5L 290.2 607.5C 284.7 607.6 282.8 607.1 283.5 605.9C 283.8 605.5 284.7 605.3 285.5 605.7C 286.6 606.1 286.8 605.8 286.4 604.5C 285.8 603 286 602.9 287.8 603.9C 288.9 604.5 290.1 605.4 290.4 605.9C 290.8 606.4 291.9 606.6 293 606.3C 295.6 605.6 295.7 600.6 293.3 599C 291.8 598.1 291.8 597.9 293.1 598.3C 294.4 598.7 294.8 598.1 294.8 595C 294.9 592 294.4 591 292.9 590.5C 290.9 589.8 290.2 588 292 588C 292.6 588 293 588.4 293 589C 293 589.5 293.4 590 293.8 590C 294.3 590 294.7 584.2 294.8 577.2C 294.9 565.2 294.8 564.4 293 564.3C 291.9 564.2 291 564.6 291 565.2C 291 565.9 290.5 565.8 289.5 565C 288.7 564.3 287.4 564 286.6 564.3C 285.6 564.7 285.3 564.4 285.6 563.5C 286.2 562.1 283.9 559.4 280.4 557.4C 279.4 556.7 278.9 555.8 279.3 555.4C 279.8 554.9 280.7 555.2 281.4 556C 284.9 560.4 289.9 564.2 291.2 563.4C 291.9 562.9 293 562.5 293.5 562.5C 295 562.5 295.1 520.9 293.7 519.1C 292.8 518 292.8 517.8 293.7 518.3C 295.1 519.2 295.3 511.1 293.9 508.9C 293.4 508.1 293 508 293 508.6C 293 510.4 288.4 512 287.1 510.7C 285.3 508.9 283.6 511.3 284.9 513.8C 285.5 514.8 285.6 516 285.2 516.4C 284.9 516.8 285.2 517.6 286 518.1C 287.2 519 287.2 519.1 285.7 518.6C 284.7 518.3 283.4 518 282.8 518C 282.3 518 282 517 282.1 515.7C 282.3 514.5 282.1 512.9 281.7 512.2C 280.7 510.6 276.3 510.6 275.6 512.2C 275.1 513.2 274.9 513.2 274.4 512.2C 273.6 510.4 272 510.7 271.9 512.7C 271.8 513.7 271.4 512 271 509C 269.8 500.5 269.8 458.8 271 459.5C 271.6 459.8 272 459.4 272 458.5C 272 457.6 271.6 457.1 271.1 457.5C 270.5 457.8 270.2 456.2 270.2 453.8C 270.2 451.4 270.2 448.2 270.1 446.6L 270 443.7L 268 446.3C 266.2 448.6 266 450.6 265.8 478.6C 265.5 504.3 265.3 508.5 264 508.2C 263.2 508 258.9 508.2 254.3 508.5C 246.5 509.2 246 509.4 244.8 512.1C 243.3 515.5 242 515.8 241.3 513C 240.6 510.2 239 510.5 239 513.4C 239 515.3 238.6 515.6 236.6 515.3C 235.3 515 234 515.3 233.6 515.8C 233.1 516.7 231.9 522.3 231.6 526C 231.3 528.4 230.2 529.8 227.2 531.3C 225.7 532 223.6 533.1 222.5 533.7C 215.4 537.4 208.8 540.1 207.7 539.7C 207 539.5 207.7 538.7 209.2 538C 211.2 537 211.7 536.4 211 535.5C 210.3 534.6 210.3 533.4 211 531.5C 211.6 530 211.9 528.5 211.6 528.3C 211.4 528.1 210.6 529.6 210 531.6C 208.1 537.2 195.1 548.5 193 546.3C 192.7 546 193 545.5 193.7 545.3C 194.4 545.1 194.7 544.3 194.4 543.7C 194.2 543 195.2 541.2 196.7 539.6C 198.2 537.9 199.6 535.7 199.7 534.6C 200 532.8 199.6 533 197.6 535.5C 192.3 542.1 190.8 543.4 188.2 543.6C 186.7 543.7 185.1 543.9 184.7 543.9C 184.2 544 184.2 544.4 184.5 545C 185.5 546.6 182.4 546.2 181 544.6C 180.1 543.4 180.5 541.9 182.8 537.3C 186.2 530.8 188.2 522.5 188.6 513.5L 188.8 507.5L 187 512.5C 186 515.2 185.1 518.4 185.1 519.5C 184.9 523.1 180.2 529 177.4 529C 174 529 173.5 526.9 175.4 521.3C 176.3 518.8 177 515.4 177 514C 177 512.5 177.9 508.7 179 505.4C 180.1 502.2 181.3 496.8 181.7 493.5C 182.1 489.8 183.1 486.4 184.5 484.5C 185.7 482.8 187.9 479.2 189.5 476.5C 191.1 473.7 194.8 468.6 197.8 465C 200.8 461.5 203.7 457.3 204.2 455.8C 204.8 454.1 205.6 453.3 206.3 453.7C 207 454.1 208.2 454.5 209 454.5C 213.5 454.9 213.9 455.1 213.4 456.5C 213 457.5 213.4 458 214.9 458C 218.2 458 223.2 460.4 226 463.3C 227.4 464.8 229 466 229.6 466C 231.1 466 235 470.4 235 472.1C 235 473.3 235.2 473.3 235.9 472C 236.5 471.2 238.6 470.6 241 470.5C 246.1 470.4 247.2 468.8 246.5 463.2C 245.4 455.8 252.6 445 261.5 440.5C 262.7 439.9 263.9 437.7 264.5 435.2C 265.1 432.8 265.9 431.2 266.2 431.5C 267.7 433.1 271 423.9 271 418.2C 271 415 271.5 409.7 272.1 406.4C 272.7 403.2 273.6 394.2 274 386.5C 274.4 378.8 275.4 370.2 276.2 367.4L 277.5 362.3L 283.5 364C 286.8 364.9 290.7 366.2 292.3 366.8C 294.8 367.9 295 367.8 295 365.6C 295 363.1 292.3 361.6 282.8 359C 278.1 357.8 276.6 355.8 279.5 354.6C 280.3 354.3 281 353.2 281 352.2C 281 351.2 281.9 347.8 283 344.6C 284.7 339.5 284.8 339 283.3 339.2C 280.6 339.7 278.4 332.7 279.8 328.6C 282 322.7 280.6 298.3 276.9 277.5C 276.3 274.2 275.4 269 274.9 266C 274.4 263 272.8 254.6 271.5 247.5C 270.1 240.3 268.6 231.6 268.1 228C 266.4 215.8 260 182.5 258.4 177.5C 256.3 171 249.7 160 245.9 156.6C 244.1 154.9 243.1 153.3 243.4 152.4C 243.8 151.4 242.9 150.4 240.7 149.5C 239 148.7 238.2 148 239 147.9C 239.8 147.8 239.2 147.5 237.5 147.1C 235.4 146.7 234.4 145.8 234.2 144.2C 233.8 141.8 232 141.1 232 143.5C 232 144.6 231.5 144.7 229.8 144C 228.5 143.5 224.9 142.4 221.8 141.4C 218.6 140.5 216 139.4 216 138.9C 216 138.4 215.4 138.3 214.6 138.6C 213.8 138.9 210.7 138 207.7 136.6C 204.8 135.2 201.8 134 201.1 134C 200.5 134 199.2 133.6 198.2 133.1C 197.3 132.6 193.8 131.1 190.5 129.8C 184.6 127.4 184.5 127.4 183.8 122.6C 183.3 119.2 183.7 116.2 184.9 112.2C 185.9 109 187.1 104.9 187.5 103C 187.8 101.1 189.8 95.7002 191.7 91.1002C 196.6 79.6002 197.4 71.3002 195.4 54.0002C 193.9 40.8002 190.4 27.3002 187.5 23.4002C 186.7 22.4002 186 20.6002 186 19.5002C 185.9 18.4002 185.6 18.0002 185.4 18.6002C 185.1 19.2001 183 17.8002 180.6 15.6002C 171.8 7.30017 165.2 4.00018 157.5 4.00018C 155.8 4.00018 154 3.60016 153.5 3.10016C 152.1 1.70013 138.2 4.30017 132.9 7.00018C 127.3 9.80017 123 13.8002 123 16.3002C 123 17.3002 120 21.5002 116.3 25.6002C 111.3 31.0002 108.9 33.0002 107 33.0002C 105.5 33.0002 105 33.3002 105.7 33.8002C 106.4 34.2002 106.6 35.1002 106.1 35.9001C 105.6 36.6002 104.8 37.0001 104.2 36.6002C 103.6 36.3002 102.9 36.4001 102.6 36.9001C 102.2 37.4001 102.4 38.1002 103 38.5001C 103.6 38.8001 103.6 39.8001 103.1 40.8001C 99.9 47.3001 97 53.9001 96.5 56.0001C 95.9 58.4001 95.5 58.5001 90.2 58.5001C 86.2 58.5001 84.6 58.9001 84.8 59.7001C 85.1 61.5001 81.3 61.3001 80.7 59.6002C 80.3 58.6002 81.4 58.0002 84.3 57.5002C 86.7 57.0002 87.7 56.5002 86.8 56.3002C 85.8 56.0002 85 55.4001 85 54.8002C 85 54.3002 84.3 54.0002 83.5 54.4001C 82.7 54.7001 82 54.6002 82 54.1002C 82 53.6002 82.8 53.0002 83.9 52.7001C 85.5 52.3001 85.8 51.2001 85.9 45.2001C 85.9 41.3001 85.5 37.8001 85 37.5001C 83.5 36.6001 83.8 35.5001 86.4 32.7001C 89.1 29.8001 90.3 22.9001 88.2 22.2001C 87 21.8001 86.6 23.0001 86.9 26.2001C 87.2 28.4001 87.2 28.4001 77 25.6002C 69.5 23.6002 68.5 23.0002 67.9 20.6002C 67.2 18.0002 67.3 17.8002 69.8 18.3002C 72.9 19.0002 81.7 21.5002 84.3 22.5002C 85.2 22.9002 86 22.8002 86 22.2002C 86 21.7002 83.5 20.5002 80.5 19.5002C 77.5 18.6002 75 17.4002 75 16.8002C 75 14.3002 77.3 12.0002 79.8 11.9001C 82.2 11.9001 82.3 11.8002 80.5 11.0001C 77.7 9.80011 72 9.80011 72 11.0001C 72 11.5001 72.5 12.0001 73 12.0001C 74.2 12.0001 74.3 14.0001 73.2 15.8001C 71.7 18.1001 68.8 16.0001 69.2 13.0001C 69.4 11.4001 69.2 10.3001 68.6 10.4001C 66.3 10.7001 65 12.2001 65 14.6002C 65 16.8002 64.6 17.1002 61.8 16.8002L 58.5 16.5002L 58.7 10.3002C 58.9 6.80017 58.7 4.10016 58.2 4.10016C 56.3 4.40015 55.9 3.90015 57 2.50018C 58 1.30017 58 1.00018 56.6 1.00018C 55.6 1.00018 55 1.90002 55 3.5zM 156.5 6C 156.1 6.59998 154.9 6.79999 153.9 6.5C 152.8 6.09998 151.3 6.40002 150.5 7C 149.6 7.79999 149 7.79999 149 7.20001C 149 5.29999 136.3 9.29999 134.3 11.8C 133.6 12.7 133 12.9 133 12.3C 133 11.7 132.4 11.3 131.8 11.4C 129.2 11.6 130 9.49994 132.7 8.89996C 134.2 8.49994 138 7.49994 141 6.69995C 147.4 4.89996 157.5 4.5 156.5 6zM 129 15C 128.2 15.6 126.6 15.9 125.5 15.9C 124 15.9 124.2 15.5 126.5 14.5C 129.7 13.1 131.4 13.5 129 15zM 39 19C 39.3 19.1 38.4 19.5 37.2 20.1C 34.6 21.1 32.6 20.4 33.5 18.9C 34 18.2 36.2 18.2 39 19zM 50.5 18.7C 49.4 19 48.2 19.7 47.9 20.2C 47.5 20.8 46.3 20.9 45.1 20.5C 41.9 19.5 43.4 18.4 48.2 18.3C 50.6 18.2 51.6 18.4 50.5 18.7zM 62 19.5C 60.6 21.1 59.5 21.5 60.5 20.1C 60.8 19.6 59.8 18.9 58.3 18.7C 56.1 18.4 56.3 18.2999 59.4 18.1C 62.7 18 63.1 18.2 62 19.5zM 32 19.9C 32 21.4 30.4 22.1 28.6 21.4C 26.1 20.5 26.7 19 29.5 19C 30.9 19 32 19.4 32 19.9zM 42.2 22.9C 43.8 23.6 41.7 23.9 34.5 23.9C 29 23.9 25.3 23.6 26.3 23.2C 29.2 22.1 39.6 21.9 42.2 22.9zM 54.7 22.6C 54.4 22.9 53.5 23.0001 52.8 22.7C 52 22.4 52.3 22.1 53.4 22.1C 54.5 22.0001 55.1 22.3 54.7 22.6zM 64.3 22.7C 63.6 22.9 62.2 22.9 61.3 22.7C 60.3 22.4 60.9 22.2 62.5 22.2C 64.2 22.2 64.9 22.4 64.3 22.7zM 47.7 23.6C 47.4 23.9 46.5 24.0001 45.8 23.7C 45 23.4 45.3 23.1 46.4 23.1C 47.5 23.0001 48.1 23.3 47.7 23.6zM 143 31.0001C 157.6 33.2001 164.9 36.7001 166.6 42.4001C 167 43.6001 167.8 45.2001 168.5 46.0001C 169.2 46.8 169.8 50.4001 169.9 54.0001C 170.1 63.8 170.4 65.4001 172 66.7001C 173.1 67.6001 173.2 67.9001 172.2 68.0001C 171.2 68.0001 171.3 68.4001 172.5 69.6C 173.7 70.9 173.9 72.5001 173.5 77.4C 173.1 80.7 172.4 84.9 171.9 86.6C 170.9 89.8 167 92.7 165.2 91.6C 164.3 91.1 162.6 92.5001 162.5 94.0001C 162.3 95.3 158.7 102 158.1 102C 157.8 102 156.9 103.5 156.1 105.2C 154.7 108.6 148.6 115.1 147.2 114.8C 146.1 114.6 141 117.2 141 118C 141 118.4 139.4 119.1 137.5 119.4C 135.6 119.8 133.7 120.6 133.3 121.3C 132.4 122.6 124 123.1 124 121.8C 124 121.4 123.1 121 121.9 121C 118.8 121 116.3 119.3 115.1 116.3C 114.4 114.7 113.1 111.9 112 110C 110.9 107.9 110.5 106.1 111.1 105.6C 112.6 104 112.2 101.7 110.5 102.4C 109.7 102.7 109 102.7 109 102.5C 109 102.2 108.1 97.6 106.9 92.3C 105.1 83.9 105 81.9 106 76.5001C 106.7 73.0001 108.1 68.8 109.2 67.0001C 111.3 63.4001 109.8 63.6 124.4 65.6C 128.2 66.2 128.9 66.0001 130 64.0001C 131 62.2001 130.8 61.3 128.8 58.4001C 126 54.4001 123 53.0001 114.8 52.1001C 113.4 51.9001 114 47.9001 115.4 47.4001C 116.2 47.1001 116.7 46.3001 116.4 45.6001C 116.1 44.9001 117.2 41.9001 118.7 38.9001C 122 32.6001 128.3 28.5001 133.5 29.4001C 135.2 29.7001 139.4 30.4001 143 31.0001zM 80.4 37.5001C 80 38.3 79.6 39.0001 79.4 39.0001C 79.2 39.0001 79 38.3 79 37.5001C 79 36.7001 79.4 36.0001 80 36.0001C 80.5 36.0001 80.7 36.7001 80.4 37.5001zM 84.8 40.9001C 85.1 43.3001 84.5 44.7001 82.9 46.1001C 81.7 47.1001 80.3 47.7001 79.9 47.4001C 78.4 46.5001 78.9 41.1001 80.7 39.0001C 83 36.3 84.4 37.0001 84.8 40.9001zM 165.6 98.7001C 164.5 99.8 163.9 98.3 164.7 96.4001C 165.4 94.6001 165.5 94.6001 165.8 96.3001C 166 97.3001 165.9 98.4 165.6 98.7001zM 46.4 105.9C 47 106.9 44.8 108 42.2 108C 40.9 108 41 107.7 42.6 106.5C 44.8 104.8 45.7 104.7 46.4 105.9zM 90.3 111.7C 89 112 88 113 87.8 114.3C 87.6 115.5 86.9 116.5 86.3 116.4C 85.6 116.3 83.7 116.2 82 116.1C 80.4 116.1 79 115.6 79 115.1C 79 114.7 80.2 114.5 81.8 114.8C 84.2 115.3 84.3 115.1 83.2 113.7C 82 112.3 82.3 112.1 85.2 111.7C 87 111.5 89.4 111.3 90.5 111.3C 92.2 111.3 92.2 111.3 90.3 111.7zM 155 131C 155 132.6 150.3 141.6 145.3 149.7C 141.8 155.4 140.3 157 138.5 157C 135.3 157 132.9 158 133.6 159.1C 133.9 159.7 133.1 159.8 131.4 159.4C 129.5 158.9 128.9 159 129.4 159.9C 130.7 161.9 127.4 161.1 124.8 158.7C 121.2 155.6 120.4 153.6 119.1 145.1C 117.7 136 118.1 134.1 121.6 134.8C 123 135.1 124.5 134.8 124.9 134.2C 125.8 132.7 131.6 134.3 131.3 135.9C 131.1 136.5 131.5 137 132 137C 132.6 137 133 136.4 133 135.7C 133 134.9 133.3 135 134 136C 134.8 137.2 135.5 137.2 138.7 136.2C 143.3 134.6 145.4 133.8 150 131.7C 154.2 129.8 155 129.7 155 131zM 117.4 154.6C 117.7 155.4 117.6 155.8 117 155.5C 116.4 155.2 116 154.5 116 153.9C 116 152.5 116.7 152.8 117.4 154.6zM 127 161.5C 127 162.1 123.8 163.4 120 164.4C 118.6 164.7 119.3 164.1 121.5 163C 125.6 161 127 160.6 127 161.5zM 107 242.7C 107 244.4 104.1 251.4 104 249.9C 104 246.9 105.2 242 106.1 242C 106.6 242 107 242.3 107 242.7zM 108.5 246.2C 108.1 248 107.4 249.9 107 250.4C 106.5 250.9 106.6 249.4 107.2 247.1C 108.4 242.3 109.5 241.5 108.5 246.2zM 106.7 255.2C 106.4 256 106.1 255.7 106.1 254.6C 106 253.5 106.3 252.9 106.6 253.3C 106.9 253.6 107 254.5 106.7 255.2zM 56 399.1C 54.9 405.1 52.6 406.9 53.5 401C 54.3 396 54.7 395 55.9 395C 56.4 395 56.4 396.8 56 399.1zM 266 511.4C 266 511.7 265.6 512.2 265 512.5C 264.5 512.8 264 512.6 264 512.1C 264 511.5 264.5 511 265 511C 265.6 511 266 511.2 266 511.4zM 278.5 515.1C 277.8 516.2 275 516.3 275 515.2C 275 514.8 275.9 514.4 277 514.3C 278.1 514.2 278.8 514.5 278.5 515.1zM 238.4 519.1C 238.1 519.7 237.2 519.9 236.4 519.6C 235.6 519.3 235 519.6 235 520.2C 235 520.8 234.7 521.1 234.4 520.7C 233.4 519.7 234.7 518.4 236.9 518.3C 238.1 518.2 238.8 518.6 238.4 519.1zM 273.7 518.6C 273.4 518.9 272.5 519 271.8 518.7C 271 518.4 271.3 518.1 272.4 518.1C 273.5 518 274.1 518.3 273.7 518.6zM 282 520C 282 520.5 281.5 521 280.9 521C 280.4 521 280.2 520.5 280.5 520C 280.8 519.4 281.3 519 281.6 519C 281.8 519 282 519.4 282 520zM 276.4 525.2C 276 525.8 275.4 525.7 274.9 524.9C 273.5 522.7 273.9 521.6 275.5 523C 276.3 523.7 276.7 524.7 276.4 525.2zM 290 523C 290 523.5 289.3 524 288.4 524C 287.6 524 287.2 523.5 287.5 523C 287.8 522.4 288.5 522 289.1 522C 289.6 522 290 522.4 290 523zM 245.1 525.3C 244.1 526.2 244 526.1 244.6 524.7C 244.9 523.7 245.5 523.2 245.8 523.5C 246.1 523.8 245.8 524.6 245.1 525.3zM 290.4 528.5C 290 529.3 289.6 530 289.4 530C 289.2 530 289 529.3 289 528.5C 289 527.7 289.4 527 290 527C 290.5 527 290.7 527.7 290.4 528.5zM 265.7 532.2C 265.4 532.9 265.2 532.4 265.2 531C 265.2 529.6 265.4 529.1 265.7 529.7C 265.9 530.4 265.9 531.6 265.7 532.2zM 287 530C 287 530.5 286.6 531 286.1 531C 285.5 531 284.8 530.5 284.5 530C 284.2 529.4 284.6 529 285.4 529C 286.3 529 287 529.4 287 530zM 293 532.3C 293 533.1 292.2 534.6 291.2 535.7C 289.6 537.6 289.2 537.7 287 536.4L 284.5 535L 287.1 535.6C 289.9 536.2 291.9 534.7 289.9 533.4C 289.1 533 289.2 532.5 290.1 531.9C 292.1 530.7 293 530.8 293 532.3zM 265.6 540.8C 264.5 541.8 264.1 540.4 264.8 538L 265.5 535.5L 265.8 537.8C 266 539.1 265.9 540.4 265.6 540.8zM 274 537C 274 537.5 273.6 538 273.1 538C 272.5 538 271.8 537.5 271.5 537C 271.2 536.4 271.6 536 272.4 536C 273.3 536 274 536.4 274 537zM 278 538.5C 278 539.4 277.4 539.7 276.5 539.4C 275.7 539 275 539.3 275 539.9C 275 540.5 274.2 541 273.3 541C 272 541 272.4 540.4 274.5 539C 278.1 536.6 278 536.6 278 538.5zM 290.6 541.1C 291 541.9 290.7 541.9 289.2 541.1C 288 540.5 286.8 539.5 286.4 538.9C 286 538.1 286.3 538.1 287.8 538.9C 289 539.5 290.2 540.5 290.6 541.1zM 232 542.1C 232 542.7 231.6 542.8 231 542.5C 230.5 542.2 230 541.4 230 540.9C 230 540.3 230.5 540.2 231 540.5C 231.6 540.8 232 541.6 232 542.1zM 253.4 541.6C 253.7 542.4 253.6 542.8 253 542.5C 252.4 542.2 252 541.5 252 540.9C 252 539.5 252.7 539.8 253.4 541.6zM 287.1 542.7C 288.4 544.3 288.3 544.4 286.8 543.1C 285.8 542.4 285 541.6 285 541.4C 285 540.6 285.8 541.1 287.1 542.7zM 249.8 544.7C 248.8 544.9 247.2 544.9 246.3 544.7C 245.3 544.4 246.1 544.2 248 544.2C 249.9 544.2 250.7 544.4 249.8 544.7zM 276.8 547.9C 276.2 548.1 275.4 547.8 275.2 547.1C 275 546.5 274.2 546 273.4 546C 272.6 546 272 545.5 272 544.9C 272 544.4 273.4 544.7 275 545.7C 276.8 546.7 277.5 547.7 276.8 547.9zM 282 545C 282 545.5 281.5 546 280.9 546C 280.4 546 280.2 545.5 280.5 545C 280.8 544.4 281.3 544 281.6 544C 281.8 544 282 544.4 282 545zM 189.9 546.4C 191.6 547.3 191.9 547.9 191 548.5C 190.3 548.9 188.9 548.4 187.7 547.1C 185.3 544.7 186.3 544.4 189.9 546.4zM 265.6 548.7C 264.6 549.7 263.7 548.2 264.6 546.9C 265.2 545.8 265.4 545.8 265.8 546.9C 266 547.6 265.9 548.4 265.6 548.7zM 244.5 548C 244.2 548.5 243.5 549 242.9 549C 242.4 549 242 548.5 242 548C 242 547.4 242.7 547 243.6 547C 244.4 547 244.8 547.4 244.5 548zM 284 548C 284 548.5 283.6 549 283 549C 282.5 549 282 548.5 282 548C 282 547.4 282.5 547 283 547C 283.6 547 284 547.4 284 548zM 289.9 549.4C 290.9 550.5 290.6 550.8 288.5 550.6C 287.1 550.6 286 549.9 286 549.2C 286 547.6 288.5 547.7 289.9 549.4zM 247.8 553C 248.5 554.1 248.7 555 248.2 555C 247.2 555 245 552.8 245 551.8C 245 550.3 246.5 551 247.8 553zM 277.5 554C 277.8 554.5 277.6 555 277.1 555C 276.5 555 276 554.5 276 554C 276 553.4 276.2 553 276.4 553C 276.7 553 277.2 553.4 277.5 554zM 290.2 557C 289 558.1 287.8 559 287.4 559C 287 559 287.5 558.1 288.5 557C 289.5 555.9 290.8 555 291.3 555C 291.9 555 291.4 555.9 290.2 557zM 273 558C 273 558.5 272.5 559 271.9 559C 271.4 559 271.2 558.5 271.5 558C 271.8 557.4 272.3 557 272.6 557C 272.8 557 273 557.4 273 558zM 277.9 560.9C 277.8 562.6 277.6 562.9 277.3 561.7C 277.1 560.8 276.2 560 275.4 560C 274.6 560 274 559.4 274 558.6C 274 557.7 274.7 557.4 276 557.7C 277.4 558.1 278 559 277.9 560.9zM 265 558.8C 265 559.2 264.1 559.6 263 559.6C 261.9 559.6 261 559.2 261 558.8C 261 558.4 261.9 558 263 558C 264.1 558 265 558.4 265 558.8zM 242.7 564.7C 242 565.3 238.1 563.7 238.6 562.9C 238.9 562.4 240 562.6 241 563.2C 242.1 563.9 242.8 564.5 242.7 564.7zM 272.7 565.2C 272.4 566 272.1 565.7 272.1 564.6C 272 563.5 272.3 562.9 272.6 563.3C 272.9 563.6 273 564.5 272.7 565.2zM 254.5 565C 254.8 565.5 254.4 566 253.5 566C 252.6 566 252.2 565.5 252.5 565C 252.8 564.4 253.3 564 253.5 564C 253.7 564 254.2 564.4 254.5 565zM 275.4 567.5C 275 568.3 274.6 569 274.4 569C 274.2 569 274 568.3 274 567.5C 274 566.7 274.4 566 275 566C 275.5 566 275.7 566.7 275.4 567.5zM 288.4 567.5C 288 568.3 287.4 569 286.9 569C 286.5 569 286.3 568.3 286.6 567.5C 287 566.7 287.6 566 288.1 566C 288.5 566 288.7 566.7 288.4 567.5zM 285 570C 285 570.5 283.2 571 281 571C 278.8 571 277 570.5 277 570C 277 569.4 278.8 569 281 569C 283.2 569 285 569.4 285 570zM 251 571.6C 251 572.4 250.6 572.8 250 572.5C 249.5 572.2 249 571.5 249 570.9C 249 570.4 249.5 570 250 570C 250.6 570 251 570.7 251 571.6zM 293.6 573.8C 293 574.3 290 571.5 290 570.4C 290 570 290.9 570.5 292 571.5C 293.1 572.5 293.8 573.5 293.6 573.8zM 240 572C 240 572.5 240.7 573 241.6 573C 242.4 573 242.8 573.5 242.5 574C 242.1 574.7 241.2 574.7 239.9 574C 237.9 572.9 237.3 571 239 571C 239.6 571 240 571.4 240 572zM 272.7 573.2C 272.4 574 272.1 573.7 272.1 572.6C 272 571.5 272.3 570.9 272.6 571.3C 272.9 571.6 273 572.5 272.7 573.2zM 239.1 576.4C 239.6 576.1 240 576.4 240 576.9C 240 577.5 239.3 578 238.5 578C 237.7 578 237 577.2 237.1 576.2C 237.1 575.2 237.4 575 237.7 575.8C 237.9 576.4 238.6 576.8 239.1 576.4zM 286 575.9C 286 576.5 285.6 577.2 285 577.5C 284.5 577.8 284 577.4 284 576.6C 284 575.7 284.5 575 285 575C 285.6 575 286 575.4 286 575.9zM 292.6 578.7C 292 579.3 289 577.8 289 576.9C 289 576.4 289.9 576.5 291 577.2C 292 577.9 292.8 578.6 292.6 578.7zM 281.7 579.3C 282.7 580.2 282.9 581 282.3 581C 281.6 581 280.8 580.5 280.5 580C 280.1 579.3 279.1 579.4 277.7 580.1C 276.5 580.8 275.8 580.9 276.2 580.5C 276.6 580.1 276.2 579.1 275.3 578.5C 273.8 577.4 274 577.2 276.8 577.4C 278.5 577.5 280.7 578.3 281.7 579.3zM 287.5 579C 287.8 579.5 287.6 580 287.1 580C 286.5 580 286 579.5 286 579C 286 578.4 286.2 578 286.4 578C 286.7 578 287.2 578.4 287.5 579zM 239 581C 239 581.5 238.5 582 237.9 582C 237.4 582 237.2 581.5 237.5 581C 237.8 580.4 238.3 580 238.6 580C 238.8 580 239 580.4 239 581zM 250 584.5C 250 585.3 249.6 586 249.1 586C 248.6 586 248 585.3 247.6 584.5C 247.3 583.6 247.6 583 248.5 583C 249.3 583 250 583.7 250 584.5zM 272.7 586.2C 272.4 587 272.1 586.7 272.1 585.6C 272 584.5 272.3 583.9 272.6 584.3C 272.9 584.6 273 585.5 272.7 586.2zM 236.5 586.4C 238.3 587.7 238.3 587.8 235.7 587.3C 234.2 587 233 586.4 233 585.9C 233 584.6 234.3 584.8 236.5 586.4zM 248 589C 248 589.5 247.8 590 247.6 590C 247.3 590 246.8 589.5 246.5 589C 246.2 588.4 246.4 588 246.9 588C 247.5 588 248 588.4 248 589zM 280.7 590.2C 280.4 591 280.1 590.7 280.1 589.6C 280 588.5 280.3 587.9 280.6 588.3C 280.9 588.6 281 589.5 280.7 590.2zM 237 589.4C 237 589.7 236.6 590.2 236 590.5C 235.5 590.8 235 590.6 235 590.1C 235 589.5 235.5 589 236 589C 236.6 589 237 589.2 237 589.4zM 286 591.6C 286 591.8 285.3 592 284.5 592C 283.7 592 283 591.6 283 591C 283 590.5 283.7 590.3 284.5 590.6C 285.3 591 286 591.4 286 591.6zM 240.5 592C 242.4 592.8 242.4 592.9 240.3 592.9C 239.1 593 237.8 592.5 237.5 592C 236.8 590.8 237.7 590.8 240.5 592zM 278.1 593.8C 276.2 594.4 276.9 596.6 279.3 597.8C 281 598.6 281.1 598.9 279.8 598.9C 278.8 599 277.1 598.1 276.1 597.1C 274.4 595.4 274.4 595.1 275.7 594.6C 276.6 594.2 277 593.3 276.6 592.4C 276 590.9 276.2 590.9 277.6 592.1C 278.6 592.9 278.8 593.6 278.1 593.8zM 6 596.3C 6.9 596.6 6.4 596.9 4.8 596.9C 2.1 597 1.3 596.1 2.7 594.7C 3.1 594.3 3.6 594.4 3.9 594.8C 4.2 595.3 5.2 596 6 596.3zM 238.6 598.9C 237.3 600.9 236 600 236 597.3C 236 594.8 236.1 594.7 237.6 596.2C 238.5 597.1 238.9 598.3 238.6 598.9zM 283.5 596C 283.2 596.5 282.5 597 281.9 597C 281.4 597 281 596.5 281 596C 281 595.4 281.7 595 282.6 595C 283.4 595 283.8 595.4 283.5 596zM 289.4 597.6C 291 598.2 290.6 600 288.9 600C 288.3 600 288.1 599.6 288.5 599.1C 288.8 598.6 288.2 597.9 287.3 597.7C 286.3 597.4 286 597.2 286.7 597.1C 287.3 597.1 288.5 597.3 289.4 597.6zM 142.5 600C 142.8 600.6 142.4 600.7 141.6 600.4C 139.8 599.7 139.5 599 140.9 599C 141.5 599 142.2 599.4 142.5 600zM 145.5 606.5C 146.1 607.6 146.3 610.6 146 613.2C 145.6 615.9 145.8 618 146.3 618C 146.8 618 147 618.7 146.6 619.5C 146.3 620.3 146.4 621 146.9 621C 148 621 149.9 628.4 150 633C 150 634.9 150.2 643.9 150.4 653C 150.8 671.2 151.2 673.9 154.7 679C 155.9 680.9 157 682.9 157 683.3C 157 683.8 158.4 686.2 160 688.7C 163.6 694 163.7 695 160.6 695C 158.5 695 158.1 695.6 157.5 699.2C 156.7 704 154.4 709 153.1 709C 151.5 709 147.9 717.1 148.6 719.2C 149 720.6 148.8 721 148.1 720.6C 147.5 720.2 147 720.6 147 721.5C 147 722.4 147.5 722.8 148 722.5C 148.6 722.2 149 722.5 149 723.3C 149 724.3 147.5 724.7 143.9 724.9C 141 725 138.4 725.3 138 725.5C 135.8 726.9 135.3 722.3 135.7 705C 136 694.8 136.3 684.9 136.3 683C 136.3 681.1 136.2 673.4 136.1 666C 135.8 652.9 135.8 652.5 137.9 652.2C 140.4 651.8 140.8 649.2 138.3 649.4C 137 649.5 136.4 648.4 135.8 645C 135.4 642.4 135.4 640.2 136 639.6C 137.3 638.3 140 640.8 140 643.4C 140.1 645.2 140.2 645.3 141 643.9C 141.6 642.9 141.6 641.1 141.1 639.3C 140.6 637.5 140.6 634.2 141.1 631.5C 142.3 625.3 141.5 624.5 140 630.2C 139.3 632.5 138.6 635.1 138.4 635.8C 137.8 637.7 135.7 636.8 135.4 634.4C 135.2 633.4 135.9 629.6 137 626C 138 622.4 139.1 616.1 139.4 612C 139.6 607.9 139.8 604.4 139.9 604.2C 140.3 603 144.7 604.9 145.5 606.5zM 274 606C 274 606.5 273.5 607 272.9 607C 272.4 607 272.2 606.5 272.5 606C 272.8 605.4 273.3 605 273.6 605C 273.8 605 274 605.4 274 606zM 289 608.8C 289 610.1 287.8 611 286.8 610.4C 285.8 609.8 286.7 608 288.1 608C 288.6 608 289 608.4 289 608.8zM 238.5 612C 238.8 612.5 238.6 613 238.1 613C 237.5 613 237 612.5 237 612C 237 611.4 237.2 611 237.4 611C 237.7 611 238.2 611.4 238.5 612zM 274 614.4C 274 614.7 273.6 615.2 273 615.5C 272.5 615.8 272 615.6 272 615.1C 272 614.5 272.5 614 273 614C 273.6 614 274 614.2 274 614.4zM 278 615C 278 615.5 277.3 615.7 276.5 615.4C 275.7 615 275 614.6 275 614.4C 275 614.2 275.7 614 276.5 614C 277.3 614 278 614.4 278 615zM 291.9 617.4C 293.1 618.7 293.8 620 293.3 620.2C 292.9 620.4 291.3 619.3 289.8 617.8C 288.3 616.3 287.7 615 288.4 615C 289.1 615 290.7 616.1 291.9 617.4zM 283 617C 283 617.5 282.8 618 282.6 618C 282.3 618 281.8 617.5 281.5 617C 281.2 616.4 281.4 616 281.9 616C 282.5 616 283 616.4 283 617zM 239.5 620C 239.2 620.5 238.4 621 237.9 621C 237.3 621 237.2 620.5 237.5 620C 237.8 619.4 238.6 619 239.1 619C 239.7 619 239.8 619.4 239.5 620zM 249 623C 249 623.5 248.5 624 247.9 624C 247.4 624 247.2 623.5 247.5 623C 247.8 622.4 248.3 622 248.6 622C 248.8 622 249 622.4 249 623zM 273.3 625C 273 626.2 272.5 626.9 272.2 626.6C 271.7 626 272.7 623 273.4 623C 273.6 623 273.6 623.9 273.3 625zM 278 623.4C 278 623.7 277.6 624.2 277 624.5C 276.5 624.8 276 624.6 276 624.1C 276 623.5 276.5 623 277 623C 277.6 623 278 623.2 278 623.4zM 293 625C 293.7 626.4 293.7 627 293 627C 292.5 627 292 626.3 292 625.5C 292 624.6 291.4 624.3 290.5 624.6C 289.7 625 289 624.7 289 624.1C 289 622.2 291.9 622.9 293 625zM 287 629.5C 287 630.7 285.1 630.7 284.7 629.5C 284.3 628.6 284.6 628.3 285.6 628.7C 286.3 629 287 629.4 287 629.5zM 240.6 630.5C 242.6 632.4 241.1 632.4 238.6 630.5C 237.5 629.6 237.2 629 237.9 629C 238.6 629 239.8 629.7 240.6 630.5zM 283 631.4C 283.8 631.7 283.2 631.8 281.6 631.4C 278.9 630.9 278.8 631 280.1 632.7C 281.4 634.3 281.3 634.4 279.8 633.1C 278.8 632.4 277.4 632 276.6 632.3C 275.8 632.6 274.9 632.4 274.6 631.7C 274.3 630.8 273.8 630.9 273.1 632C 272.2 633.3 272 633.2 272 631.7C 272 630.2 272.6 630 275.5 630.4C 277.7 630.8 279 630.6 279 629.9C 279 629.1 279.4 629.1 280.3 629.7C 280.9 630.3 282.2 631 283 631.4zM 290.5 633.8C 289.7 634.7 287 631.8 287.7 630.7C 288.1 630.1 288.8 630.4 289.6 631.5C 290.4 632.5 290.8 633.6 290.5 633.8zM 254.7 631.6C 254.4 631.9 253.5 632 252.8 631.7C 252 631.4 252.3 631.1 253.4 631.1C 254.5 631 255.1 631.3 254.7 631.6zM 249.7 635.6C 249.4 635.9 248.5 636 247.8 635.7C 247 635.4 247.3 635.1 248.4 635.1C 249.5 635 250.1 635.3 249.7 635.6zM 255 639.2C 255 639.8 254.4 639.7 253.5 639C 252.7 638.3 252 637.6 252 637.4C 252 637.2 252.7 637.3 253.5 637.6C 254.3 638 255 638.7 255 639.2zM 278.5 640.8C 278.2 641.1 277.4 640.8 276.7 640.1C 275.8 639.1 275.9 639 277.3 639.6C 278.3 639.9 278.8 640.5 278.5 640.8zM 284.5 642C 285.8 642.5 285.9 642.9 285 642.9C 284.2 642.9 282.6 642.5 281.5 642C 280.2 641.5 280.1 641.1 281 641.1C 281.8 641.1 283.4 641.5 284.5 642zM 253 642.4C 253 642.6 252.3 643.1 251.4 643.4C 250.6 643.7 250.2 643.6 250.5 643C 251.1 642 253 641.6 253 642.4zM 244.7 643.6C 244.4 643.9 243.5 644 242.8 643.7C 242 643.4 242.3 643.1 243.4 643.1C 244.5 643 245.1 643.3 244.7 643.6zM 291 644C 291 644.5 290.5 645 289.9 645C 289.4 645 289.2 644.5 289.5 644C 289.8 643.4 290.3 643 290.6 643C 290.8 643 291 643.4 291 644zM 274 646.1C 274 646.6 273.6 647 273 647C 272.5 647 272 646.3 272 645.4C 272 644.6 272.5 644.2 273 644.5C 273.6 644.8 274 645.5 274 646.1zM 5.39999 659.5C 4.99999 660.3 3.99999 661 3.09999 661C 1.69999 660.9 1.79999 660.7 3.39999 659.5C 5.89999 657.6 6.09999 657.6 5.39999 659.5zM 13 659C 13 659.5 12.8 660 12.6 660C 12.3 660 11.8 659.5 11.5 659C 11.2 658.4 11.4 658 11.9 658C 12.5 658 13 658.4 13 659zM 11 661C 11 661.5 10.6 662 9.99999 662C 9.49999 662 8.99999 661.5 8.99999 661C 8.99999 660.4 9.49999 660 9.99999 660C 10.6 660 11 660.4 11 661zM 15.1 664.1C 13.8 665.2 12.5 665.8 12.2 665.5C 11.5 664.9 15.1 662.1 16.5 662.1C 17.1 662.1 16.4 663 15.1 664.1zM 6.49999 664C 6.79999 664.5 6.69999 665 6.09999 665C 5.59999 665 4.79999 664.5 4.49999 664C 4.19999 663.4 4.29999 663 4.89999 663C 5.39999 663 6.19999 663.4 6.49999 664zM 231 664.5C 231 665.3 230.6 666 230 666C 229.5 666 229.3 665.3 229.6 664.5C 230 663.7 230.4 663 230.6 663C 230.8 663 231 663.7 231 664.5zM 33.3 677.7L 37.1 681.8L 32.1 682.5C 29.3 682.9 26.6 682.9 26 682.5C 24.9 681.8 24.6 670.7 25.7 669.6C 26.2 669.2 27.2 669.9 28 671.2C 28.8 672.5 31.2 675.4 33.3 677.7zM 236.8 672.3C 238.6 674.4 239.3 681.5 238.1 683.8C 237.1 685.6 236.6 685.8 234.1 684.9C 231.2 683.9 231.2 683.8 231.7 678.2C 232.4 671.5 234.3 669.3 236.8 672.3zM 5 681C 5 681.5 4.5 682 3.9 682C 3.4 682 3.2 681.5 3.5 681C 3.8 680.4 4.3 680 4.6 680C 4.8 680 5 680.4 5 681zM 285 684.9C 285 685.4 283.7 686 282 686.3C 280.2 686.7 279 687.6 279 688.5C 279 690.2 280.1 690.5 281.6 689C 282.4 688.2 283.1 688.4 284 689.5C 285.7 691.5 287.7 691.4 288.9 689.2C 289.6 688.1 290.2 687.8 290.9 688.5C 291.5 689.1 291.6 690.1 291 691C 290.1 692.5 285.2 692.8 278.5 691.6C 276.3 691.2 273.4 690.9 272 690.9C 269.6 690.9 269.7 690.8 272.5 689.8C 274.2 689.2 276.2 688.2 277 687.5C 278.2 686.5 281.1 685.2 284.8 684.1C 284.9 684 285 684.4 285 684.9zM 287.7 687.6C 287.4 687.9 286.5 688 285.8 687.7C 285 687.4 285.3 687.1 286.4 687.1C 287.5 687 288.1 687.3 287.7 687.6zM 261 691C 261 691.5 260.5 692 259.9 692C 259.4 692 259.2 691.5 259.5 691C 259.8 690.4 260.3 690 260.6 690C 260.8 690 261 690.4 261 691zM 269 691.1C 269 691.5 268.1 692 267 692.3C 265.6 692.7 265.2 693.3 265.7 694.5C 266.1 695.7 265.9 696.1 265.1 695.9C 264.4 695.6 263.9 695.1 263.9 694.7C 264 694.3 264 693.2 264 692.2C 264 691 264.8 690.5 266.5 690.5C 267.9 690.5 269 690.8 269 691.1zM 70.9 694.7C 71.5 696.7 71.7 698.7 71.4 699.1C 71.2 699.5 71.4 700.1 72 700.5C 73.1 701.2 73.4 708 72.3 708C 70.5 707.9 68.8 706.1 68.5 703.9C 68.3 702.6 67.7 699.5 67.1 697C 66.6 694.5 66.4 692.2 66.6 691.8C 67.8 689.9 70 691.3 70.9 694.7zM 255 691.4C 255 691.7 254.6 692.2 254 692.5C 253.5 692.8 253 692.6 253 692.1C 253 691.5 253.5 691 254 691C 254.6 691 255 691.2 255 691.4zM 237.2 694.9C 235 697.1 234.5 696.8 236 694.1C 236.6 692.9 237.5 692.2 238 692.5C 238.5 692.8 238.2 693.9 237.2 694.9zM 275.6 696.9C 275.5 701.3 275.3 701.7 274 700.5C 273.2 699.8 270.8 699.2 268.7 699.2C 266.6 699.2 264.6 698.9 264.3 698.6C 263.9 698.3 264.8 698 266.3 698C 267.7 698 269.2 697.5 269.5 697C 269.8 696.4 270.9 696 271.9 696C 272.9 696 274 695.1 274.3 694C 275.2 690.6 275.7 691.8 275.6 696.9zM 272.5 694C 272.1 694.6 271.5 694.8 271 694.5C 270.5 694.2 269.9 694.4 269.5 695C 269.2 695.5 268.4 696 267.9 696C 267.4 696 267.5 695.3 268.2 694.5C 269.7 692.9 273.5 692.4 272.5 694zM 247 695.5C 247 695.6 246.3 696.3 245.5 697C 244.2 698 244 697.9 244 696.2C 244 694.7 244.5 694.2 245.5 694.6C 246.3 695 247 695.3 247 695.5zM 256.3 695.4C 258.7 695.5 259.9 698 257.5 698C 256.3 698 256 698.6 256.5 700C 257.6 703.4 256.1 702.2 254.1 698C 253 695.8 252.6 694.3 253.2 694.6C 253.8 695 255.2 695.3 256.3 695.4zM 261 695C 261 695.5 260.8 696 260.6 696C 260.3 696 259.8 695.5 259.5 695C 259.2 694.4 259.4 694 259.9 694C 260.5 694 261 694.4 261 695zM 288.2 695.5C 289.4 697.2 289.1 698.5 287.8 697.2C 286.3 695.7 284.6 695.6 285.5 697C 285.8 697.5 285.7 698 285.1 698C 284.5 698 283.6 697.2 283.1 696.2C 282.4 694.8 282.6 694.5 284.8 694.5C 286.3 694.4 287.8 694.9 288.2 695.5zM 231.5 697C 231.8 697.5 231.6 698 231.1 698C 230.5 698 230 697.5 230 697C 230 696.4 230.2 696 230.4 696C 230.7 696 231.2 696.4 231.5 697zM 280.5 699C 280.8 699.5 280.2 700 279 700C 277.8 700 277.2 699.5 277.5 699C 277.8 698.4 278.5 698 279 698C 279.5 698 280.2 698.4 280.5 699zM 290 701.5C 290 702.3 289.6 703.2 289 703.5C 288.4 703.9 288 703 288 701.5C 288 700 288.4 699.1 289 699.5C 289.6 699.8 290 700.7 290 701.5zM 235 702.1C 235.6 703.2 235.9 704.6 235.6 705.3C 235.4 706 235.1 705.8 235.1 704.9C 235 704 234.3 703 233.5 702.6C 232.7 702.3 232 701.6 232 701C 232 699.3 233.9 699.9 235 702.1zM 251.9 704.4C 252 704.9 251.4 704.7 250.6 704C 249.8 703.4 249.4 702.1 249.7 701.3C 250.3 699.9 250.5 699.9 251.1 701.6C 251.5 702.6 251.9 703.9 251.9 704.4zM 263.4 701.6C 264.4 704.3 264.1 704.7 261.4 704.2L 258.8 703.7L 260.5 706.4C 261.5 707.9 262 709.3 261.6 709.7C 261.3 710 261 709.8 261 709.2C 261 708.5 260.6 708 260 708C 259.5 708 259 708.6 259 709.4C 259 711.6 256.8 712.5 255.6 710.8C 255 710 253.6 708.8 252.5 708.2C 250.8 707.2 250.7 707.1 252.2 707C 253.4 707 253.7 706.5 253.3 705.2C 252.7 703.6 252.7 703.6 254.3 705.2C 255.2 706.1 256 707.4 256 708C 256 710 258.5 708.4 258.6 706.4C 258.8 702.3 259 701.8 260.4 702.3C 261.4 702.7 261.7 702.4 261.3 701.4C 261 700.7 261.2 700 261.8 700C 262.3 700 263.1 700.7 263.4 701.6zM 270.3 702.8C 269 703 268 703.6 268 704.2C 268 704.8 267.8 705.1 267.5 704.8C 266.1 703.5 268.2 701.3 270.3 701.8L 272.5 702.5L 270.3 702.8zM 283.7 704.1C 282.8 705.6 282.4 705.6 281.3 704.4C 279.5 702.7 278.3 702.6 277.7 704.2C 277.3 705 277.1 704.9 277.1 703.9C 277 702.6 277.9 702.3 280.9 702.4C 284.2 702.4 284.6 702.7 283.7 704.1zM 233.7 707.2C 233.4 708 233.1 707.7 233.1 706.6C 233 705.5 233.3 704.9 233.6 705.3C 233.9 705.6 234 706.5 233.7 707.2zM 243.5 706.9C 244.4 708.5 241 711 238 711C 234.4 711 234.9 708.8 238.8 707.3C 242.4 705.9 242.8 705.8 243.5 706.9zM 273 707C 273 708.3 270.2 709.5 269.2 708.6C 268.9 708.2 269.2 707.5 270 707C 272 705.7 273 705.8 273 707zM 288 706.4C 288 706.7 287.6 707.2 287 707.5C 286.5 707.8 286 707.6 286 707.1C 286 706.5 286.5 706 287 706C 287.6 706 288 706.2 288 706.4zM 268 708C 268 708.9 265.7 711 264.8 711C 264.4 711 264 710.2 264 709.2C 264 708.1 264.7 707.4 266 707.4C 267.1 707.4 268 707.7 268 708zM 166.7 710.2C 166.4 711 166.1 710.7 166.1 709.6C 166 708.5 166.3 707.9 166.6 708.3C 166.9 708.6 167 709.5 166.7 710.2zM 247.3 709.5C 247.3 710.1 246.6 710.6 245.7 710.6C 244.1 710.8 244.1 710.7 245.6 710.3C 247 709.9 247.1 709.6 245.9 708.8C 244.8 708.1 244.8 707.9 245.8 708.2C 246.6 708.4 247.2 709 247.3 709.5zM 278.4 711.2C 278.1 711.6 277.3 711.7 276.5 711.4C 275.4 710.9 275.3 710.5 276.3 709.5C 277.5 708.2 279.4 709.6 278.4 711.2zM 284 709.8C 284 710.3 283.3 710.7 282.5 710.7C 281.7 710.7 281 710.3 281 709.8C 281 709.4 281.7 709 282.5 709C 283.3 709 284 709.4 284 709.8zM 164 711C 164 711.5 163.5 712 162.9 712C 162.4 712 162.2 711.5 162.5 711C 162.8 710.4 163.3 710 163.6 710C 163.8 710 164 710.4 164 711zM 292 712C 292 712.5 291.5 713 290.9 713C 290.4 713 290.2 712.5 290.5 712C 290.8 711.4 291.3 711 291.6 711C 291.8 711 292 711.4 292 712zM 245.7 715.1C 246.1 717.4 246.8 718.1 248.4 717.9C 252.1 717.7 253 718 253 719.5C 253 720.3 253.5 721 254.1 721C 254.6 721 254.8 721.5 254.4 722.2C 253.8 723.1 253.5 723.1 253.2 722.2C 253 721.5 252.4 721.2 251.9 721.6C 251.4 721.9 251 721.7 251 721.2C 251 720.7 249.9 720 248.5 719.8C 247 719.5 246 719.7 246 720.5C 246 721.1 244.7 721.7 243 721.7C 241.4 721.7 240 721.3 240 720.8C 240 720.4 238.7 720 237 720C 234.8 720 234 719.5 234 718.3C 234 717 234.3 716.9 235.2 717.8C 237.1 719.7 238.9 719.2 238.3 717C 238 715.9 237.3 715.3 236.7 715.7C 236.1 716 236 715.8 236.4 715.2C 237.7 713.1 240 713.9 240 716.4C 240 718.3 240.4 718.6 242.5 718.2C 245.1 717.7 245.7 716.6 244 715.5C 242.7 714.7 242.7 712 244 712C 244.6 712 245.3 713.4 245.7 715.1zM 157.1 716.3C 156.3 717.1 156 717 156 715.9C 156 713.9 157.3 712.5 157.8 714C 158.1 714.7 157.7 715.7 157.1 716.3zM 257.4 716.6C 258.2 718.7 258.2 719 256.9 719C 256.4 719 256.2 718.5 256.5 718C 256.8 717.4 256.4 717 255.5 717C 254.6 717 254.2 716.5 254.5 716C 255.4 714.5 256.7 714.8 257.4 716.6zM 166.7 722.2C 166.4 722.9 166.2 722.4 166.2 721C 166.2 719.6 166.4 719.1 166.7 719.7C 166.9 720.4 166.9 721.6 166.7 722.2zM 261 720C 261 720.5 260.5 721 259.9 721C 259.4 721 259.2 720.5 259.5 720C 259.8 719.4 260.3 719 260.6 719C 260.8 719 261 719.4 261 720zM 156.2 721.5C 156.2 722 155.7 722.6 155.1 722.8C 154.5 723 154 722.4 154 721.5C 154 720.6 154.5 720 155.1 720.2C 155.7 720.4 156.2 721 156.2 721.5zM 163 720.4C 163 720.7 162.6 721.2 162 721.5C 161.5 721.8 161 721.6 161 721.1C 161 720.5 161.5 720 162 720C 162.6 720 163 720.2 163 720.4zM 237.3 724.7C 236.6 726.5 235.7 726.3 234.3 724.1C 233.3 722.5 233.3 722.1 234.8 721.8C 236.8 721.3 238 722.8 237.3 724.7zM 166.7 727.7C 166.7 729.8 166.5 730.6 166.3 729.5C 166 728.4 165.4 727.1 164.9 726.5C 163.6 725.2 163.8 724 165.3 724C 166.2 724 166.7 725.3 166.7 727.7zM 260 725.6C 260 726.4 259.6 726.8 259 726.5C 258.5 726.2 258 725.5 258 724.9C 258 724.4 258.5 724 259 724C 259.6 724 260 724.7 260 725.6zM 285.1 727.3C 284.1 728.2 284 728.1 284.6 726.7C 284.9 725.7 285.5 725.2 285.8 725.5C 286.1 725.8 285.8 726.6 285.1 727.3zM 273 729C 273 729.5 272.6 730 272.1 730C 271.5 730 270.8 729.5 270.5 729C 270.2 728.4 270.6 728 271.4 728C 272.3 728 273 728.4 273 729zM 77.1 730C 78.1 730.6 79 731.7 79 732.4C 79 733.2 79.8 734.8 80.9 736.1C 82.4 737.9 82.5 738.9 81.7 740.7C 81.1 742 80.4 743 80 743C 78.7 743 75.8 739.1 76.4 738.2C 76.7 737.8 76 735.9 74.9 734.2C 71.9 729.2 72.7 727.7 77.1 730zM 153 733C 153 733.5 152.5 734 151.9 734C 151.4 734 151.2 733.5 151.5 733C 151.8 732.4 152.3 732 152.6 732C 152.8 732 153 732.4 153 733zM 279 733C 279 733.5 278.3 734 277.4 734C 276.6 734 276.2 733.5 276.5 733C 276.8 732.4 277.5 732 278.1 732C 278.6 732 279 732.4 279 733zM 3 736.7C 3 738.7 2.7 739.1 1.9 738.3C 1.2 737.6 1 736.4 1.3 735.6C 2.3 733.2 3 733.7 3 736.7zM 8.3 736C 8 737.1 7.4 738 6.9 738C 5.9 738 5.7 735.6 6.7 734.7C 8 733.4 8.8 734 8.3 736zM 18 735C 18 735.5 17.3 735.7 16.5 735.4C 15.7 735 15 734.6 15 734.4C 15 734.2 15.7 734 16.5 734C 17.3 734 18 734.4 18 735zM 23.8 735.4C 23.1 736.2 22.1 736.6 21.6 736.3C 21.2 736 21.4 735.4 22.1 734.9C 24.3 733.6 25.2 733.8 23.8 735.4zM 268.8 735.2C 269.5 735.9 270 736.9 270 737.4C 270 738.2 269.7 738.1 269.2 737.4C 268.8 736.8 267.6 735.8 266.5 735.2C 265 734.4 264.9 734.1 266.1 734C 266.9 734 268.1 734.5 268.8 735.2zM 13 737.1C 13 737.6 13.5 737.8 14.1 737.5C 14.7 737.1 16.3 738.2 17.7 739.9C 19.1 741.6 20.9 743 21.6 743C 22.4 743 22.6 743.8 22.2 745.2C 21.8 746.8 21.5 747 21.2 746C 20.7 744.2 18.1 742 16.5 742C 15.8 742 14.8 743.1 14.2 744.5C 13.2 746.7 13.3 747 15 747C 16 747 17.2 747.5 17.6 748.1C 18 748.8 17.1 749 14.6 748.7C 12.5 748.4 10.7 748 10.4 747.7C 9.69998 747 11.1 744 12.1 744C 12.6 744 12.3 742.4 11.5 740.4C 9.69998 735.9 9.69998 736 11.5 736C 12.3 736 13 736.5 13 737.1zM 266.8 738.8C 267 740 266.6 741 266 741C 265.3 741 265 740.3 265.4 739.5C 265.8 738.5 265.3 738 263.9 738C 262.7 738 262.2 737.6 262.5 736.9C 263.6 735.2 266.5 736.4 266.8 738.8zM 283 738C 283 738.5 282.6 739 282 739C 281.5 739 281 738.5 281 738C 281 737.4 281.5 737 282 737C 282.6 737 283 737.4 283 738zM 74.4 740.9C 74.7 741.4 73.6 742 71.9 742.4C 70.3 742.7 68.2 743.7 67.4 744.5C 65.6 746.2 64 746.5 64 745C 64 744.4 64.4 744 64.9 744C 65.4 744 66 743.1 66.3 742C 66.7 740.5 67.7 740 70.3 740C 72.3 740 74.1 740.4 74.4 740.9zM 60 744C 60.8 745.4 60.5 745.9 58.7 746.4C 54.7 747.5 53.3 747.1 53.5 744.9C 53.8 740.9 58 740.3 60 744zM 246.5 745.6C 245.6 746.5 244.6 746.9 244.2 746.6C 243.9 746.2 244.1 745.5 244.8 745.1C 245.6 744.6 245.8 743.6 245.3 742.4C 244.6 740.6 244.7 740.6 246.4 742.2C 248 743.9 248 744.1 246.5 745.6zM 11 742.7C 10.9 744.8 9.1 746.2 7.4 745.6C 5.6 744.9 5.6 744.8 7.4 743.4C 9.6 741.9 11 741.6 11 742.7zM 33.7 742.7C 33.1 743.7 45.5 743.6 49.6 742.6C 52.6 741.9 52.7 742 52.2 744.9C 51.9 747.2 51.1 748 48.9 748.5C 47.3 748.9 45.2 748.9 44.1 748.5C 42.9 748.2 42 748.5 41.7 749.5C 41.3 750.3 39.2 751.8 37 752.7C 33.5 754.2 32.9 754.9 33.2 757C 33.6 759.3 33.3 759.6 30.8 759.2C 27.9 758.8 26.9 757 29.5 757C 30.3 757 31.1 756.4 31.1 755.7C 31.2 755.1 31.4 753.5 31.5 752.2C 31.8 749.3 30.4 749.4 28.4 752.5C 27.5 753.9 26.4 754.7 25.9 754.4C 25.4 754.1 25 755.1 25.1 756.7C 25.1 759.2 25.2 759.3 26 757.5C 26.8 755.6 26.9 755.7 26.9 757.9C 27 759.8 26.6 760.1 24.8 759.7C 23.6 759.3 22 759.6 21.3 760.2C 20.3 761 20 760.8 20 759.6C 20 758.7 20.7 758 21.5 758C 22.3 758 23.2 756.6 23.6 754.5C 24.2 751.3 25 750.5 27.3 750.9C 28.3 751.1 28.2 749.2 27 748.5C 25.7 747.7 26.9 745 28.6 745C 30.7 745 34.2 748.9 33.6 750.6C 33.2 751.5 33.7 752 35.1 752C 37 752 37 751.9 35.5 748.9C 34.6 747.3 33.2 745.6 32.4 745.3C 30.5 744.6 30.6 742 32.6 742C 33.4 742 33.9 742.3 33.7 742.7zM 167 742.4C 167 742.6 166.3 743.1 165.4 743.4C 164.6 743.7 164.2 743.6 164.5 743C 165.1 742 167 741.6 167 742.4zM 63 744.6C 63 745.4 62.6 745.8 62 745.5C 61.5 745.2 61 744.5 61 743.9C 61 743.4 61.5 743 62 743C 62.6 743 63 743.7 63 744.6zM 23 753.1C 23 754.2 22.6 754.8 22 754.5C 21.5 754.2 21 753.2 21 752.4C 21 751.6 21.5 751 22 751C 22.6 751 23 751.9 23 753.1zM 48 753.7C 48 757 45.9 757.6 43.8 755C 41.3 752 41.5 751.5 45 751.5C 47.4 751.5 48 751.9 48 753.7zM 57 752C 57 752.5 56.6 753 56 753C 55.5 753 55 752.5 55 752C 55 751.4 55.5 751 56 751C 56.6 751 57 751.4 57 752zM 12.6 754.5C 13.5 755.9 14.1 757.2 13.9 757.4C 13.7 757.6 12.6 758.2 11.5 758.9C 9.6 760 9.6 760.1 11.7 759.5C 13.4 759 13.9 759.2 13.4 760.3C 13.1 761.2 12.1 761.6 10.8 761.2C 9.7 760.9 8.4 761.3 7.9 762.1C 7.2 763.3 7 763.3 7 762.1C 7 761.3 6.3 761 5.1 761.3C 3.7 761.6 3.3 761.4 3.7 760.4C 4.3 758.7 5.2 758.6 6.9 760.2C 8 761.3 8.1 761 7.5 759C 7.1 757.6 6.3 756.3 5.9 756.2C 5.4 756 5 755.4 5 754.8C 5 754.2 5.8 754.4 6.8 755.3C 8.8 757.2 11 757.5 11 756.1C 11 755.5 10.6 754.8 10 754.5C 9.5 754.2 9 753.5 9 752.9C 9 751.1 11 752 12.6 754.5zM 18.4 756.6C 17.2 759.5 17.1 760.9 17.9 762.2C 18.5 763.1 18.7 764.6 18.4 765.5C 17.7 767.2 16 767.6 16 765.9C 16 765.4 15.6 765.2 15 765.5C 14.5 765.8 14 765.4 14 764.6C 14 763.8 14.5 762.8 15.1 762.4C 15.7 762.1 15.9 760.7 15.6 759.5C 15.2 757.9 15.7 756.4 17.2 754.7C 20.1 751.4 20.4 751.8 18.4 756.6zM 165.4 754.2C 164.6 756.9 164.2 757.5 163.5 756.9C 162.8 756.1 164.2 752 165.2 752C 165.7 752 165.8 753 165.4 754.2zM 38 756C 38 756.5 37.3 757 36.5 757C 35.7 757 35 756.5 35 756C 35 755.4 35.7 755 36.5 755C 37.3 755 38 755.4 38 756zM 88.5 764.8C 88.5 771.9 88.2 773.5 87 773.5C 86.2 773.5 85.4 772.8 85.4 772C 85.3 771.2 85.2 769.9 85.1 769.2C 85.1 768.6 84.2 768 83.3 767.9C 82.2 767.9 82 767.6 82.8 767.3C 84.2 766.7 84.4 761.4 83 760.5C 82.4 760.1 82.5 759.1 83.1 757.6C 83.9 756 84.8 755.4 86.3 755.7C 88.4 756.1 88.5 756.7 88.5 764.8zM 42.5 757C 42.8 757.5 42.4 758 41.6 758C 40.7 758 40 757.5 40 757C 40 756.4 40.4 756 40.9 756C 41.5 756 42.2 756.4 42.5 757zM 44.5 760.5C 45 760.5 45.6 761.4 45.8 762.5C 46 763.9 45.8 764.1 45.2 763.2C 44.7 762.5 43.6 762.2 42.7 762.6C 41.4 763.1 41 762.7 41 761C 41 759.6 41.4 759.1 42.3 759.7C 42.9 760.1 43.9 760.5 44.5 760.5zM 35 762C 37.1 763.3 37.1 767 34.9 769.4C 32.8 771.6 32.6 771.3 34 767.6C 34.7 765.7 34.6 764.7 33.5 763.6C 31 761.1 32 760.1 35 762zM 52 763C 52 763.5 51.5 764 50.9 764C 50.4 764 50.2 763.5 50.5 763C 50.8 762.4 51.3 762 51.6 762C 51.8 762 52 762.4 52 763zM 3.99999 765.5C 3.99999 767 3.39999 768 2.49999 768C 1.29999 768 1.19999 767.6 2.19999 765.5C 2.79999 764.1 3.49999 763 3.69999 763C 3.79999 763 3.99999 764.1 3.99999 765.5zM 32 765.9C 32 767 31.6 768.2 31 768.5C 30.5 768.8 30 768.4 30 767.5C 30 766.3 29.6 766.1 28.1 767C 25 768.6 23.8 768.2 25.8 766.1C 28.1 763.5 32 763.4 32 765.9zM 293 765C 293 765.5 292.1 766 290.9 766C 289.8 766 289.2 765.5 289.5 765C 289.8 764.4 290.8 764 291.6 764C 292.4 764 293 764.4 293 765zM 42 766.5C 43.1 767.8 43 767.9 41.6 767.4C 40.7 767.1 40 766.4 40 765.9C 40 764.6 40.6 764.8 42 766.5zM 10.4 767C 9.7 767.7 8.5 767.7 6.9 767.1C 4.6 766.2 4.7 766.1 8 766.1C 10.3 766 11.1 766.3 10.4 767zM 52.5 767C 52.2 767.5 51.3 768 50.7 768C 50 768 50.1 767.6 51 767C 52.9 765.8 53.3 765.8 52.5 767zM 22.4 771.9C 21.8 772.5 20 770 20 768.5C 20.1 767.9 20.7 768.4 21.5 769.4C 22.3 770.5 22.7 771.6 22.4 771.9zM 291.7 768.6C 291.4 768.9 290.5 769 289.8 768.7C 289 768.4 289.3 768.1 290.4 768.1C 291.5 768 292.1 768.3 291.7 768.6zM 39.5 770.1C 40.6 771.8 39.4 772.2 38 770.5C 37.2 769.6 37.2 769 37.8 769C 38.4 769 39.2 769.5 39.5 770.1zM 16 772.5C 16 773.3 15.6 774 15 774C 14.5 774 14 773.3 14 772.5C 14 771.7 14.5 771 15 771C 15.6 771 16 771.7 16 772.5zM 44.7 774.2C 44.4 775 44.1 774.7 44.1 773.6C 44 772.5 44.3 771.9 44.6 772.3C 44.9 772.6 45 773.5 44.7 774.2zM 21.3 775C 23.4 777.4 23.4 778 21.7 778C 19.9 778 16.8 774.6 17.7 773.7C 18.7 772.6 19.4 772.9 21.3 775zM 52 774C 52 774.5 51.8 775 51.6 775C 51.3 775 50.8 774.5 50.5 774C 50.2 773.4 50.4 773 50.9 773C 51.5 773 52 773.4 52 774zM 27.3 778.5C 26.8 782.8 27.9 784.6 29.5 782C 30.6 780.2 32 781 32 783.5C 32 786.1 33.5 787 34.2 784.8C 34.4 784.2 35.2 784 35.9 784.4C 36.8 785 36.8 785.5 35.9 786.6C 34.4 788.5 32.4 788.4 30.2 786.3C 29.2 785.3 27.6 784 26.6 783.5C 25.2 782.7 25 781.7 25.6 778.2C 26.5 772.6 28.1 772.8 27.3 778.5zM 38.8 775.3C 40.2 774.8 40.4 776.6 39 777.5C 38.5 777.8 37 777.1 35.8 775.9C 33.8 774 33.7 773.9 35.5 774.7C 36.6 775.3 38.1 775.5 38.8 775.3zM 19.5 780.9C 19.2 781.4 20 782.2 21.2 782.6C 23.1 783.2 23.2 783.4 21.8 784.4C 21 785 20.1 786.2 19.7 787C 19.4 788 19.1 787.7 19.1 786.2C 19 784.9 18.5 783 18 781.9C 17.1 780.4 17.3 780 18.5 780C 19.4 780 19.9 780.4 19.5 780.9zM 37.2 782.2C 36.5 782.9 36 783 36 782.4C 36 781 37.2 779.8 37.9 780.5C 38.1 780.8 37.8 781.6 37.2 782.2zM 40.5 785C 40.2 785.5 39.4 786 38.9 786C 38.3 786 38.2 785.5 38.5 785C 38.8 784.4 39.6 784 40.1 784C 40.7 784 40.8 784.4 40.5 785zM 50 786.6C 50 786.8 49.3 787 48.5 787C 47.7 787 47 786.6 47 786C 47 785.5 47.7 785.3 48.5 785.6C 49.3 786 50 786.4 50 786.6z"/>
<path style="stroke:none; fill:#000000" d="M 141.2 57.6C 137.8 60 138.5 65 142.4 66.3C 144.5 67 145.9 66.9 147.3 66C 148.9 65.1 149.4 65.1 150.1 66.1C 150.6 66.9 153.4 67.5 157.4 67.6C 163.2 67.8 163.8 67.6 162.5 66.3C 160.5 64.3 160.6 63.8 163.3 64C 167.4 64.4 167.4 64 163.6 60.6C 160.9 58.3 158.4 57.1 155.2 56.6C 147.9 55.6 143.6 55.9 141.2 57.6z"/>
<path style="stroke:none; fill:#000000" d="M 150.3 70.7C 151.2 70.9 152.6 70.9 153.3 70.7C 153.9 70.4 153.2 70.2 151.5 70.2C 149.9 70.2 149.3 70.4 150.3 70.7z"/>
<path style="stroke:none; fill:#000000" d="M 115 83C 113.6 84.1 111.9 85.5 111.2 86.1C 110.5 86.7 110 88.6 110.2 90.3C 110.5 93.1 110.9 93.5 113.3 93.5C 114.9 93.6 116.6 94.3 117.1 95.3C 118.3 97.4 120 97.5 120 95.5C 120 94.4 121.1 94 123.8 94C 125.9 94 127.9 94.3 128.3 94.6C 128.6 95 131.5 95.4 134.7 95.6C 138.7 95.8 140.8 96.4 141.7 97.6C 142.7 98.9 143.7 99.1 146.7 98.5C 148.8 98.1 151.9 97.7 153.5 97.7C 158.1 97.4 158.1 93.9 153.5 90.4C 150.6 88.2 149.7 87.9 148.7 89C 147.8 90 147.8 90.1 148.9 89.5C 149.8 89 150.1 89.2 149.8 90.1C 149.5 91 148.2 91.4 146.4 91.2C 144 90.9999 143.8 91.1 145.3 91.9999C 146.2 92.5999 147 93.7999 147 94.5999C 147 95.3999 146.6 95.8999 146.1 95.5999C 144.9 94.7999 123.4 91.9999 118.8 91.9999C 116.7 91.9999 115 91.5999 115 90.9999C 115 89.4 122.1 88.5999 125.5 89.9C 131.4 91.9999 135.8 91.3 139.1 87.7L 142.1 84.4999L 138.4 84.2C 136.3 83.9999 133.6 84.4 132.2 85.1C 130.2 86.2 129.4 86.2 126.7 84.6C 123.9 83 123.5 83 122.4 84.4C 121.1 86.2 118.4 86.4999 117.5 84.9999C 117.1 84.4 117.4 83.2999 118 82.4999C 119.8 80.4 117.9 80.7 115 83z"/>
<path style="stroke:none; fill:#000000" d="M 122.4 107.9C 123.1 108.9 129 109.9 130.7 109.3C 133.3 108.3 130.7 107 126.4 107C 123.9 107 122.1 107.4 122.4 107.9z"/>
<path style="stroke:none; fill:#000000" d="M 140 671C 140 672.9 140.3 673.1 141.2 672.2C 142.1 671.3 142.1 670.7 141.2 669.8C 140.3 668.9 140 669.1 140 671z"/>
<path style="stroke:none; fill:#000000" d="M 149.1 679.7C 149.7 681.2 150.7 683.8 151.5 685.5C 152.3 687.1 153 689.5 153.2 690.7C 153.4 692.4 153.8 692.7 155 692C 156.3 691.2 156 690.1 153 684.4C 149.3 677.4 147.3 675 149.1 679.7z"/>
<path style="stroke:none; fill:#000000" d="M 141 685C 141 685.8 141.5 687.2 142 688C 142.9 689.3 143 689.3 143 688C 143 687.2 142.5 685.8 142 685C 141.1 683.7 141 683.7 141 685z"/>
<path style="stroke:none; fill:#000000" d="M 145.8 692.7C 145.6 693.2 145.7 695.1 146 697L 146.6 700.5L 147.7 697C 148.7 693.4 148.5 692 147 692C 146.5 692 146 692.3 145.8 692.7z"/>
<path style="stroke:none; fill:#000000" d="M 42 746C 42 746.5 42.7 747 43.5 747C 44.3 747 45 746.5 45 746C 45 745.4 44.3 745 43.5 745C 42.7 745 42 745.4 42 746z"/>
<path style="stroke:none; fill:#000000" d="M 2.5 3.89996C 1.9 4.99994 3.4 6.19995 4.4 5.29999C 5.3 4.39996 5.1 3 4.1 3C 3.5 3 2.9 3.39996 2.5 3.89996z"/>
<path style="stroke:none; fill:#000000" d="M 36.3 8C 36.3 11 36.5 12.3 36.7 10.7C 36.9 9.20001 36.9 6.79999 36.7 5.20001C 36.5 3.70001 36.3 5 36.3 8z"/>
<path style="stroke:none; fill:#000000" d="M 110 4.5C 109 5.79999 109.1 6 110.9 6C 112.1 6 113 5.40002 113 4.5C 113 3.70001 112.6 3 112.1 3C 111.6 3 110.7 3.70001 110 4.5z"/>
<path style="stroke:none; fill:#000000" d="M 187.3 7.5C 185.9 11.2 184.9 17 185.6 17C 186.8 17 189.1 14 188.6 13.1C 188.2 12.6 188.5 12 189.2 11.8C 190.1 11.5 190.1 10.5 189.4 8L 188.4 4.5L 187.3 7.5z"/>
<path style="stroke:none; fill:#000000" d="M 39.2 11C 39.2 12.4 39.4 12.9 39.7 12.2C 39.9 11.6 39.9 10.4 39.7 9.70001C 39.4 9.10004 39.2 9.60004 39.2 11z"/>
<path style="stroke:none; fill:#000000" d="M 0 12.7C 0 15.3 0.4 16 2 16C 4.5 16 4.5 15.2 2 12L 0 9.5L 0 12.7z"/>
<path style="stroke:none; fill:#000000" d="M 100 18.5C 100 22.6 100.4 26 101 26C 101.5 26 101.8 22.7 101.7 18.5C 101.6 14.4 101.2 11 100.8 11C 100.4 11 100 14.4 100 18.5z"/>
<path style="stroke:none; fill:#000000" d="M 62.5 34C 62.8 34.5 63.3 35 63.6 35C 63.8 35 64 34.5 64 34C 64 33.4 63.5 33 62.9 33C 62.4 33 62.2 33.4 62.5 34z"/>
<path style="stroke:none; fill:#000000" d="M 45.8 57.7C 46.4 57.9 47.6 57.9 48.3 57.7C 48.9 57.4 48.4 57.2 47 57.2C 45.6 57.2 45.1 57.4 45.8 57.7z"/>
<path style="stroke:none; fill:#000000" d="M 52 58C 54 59.3 59.7 59.3 60.5 58C 60.9 57.4 59.1 57 55.8 57C 52 57 50.9 57.3 52 58z"/>
<path style="stroke:none; fill:#000000" d="M 6.3 58.7C 7.2 58.9 8.6 58.9 9.3 58.7C 9.9 58.4 9.2 58.2 7.5 58.2C 5.9 58.2 5.3 58.4 6.3 58.7z"/>
<path style="stroke:none; fill:#000000" d="M 11.8 58.7C 12.4 58.9 13.6 58.9 14.3 58.7C 14.9 58.4 14.4 58.2 13 58.2C 11.6 58.2 11.1 58.4 11.8 58.7z"/>
<path style="stroke:none; fill:#000000" d="M 78 77.1C 78 78.3 77.3 79.8 76.4 80.4C 75 81.4 75.2 81.9 77.6 84.3C 79.1 85.8 80.5 87 80.9 87C 81.2 87 81.3 84.3 81.2 81C 80.9 76.7 80.4 75 79.4 75C 78.6 75 78 76 78 77.1z"/>
<path style="stroke:none; fill:#000000" d="M 71.8 84.4C 71.5 85.8 71.6 86.9999 72.1 86.9999C 73.5 86.9999 74.1 84.9999 73.2 83.4C 72.4 81.9999 72.2 82.2 71.8 84.4z"/>
<path style="stroke:none; fill:#000000" d="M 45.8 86.7C 47 86.9 48.8 86.9 49.8 86.7C 50.7 86.4 49.7 86.2 47.5 86.3C 45.3 86.3 44.5 86.5 45.8 86.7z"/>
<path style="stroke:none; fill:#000000" d="M 58.5 87C 58.8 87.5 59.5 88 60.1 88C 60.6 88 61 87.5 61 87C 61 86.4 60.3 86 59.4 86C 58.6 86 58.2 86.4 58.5 87z"/>
<path style="stroke:none; fill:#000000" d="M 39.2 99C 39.2 100.4 39.4 100.9 39.7 100.2C 39.9 99.6 39.9 98.4 39.7 97.7C 39.4 97.1 39.2 97.6 39.2 99z"/>
<path style="stroke:none; fill:#000000" d="M 73.6 100.9C 73.3 101.4 73.4 102.9 73.9 104.2C 74.5 105.4 74.9 106 75 105.5C 75.1 104.9 75.3 103.7 75.5 102.8C 75.9 100.8 74.5 99.4 73.6 100.9z"/>
<path style="stroke:none; fill:#000000" d="M 218 103C 218 103.5 218.5 104 219.1 104C 219.6 104 219.8 103.5 219.5 103C 219.2 102.4 218.7 102 218.4 102C 218.2 102 218 102.4 218 103z"/>
<path style="stroke:none; fill:#000000" d="M 223 103C 223 103.5 223.7 104 224.6 104C 225.4 104 225.8 103.5 225.5 103C 225.2 102.4 224.5 102 223.9 102C 223.4 102 223 102.4 223 103z"/>
<path style="stroke:none; fill:#000000" d="M 240 103.1C 240 103.6 240.5 103.8 241 103.5C 241.6 103.2 242 102.7 242 102.4C 242 102.2 241.6 102 241 102C 240.5 102 240 102.5 240 103.1z"/>
<path style="stroke:none; fill:#000000" d="M 66.1 103.4C 66.3 103.6 67.4 104 68.5 104.2C 69.6 104.3 70.8 105.2 71.2 106C 71.7 107.1 71.9 106.9 71.9 105.2C 72 103.4 71.5 103 68.8 103C 67.1 103 65.9 103.2 66.1 103.4z"/>
<path style="stroke:none; fill:#000000" d="M 66.4 106.7C 67.4 107.8 70 107.9 70 106.9C 70 106.4 69 106 67.8 106C 66.6 106 66 106.3 66.4 106.7z"/>
<path style="stroke:none; fill:#000000" d="M 189.7 115.3C 189.3 116.3 189 118.1 189 119.3C 189.1 121.3 189.2 121.3 190.1 119.7C 190.7 118.7 191 116.9 190.8 115.7C 190.5 113.7 190.4 113.7 189.7 115.3z"/>
<path style="stroke:none; fill:#000000" d="M 70.5 125C 64.5 125.4 49.1 125.7 36.4 125.6L 13.4 125.5L 14.3 128.5C 16.2 134.3 16.9 135.7 16.9 133.8C 17 132.4 18.2 132 23.3 131.7L 29.5 131.4L 23.3 131.2C 17.7 131 17 130.8 17 129C 17 127 17.5 127 39.3 127.2C 60.1 127.5 61.6 127.6 61.2 129.2C 60.8 130.8 59.3 131 48.6 131.2L 36.5 131.4L 49 131.9C 63.9 132.6 68 132.3 68 130.4C 68 129.6 68.8 129 69.8 129C 70.8 129 72.1 128.5 72.8 127.8C 73.7 126.9 74 127 74 128.2C 74 129.1 73.6 130.1 73.1 130.4C 72.1 131 71.8 137.4 72.6 140.2C 73.2 142.4 77 142.6 77 140.5C 77 139.7 77.4 139 77.9 139C 78.4 139 79.6 136.9 80.6 134.2C 81.5 131.6 83.1 128.8 84.1 127.8C 86.7 125.6 86.5 124 83.8 124.2C 82.5 124.2 76.6 124.6 70.5 125zM 66 129C 66 129.5 65.5 130 64.9 130C 64.4 130 64.2 129.5 64.5 129C 64.8 128.4 65.3 128 65.6 128C 65.8 128 66 128.4 66 129z"/>
<path style="stroke:none; fill:#000000" d="M 1.8 126.7C 3 126.9 5 126.9 6.3 126.7C 7.5 126.5 6.5 126.3 4 126.3C 1.5 126.3 0.5 126.5 1.8 126.7z"/>
<path style="stroke:none; fill:#000000" d="M 215.2 130.5C 215.2 132.1 215.4 132.7 215.7 131.7C 215.9 130.8 215.9 129.4 215.7 128.7C 215.4 128.1 215.2 128.8 215.2 130.5z"/>
<path style="stroke:none; fill:#000000" d="M 32.8 131.7C 33.5 132 34.4 131.9 34.7 131.6C 35.1 131.3 34.5 131 33.4 131.1C 32.3 131.1 32 131.4 32.8 131.7z"/>
<path style="stroke:none; fill:#000000" d="M 218.1 135.6C 218.1 136.7 218.4 137 218.7 136.2C 219 135.5 218.9 134.6 218.6 134.3C 218.3 133.9 218 134.5 218.1 135.6z"/>
<path style="stroke:none; fill:#000000" d="M 80 140.6C 80 141.4 80.5 141.8 81 141.5C 81.6 141.2 82 140.5 82 139.9C 82 139.4 81.6 139 81 139C 80.5 139 80 139.7 80 140.6z"/>
<path style="stroke:none; fill:#000000" d="M 235 141.6C 235 142.4 235.5 142.8 236 142.5C 236.6 142.1 236.8 141.4 236.5 140.9C 235.6 139.5 235 139.8 235 141.6z"/>
<path style="stroke:none; fill:#000000" d="M 239 144.1C 239 145.9 239.2 146 240.5 144.6C 241.3 143.8 242 142.9 242 142.6C 242 142.3 241.3 142 240.5 142C 239.6 142 239 142.9 239 144.1z"/>
<path style="stroke:none; fill:#000000" d="M 80.3 147C 80.3 149.5 80.5 150.5 80.7 149.2C 80.9 148 80.9 146 80.7 144.7C 80.5 143.5 80.3 144.5 80.3 147z"/>
<path style="stroke:none; fill:#000000" d="M 249 148.7C 249 151 250.7 153.6 251.6 152.8C 252.5 151.8 251.2 147 250 147C 249.4 147 249 147.8 249 148.7z"/>
<path style="stroke:none; fill:#000000" d="M 246 154C 245.1 154.6 245 155 245.7 155C 246.3 155 247.2 154.5 247.5 154C 248.3 152.8 247.9 152.8 246 154z"/>
<path style="stroke:none; fill:#000000" d="M 24 158.2C 20.4 162 21.6 163.3 25.7 160C 27.1 158.9 28.6 158.3 29.1 158.6C 29.6 158.9 29.7 158.4 29.4 157.6C 28.5 155.4 26.4 155.6 24 158.2z"/>
<path style="stroke:none; fill:#000000" d="M 3.2 206.9C 5.2 207.3 7.5 208.1 8.2 208.7C 9.1 209.4 10 209.1 11.3 207.8C 12.9 206.1 12.8 206 6.3 206.1C 0.6 206.2 0.0999999 206.3 3.2 206.9z"/>
<path style="stroke:none; fill:#000000" d="M 292.6 338.8C 291.7 340.2 292.8 351.2 294 352.4C 294.7 353.1 295 351 295 345.7C 295 338.8 294.1 336.4 292.6 338.8z"/>
<path style="stroke:none; fill:#000000" d="M 287 351.6C 287 353 287.4 353.9 288 353.5C 288.6 353.2 289 352 289 350.9C 289 349.9 288.6 349 288 349C 287.5 349 287 350.2 287 351.6z"/>
<path style="stroke:none; fill:#000000" d="M 10.5 354.5C 10 354.7 7.4 355.1 4.8 355.5L -4.76837e-07 356.1L -4.76837e-07 364.1C -4.76837e-07 371 0.2 372 1.8 372C 3.2 372 3.9 370.6 4.9 365.7C 6.4 358.5 7.6 356.4 9.6 358.1C 10.5 358.9 11.1 358.6 11.9 357.1C 13.6 354.1 13.3 353.5 10.5 354.5z"/>
<path style="stroke:none; fill:#000000" d="M 283.2 380C 283.2 381.4 283.4 381.9 283.7 381.2C 283.9 380.6 283.9 379.4 283.7 378.7C 283.4 378.1 283.2 378.6 283.2 380z"/>
<path style="stroke:none; fill:#000000" d="M 280.5 401C 280.8 401.5 281.3 402 281.6 402C 281.8 402 282 401.5 282 401C 282 400.4 281.5 400 280.9 400C 280.4 400 280.2 400.4 280.5 401z"/>
<path style="stroke:none; fill:#000000" d="M 277.6 407.3C 277.7 408.5 277.9 410.4 277.9 411.4C 278 412.9 278.3 413.1 279.2 412.2C 280 411.4 280 410.7 279.1 409.6C 278.2 408.6 278.2 408.1 279.1 407.8C 279.9 407.5 279.8 407.1 278.8 406.2C 277.6 405.2 277.4 405.4 277.6 407.3z"/>
<path style="stroke:none; fill:#000000" d="M 281 407.9C 281 409 281.3 410.1 281.8 410.3C 282.2 410.6 282.5 409.7 282.5 408.4C 282.5 407.1 282.2 406 281.8 406C 281.3 406 281 406.9 281 407.9z"/>
<path style="stroke:none; fill:#000000" d="M 282 415.1C 282 416.4 281.6 416.9 280.8 416.4C 280.1 416 280 416.1 280.4 416.8C 281.6 418.7 282.7 418.2 283.2 415.5C 283.5 414.1 283.3 413 282.9 413C 282.4 413 282 413.9 282 415.1z"/>
<path style="stroke:none; fill:#000000" d="M 281.8 423.5C 282 425.4 282.4 427 282.6 427C 282.8 427 283 425.4 283 423.5C 283 421.6 282.6 420 282.2 420C 281.8 420 281.6 421.6 281.8 423.5z"/>
<path style="stroke:none; fill:#000000" d="M 278 430C 277.7 435.2 277.6 439.7 277.7 439.9C 278.7 441.5 279 438 278.8 429.9L 278.5 420.5L 278 430z"/>
<path style="stroke:none; fill:#000000" d="M 286.3 427C 286.3 429.5 286.5 430.5 286.7 429.2C 286.9 428 286.9 426 286.7 424.7C 286.5 423.5 286.3 424.5 286.3 427z"/>
<path style="stroke:none; fill:#000000" d="M 275.8 442.7C 274.8 442.9 274 443.6 274 444.2C 274 444.7 274.7 444.9 275.5 444.6C 276.4 444.3 277 444.5 276.9 445.3C 276.6 447.6 277 449 277.9 449C 278.4 449 278.8 447.4 278.8 445.5C 278.8 443.6 278.5 442.1 278.2 442.1C 277.8 442.2 276.7 442.4 275.8 442.7z"/>
<path style="stroke:none; fill:#000000" d="M 285.3 449.5C 285.3 451.7 285.5 452.5 285.7 451.2C 285.9 450 285.9 448.2 285.7 447.2C 285.4 446.3 285.2 447.3 285.3 449.5z"/>
<path style="stroke:none; fill:#000000" d="M 273 448.5C 273 449.3 273.7 450 274.6 450C 276 450 276 449.7 275 448.5C 274.3 447.7 273.6 447 273.4 447C 273.2 447 273 447.7 273 448.5z"/>
<path style="stroke:none; fill:#000000" d="M 277 452.1C 277 452.6 277.5 452.8 278 452.5C 278.6 452.2 279 451.7 279 451.4C 279 451.2 278.6 451 278 451C 277.5 451 277 451.5 277 452.1z"/>
<path style="stroke:none; fill:#000000" d="M 273.1 453.6C 273.1 454.7 273.4 455 273.7 454.2C 274 453.5 273.9 452.6 273.6 452.3C 273.3 451.9 273 452.5 273.1 453.6z"/>
<path style="stroke:none; fill:#000000" d="M 276.7 455.6C 276.4 455.9 276.4 456.9 276.7 457.7C 277 458.5 276.8 459.5 276.3 459.9C 275.6 460.3 275.7 461 276.6 461.8C 277.8 462.9 278 462.4 278 459C 278 455 277.8 454.5 276.7 455.6z"/>
<path style="stroke:none; fill:#000000" d="M 26 469.5C 25.9 470 25.8 471.3 25.9 472.2C 26 473.2 25.6 474 25 474C 22.7 474 20.6 477.3 20.7 480.9C 20.7 482.9 20.4 485.2 19.9 486.1C 19.4 487 19.5 488.1 20.1 488.7C 20.7 489.3 21.2 491.5 21.3 493.6C 21.5 496.5 22.2 498.1 24.3 499.8C 25.8 501.1 27 502.8 27 503.6C 27 505 30.6 507.2 35 508.5C 37 509.1 36.9 508.8 34 506.8C 31.8 505.3 30.3 503.3 29.9 501.5C 29.6 499.8 28.9 498.6 28.2 498.7C 27.5 498.9 27 498.6 27 498.1C 27 497.6 26.3 496.4 25.4 495.6C 24 494.2 24 494 25.4 494C 26.2 494 27.4 494.8 27.9 495.7C 28.7 497.1 28.9 496.6 29 493.2C 29 490.9 28.3 487.9 27.5 486.6C 26.7 485.4 25.7 482.3 25.4 479.7C 24.8 475.8 25 475 26.4 475C 27.3 475 28 474.4 27.9 473.7C 27.8 471.9 26.2 468.3 26 469.5z"/>
<path style="stroke:none; fill:#000000" d="M 40.1 472.6C 40.1 473.7 40.4 474 40.7 473.2C 41 472.5 40.9 471.6 40.6 471.3C 40.3 470.9 40 471.5 40.1 472.6z"/>
<path style="stroke:none; fill:#000000" d="M 0 477.3C 0 479.4 0.8 482.7 1.9 484.8C 3.4 487.8 6.4 496.6 8.6 504.9C 8.9 505.9 9.4 505.9 10.4 505.1C 11.1 504.5 12 504.3 12.3 504.7C 13.6 505.9 13 502.5 10.6 495C 8.3 487.4 4.5 479.2 1.6 475.5C 0.1 473.6 0.1 473.7 0 477.3z"/>
<path style="stroke:none; fill:#000000" d="M 279.5 506L 276.5 506.8L 279.5 506.9C 281.2 506.9 283.2 506.5 284 506C 285.3 505.1 285.3 505 284 505.1C 283.2 505.2 281.2 505.6 279.5 506z"/>
<path style="stroke:none; fill:#000000" d="M 291.3 505.7C 292.2 505.9 293.6 505.9 294.3 505.7C 294.9 505.4 294.2 505.2 292.5 505.2C 290.9 505.2 290.3 505.4 291.3 505.7z"/>
<path style="stroke:none; fill:#000000" d="M 273 507.8C 273 509.3 275.2 510.8 276.7 510.3C 277.8 509.9 277.7 509.5 276.3 508.4C 274.2 506.9 273 506.6 273 507.8z"/>
<path style="stroke:none; fill:#000000" d="M 279.8 508.7C 280.4 508.9 281.6 508.9 282.3 508.7C 282.9 508.4 282.4 508.2 281 508.2C 279.6 508.2 279.1 508.4 279.8 508.7z"/>
<path style="stroke:none; fill:#000000" d="M 242.8 510.7C 243.5 511 244.4 510.9 244.7 510.6C 245.1 510.3 244.5 510 243.4 510.1C 242.3 510.1 242 510.4 242.8 510.7z"/>
<path style="stroke:none; fill:#000000" d="M 234.6 511.9C 234.2 512.6 234.1 513.4 234.4 513.7C 235.3 514.6 236.3 513.3 235.8 511.9C 235.4 510.8 235.2 510.8 234.6 511.9z"/>
<path style="stroke:none; fill:#000000" d="M 201.6 518.2C 201 520.1 200 530.3 200.4 529.9C 201.5 528.8 203.7 517.9 202.9 517.4C 202.4 517.1 201.8 517.5 201.6 518.2z"/>
<path style="stroke:none; fill:#000000" d="M 224.6 518.7C 224 520.1 224.1 520.2 225.1 519.3C 225.8 518.6 226.1 517.8 225.8 517.5C 225.5 517.2 224.9 517.7 224.6 518.7z"/>
<path style="stroke:none; fill:#000000" d="M 212.6 523.6C 211.6 527.3 212.4 527.5 213.7 524C 214.3 522.3 214.5 521 214 521C 213.6 521 212.9 522.2 212.6 523.6z"/>
<path style="stroke:none; fill:#000000" d="M 222.1 525.4C 220.7 531.1 220.7 532 222.3 532C 223.1 532 223.5 530.2 223.6 526.5C 223.7 523.5 223.6 521 223.5 521C 223.4 521 222.7 523 222.1 525.4z"/>
<path style="stroke:none; fill:#000000" d="M 27.5 590C 27.8 590.5 28.6 591 29.1 591C 29.7 591 29.8 590.5 29.5 590C 29.2 589.4 28.4 589 27.9 589C 27.3 589 27.2 589.4 27.5 590z"/>
<path style="stroke:none; fill:#000000" d="M 28.8 622.7C 29.5 623 30.4 622.9 30.7 622.6C 31.1 622.3 30.5 622 29.4 622.1C 28.3 622.1 28 622.4 28.8 622.7z"/>
<path style="stroke:none; fill:#000000" d="M 58 624.4C 58 625.3 57.4 626 56.6 626C 54.8 626 54 628.2 54 632.8L 54 636.5L 59 636.5C 61.8 636.5 64 636.3 64 636.1C 64 635.8 63.2 634.8 62.3 633.8C 61.3 632.7 60.6 630.2 60.5 627.8C 60.5 625.4 60 623.5 59.3 623.3C 58.6 623 58 623.5 58 624.4zM 57.7 631.2C 57.4 632 57.1 631.7 57.1 630.6C 57 629.5 57.3 628.9 57.6 629.3C 57.9 629.6 58 630.5 57.7 631.2z"/>
<path style="stroke:none; fill:#000000" d="M 64.4 632.5C 65.9 633.9 67.5 635 67.9 635C 68.4 635 68.5 633.9 68.2 632.5C 67.9 630.5 67.2 630 64.7 630L 61.7 630L 64.4 632.5z"/>
<path style="stroke:none; fill:#000000" d="M 158 778C 158 778.5 158.5 779 159 779C 159.6 779 160 778.5 160 778C 160 777.4 159.6 777 159 777C 158.5 777 158 777.4 158 778z"/>
<path style="stroke:none; fill:#000000" d="M 151.8 778.7C 152.5 779 153.4 778.9 153.7 778.6C 154.1 778.3 153.5 778 152.4 778.1C 151.3 778.1 151 778.4 151.8 778.7z"/>
<path style="stroke:none; fill:#000000" d="M 148.5 782C 148.8 782.5 149.5 783 150.1 783C 150.6 783 151 782.5 151 782C 151 781.4 150.3 781 149.4 781C 148.6 781 148.2 781.4 148.5 782z"/>
<path style="stroke:none; fill:#000000" d="M 292.3 787C 292.3 789.5 292.5 790.5 292.7 789.2C 292.9 788 292.9 786 292.7 784.7C 292.5 783.5 292.3 784.5 292.3 787z"/>
</g>
</g>
</svg>