<?xml version="1.0" standalone="no"?>
<!DOCTYPE svg PUBLIC "-//W3C//DTD SVG 20010904//EN"
 "http://www.w3.org/TR/2001/REC-SVG-20010904/DTD/svg10.dtd">
<svg version="1.0" xmlns="http://www.w3.org/2000/svg"
 width="295.000000pt" height="791.000000pt" viewBox="0 0 295.000000 791.000000"
 preserveAspectRatio="xMidYMid meet">

<g transform="translate(0.000000,791.000000) scale(0.100000,-0.100000)"
fill="#000000" stroke="none">
<path d="M1430 7860 c-45 -9 -94 -29 -88 -35 3 -3 21 2 41 10 20 8 47 15 59
15 18 -1 16 -4 -12 -14 -74 -28 -88 -35 -93 -48 -3 -7 -6 -8 -6 -2 -1 6 -12 9
-26 6 -31 -5 -43 -22 -18 -23 14 0 12 -3 -7 -12 -25 -12 -179 -166 -208 -209
-9 -12 -19 -25 -23 -28 -10 -8 -66 -142 -74 -181 -4 -18 -13 -43 -20 -54 -7
-11 -13 -49 -14 -85 0 -36 -5 -90 -11 -120 -10 -52 -5 -505 6 -539 3 -8 2 -40
-2 -71 -5 -49 -10 -59 -38 -76 -17 -12 -44 -29 -60 -40 -56 -37 -101 -64 -143
-85 -24 -11 -43 -25 -43 -30 0 -5 -17 -28 -39 -52 -43 -46 -70 -120 -115 -312
-52 -222 -73 -390 -81 -650 -3 -119 -9 -150 -64 -367 -33 -130 -72 -296 -86
-369 -15 -78 -33 -141 -42 -152 -14 -14 -17 -43 -19 -150 -1 -73 -7 -151 -13
-174 -6 -23 -9 -53 -6 -66 5 -19 0 -26 -28 -39 l-33 -16 -2 -83 c-2 -72 1 -84
18 -96 11 -8 20 -23 20 -33 0 -20 34 -45 49 -35 5 3 34 -9 64 -27 41 -23 57
-38 61 -60 3 -15 10 -28 16 -28 6 0 8 4 5 10 -3 5 -3 25 0 44 7 33 8 34 36 24
35 -12 59 3 59 37 0 13 7 25 15 29 8 3 15 15 15 27 0 11 9 32 20 46 13 17 20
41 20 70 0 57 19 134 37 153 13 13 14 4 8 -75 -3 -49 -13 -120 -21 -156 -13
-56 -14 -105 -5 -340 5 -151 7 -359 4 -463 -6 -188 -6 -189 -43 -282 -35 -89
-42 -144 -18 -144 5 0 16 16 24 35 8 19 18 35 23 35 4 0 13 -25 20 -55 14 -60
9 -147 -16 -288 -10 -57 -14 -129 -12 -206 4 -109 6 -122 28 -145 13 -14 33
-26 44 -28 15 -2 24 -16 34 -53 8 -27 23 -68 33 -91 10 -22 26 -67 35 -100 10
-32 28 -73 41 -91 21 -28 24 -42 24 -123 0 -50 -5 -100 -10 -111 -10 -19 -16
-465 -6 -519 6 -40 27 -111 36 -129 5 -9 16 -33 24 -53 8 -21 19 -38 24 -38 5
0 17 -21 26 -47 10 -27 29 -69 42 -94 28 -55 29 -65 8 -86 -27 -27 -1 -147 41
-189 7 -7 15 -35 18 -63 3 -29 9 -56 12 -61 4 -6 88 -10 210 -10 l203 0 6 73
c3 39 8 99 12 132 4 44 2 67 -9 90 -41 80 -45 102 -48 235 -3 122 0 488 3 550
1 14 -1 136 -5 272 -6 228 -5 254 14 325 16 65 20 105 18 238 -4 235 -3 259 5
281 6 16 10 13 26 -21 15 -31 19 -64 20 -150 1 -102 3 -114 30 -165 23 -43 30
-68 30 -113 0 -32 4 -67 10 -77 5 -10 14 -124 18 -252 l8 -233 44 -80 c24 -44
46 -82 50 -85 3 -3 16 -23 29 -45 23 -38 24 -50 29 -287 4 -210 2 -258 -12
-317 -13 -54 -16 -98 -11 -209 3 -77 5 -145 5 -151 0 -8 87 -11 285 -11 l285
0 0 33 c0 19 9 63 20 98 40 128 45 156 71 434 12 119 6 287 -12 332 -13 35
-19 180 -8 209 5 15 2 33 -11 55 -10 19 -23 44 -29 56 -5 11 -15 24 -20 28
-22 13 -10 50 28 90 22 22 51 69 66 104 24 57 27 79 32 235 6 164 5 176 -22
281 -25 100 -26 112 -12 140 8 16 20 42 27 57 8 18 11 55 8 115 -4 77 -9 96
-41 157 -28 52 -37 81 -37 117 0 26 -5 51 -10 54 -6 3 -25 -4 -43 -17 -17 -13
-32 -21 -32 -19 0 7 -50 -11 -65 -24 -8 -8 -28 -16 -45 -20 l-30 -7 25 19 c20
14 25 28 27 63 l1 45 -23 -52 c-14 -31 -30 -53 -39 -53 -9 0 -16 -6 -16 -12
-1 -17 -75 -68 -98 -67 -10 0 -12 3 -5 6 7 2 13 10 13 17 0 6 10 24 22 39 12
15 23 37 25 48 3 18 -1 17 -27 -11 -16 -18 -30 -35 -30 -39 0 -11 -42 -33 -68
-36 -13 -1 -28 -9 -33 -16 -7 -12 -11 -11 -25 2 -15 16 -14 21 14 75 38 73 55
152 58 269 l3 90 -14 -65 c-32 -154 -60 -210 -105 -210 -30 0 -34 23 -16 77 9
25 16 59 16 73 0 15 9 53 20 86 11 32 23 86 27 119 4 39 14 71 29 90 12 17 34
53 50 80 15 28 50 77 79 111 28 33 57 75 64 92 8 19 18 29 25 25 6 -4 18 -8
26 -8 45 -4 49 -6 44 -20 -4 -11 1 -15 17 -15 41 -1 89 -29 165 -96 16 -14 39
-21 72 -23 65 -2 77 14 74 89 -2 42 1 60 12 70 9 7 16 19 16 26 0 20 101 114
122 114 17 0 21 8 32 76 3 18 17 44 31 59 19 21 25 39 25 73 0 25 7 82 15 126
8 45 19 144 24 221 4 77 15 167 24 200 52 204 53 211 35 280 -15 57 -16 68 -3
99 8 20 15 54 15 78 0 60 -39 408 -50 443 -10 32 -77 401 -89 495 -21 153 -75
430 -93 479 -37 101 -149 251 -218 293 -19 12 -48 24 -65 26 -16 2 -35 8 -41
13 -6 5 -19 7 -28 3 -9 -3 -16 -2 -16 4 0 6 -24 18 -52 27 -29 10 -62 23 -73
29 -11 7 -42 20 -70 30 -131 46 -175 69 -181 92 -14 54 28 241 73 329 41 81
56 170 50 300 -10 196 -49 354 -96 387 -10 7 -21 23 -25 35 -10 30 -96 107
-151 133 -37 18 -52 20 -87 13 -36 -7 -71 -8 -123 -4 -5 1 -3 6 5 11 13 9 13
10 0 9 -8 -1 -31 -5 -50 -9z m-5 -258 c111 -16 183 -42 215 -79 17 -18 30 -40
30 -47 0 -8 6 -18 13 -24 7 -6 14 -39 15 -79 5 -110 6 -117 22 -130 11 -9 12
-12 2 -13 -10 0 -9 -4 3 -16 12 -13 14 -29 10 -78 -4 -33 -11 -75 -16 -92 -10
-32 -49 -61 -67 -50 -6 3 -23 -19 -37 -49 -15 -30 -30 -55 -34 -55 -3 0 -12
-15 -20 -32 -19 -45 -71 -93 -115 -108 -20 -6 -34 -16 -31 -21 4 -5 -4 -9 -15
-9 -12 0 -36 -6 -53 -14 -37 -17 -107 -26 -107 -14 0 4 -10 8 -22 8 -28 1 -49
17 -66 50 -7 14 -21 40 -33 59 -14 24 -17 37 -10 44 17 17 13 40 -4 33 -8 -3
-15 -3 -15 -1 0 3 -9 49 -21 102 -18 84 -19 104 -9 158 7 35 21 77 32 95 21
36 6 34 154 13 36 -5 44 -2 54 17 10 18 8 27 -12 56 -24 36 -49 49 -110 60
-29 5 -38 11 -38 25 0 11 6 22 14 25 8 3 13 11 10 18 -3 7 8 37 23 67 34 66
89 102 143 95 19 -3 62 -9 95 -14z m231 -679 c-11 -11 -17 4 -9 23 7 18 8 18
11 1 2 -10 1 -21 -2 -24z m-106 -323 c0 -36 -131 -252 -162 -268 -30 -15 -190
-72 -203 -72 -5 0 5 10 24 22 33 21 33 22 11 30 -23 8 -59 46 -60 62 0 5 8 2
18 -7 32 -29 41 -20 25 24 -7 23 -15 71 -16 108 -2 64 -1 66 21 63 13 -2 30 2
37 8 15 12 76 -1 102 -23 13 -9 35 -4 109 29 83 36 94 39 94 24z m-480 -1117
c0 -17 -29 -87 -30 -72 0 30 12 79 21 79 5 0 9 -3 9 -7z m12 -48 c-2 -14 -8
-28 -13 -31 -5 -3 -7 2 -4 10 3 9 7 23 10 31 7 24 13 17 7 -10z m-15 -87 c-3
-7 -5 -2 -5 12 0 14 2 19 5 13 2 -7 2 -19 0 -25z m846 -2908 c8 0 7 -4 -1 -12
-9 -9 -16 -8 -30 6 -16 18 -16 19 1 12 10 -3 24 -6 30 -6z"/>
<path d="M1412 7334 c-34 -24 -27 -74 12 -87 21 -7 35 -6 49 3 16 9 21 9 28
-1 5 -8 33 -14 73 -15 58 -2 64 0 51 13 -20 20 -19 25 8 23 41 -4 41 0 3 34
-27 23 -52 35 -84 40 -73 10 -116 7 -140 -10z"/>
<path d="M1503 7203 c9 -2 23 -2 30 0 6 3 -1 5 -18 5 -16 0 -22 -2 -12 -5z"/>
<path d="M1158 7087 c-7 -8 -24 -19 -36 -26 -19 -10 -23 -19 -20 -49 2 -30 7
-37 24 -37 12 0 32 -9 44 -20 20 -18 22 -18 31 -2 10 17 68 25 82 11 3 -4 25
-8 49 -11 78 -8 83 -9 86 -26 4 -17 24 -16 78 4 12 4 31 5 42 2 45 -11 40 52
-7 80 -33 19 -51 22 -51 6 0 -5 5 -7 11 -3 7 4 10 1 7 -7 -3 -9 -16 -13 -34
-11 -24 2 -26 1 -11 -8 46 -29 -11 -35 -118 -13 -11 2 -58 6 -104 10 -75 6
-82 8 -65 20 13 10 32 12 59 8 131 -19 132 -19 165 16 16 19 30 36 30 39 0 9
-73 0 -98 -13 -19 -9 -30 -8 -54 6 -28 16 -32 16 -48 2 -30 -27 -64 -9 -40 20
16 19 -3 20 -22 2z"/>
<path d="M1231 6840 c-16 -10 -1 -20 37 -26 25 -4 62 10 52 19 -11 9 -78 15
-89 7z"/>
<path d="M260 3215 c-1 -5 -2 -18 -1 -27 1 -10 -3 -18 -9 -18 -7 0 -23 -9 -37
-20 -14 -11 -20 -20 -14 -20 12 0 11 -56 -3 -78 -4 -6 -2 -21 4 -32 6 -11 11
-35 12 -54 1 -26 9 -40 30 -56 15 -11 28 -29 28 -38 0 -10 14 -31 32 -48 18
-16 26 -21 18 -10 -14 18 -13 18 18 12 40 -9 41 -1 2 19 -34 18 -50 63 -50
143 0 28 -4 52 -8 52 -5 0 -16 16 -25 35 -20 42 -14 82 13 87 16 3 17 6 5 33
-7 17 -14 26 -15 20z m10 -255 c8 -5 12 -11 10 -14 -3 -2 -14 2 -24 10 -22 15
-10 19 14 4z"/>
<path d="M402 3190 c0 -14 2 -19 5 -12 2 6 2 18 0 25 -3 6 -5 1 -5 -13z"/>
<path d="M2016 2728 c-7 -22 -18 -123 -13 -118 12 12 34 121 26 126 -5 3 -11
-1 -13 -8z"/>
<path d="M2231 2685 c-25 -67 -28 -107 -6 -99 9 4 12 15 9 33 -3 14 1 46 10
71 22 65 12 61 -13 -5z"/>
<path d="M2142 2707 c-6 -6 -13 -26 -17 -42 l-7 -30 14 25 c27 49 33 75 10 47z"/>
</g>
</svg>
