<?xml version="1.0" standalone="no"?>
<!DOCTYPE svg PUBLIC "-//W3C//DTD SVG 20010904//EN"
 "http://www.w3.org/TR/2001/REC-SVG-20010904/DTD/svg10.dtd">
<svg version="1.0" xmlns="http://www.w3.org/2000/svg"
 width="295.000000pt" height="791.000000pt" viewBox="0 0 295.000000 791.000000"
 preserveAspectRatio="xMidYMid meet">
<metadata>
Created by potrace 1.16, written by Peter Selinger 2001-2019
</metadata>
<g transform="translate(0.000000,791.000000) scale(0.100000,-0.100000)"
fill="#000000" stroke="none">
<path d="M1445 7875 c-114 -20 -215 -82 -215 -131 0 -13 -8 -29 -18 -36 -9 -7
-39 -39 -66 -70 -36 -43 -55 -58 -75 -58 -16 0 -21 -3 -14 -8 15 -9 1 -34 -16
-30 -9 2 -15 -11 -17 -36 -3 -21 -16 -59 -29 -85 -14 -25 -25 -53 -25 -62 0
-8 -14 -37 -31 -63 -30 -45 -31 -49 -19 -91 10 -34 10 -66 0 -150 -7 -59 -9
-135 -5 -171 4 -42 3 -64 -4 -64 -5 0 -8 -12 -6 -27 2 -16 9 -57 14 -93 16
-101 16 -270 -1 -286 -20 -20 -198 -118 -198 -109 0 7 -41 -27 -64 -54 -12
-13 -34 -37 -49 -54 -35 -37 -60 -100 -94 -231 -14 -56 -30 -110 -36 -121 -5
-11 -11 -45 -13 -75 -1 -31 -10 -96 -18 -145 -21 -123 -36 -290 -36 -410 -1
-114 0 -107 -73 -400 -62 -252 -87 -362 -87 -388 0 -9 -12 -35 -26 -57 -31
-47 -50 -170 -26 -170 14 0 12 -25 -9 -149 -5 -30 -9 -71 -9 -91 0 -31 -4 -37
-31 -47 -27 -10 -30 -16 -28 -45 2 -18 0 -38 -4 -44 -3 -6 -6 -31 -5 -56 0
-39 4 -48 25 -57 20 -9 24 -17 21 -40 -4 -28 -3 -29 30 -26 50 4 138 -48 146
-87 6 -30 27 -39 24 -10 -4 56 0 62 45 60 39 -3 42 -1 45 24 2 15 13 34 24 42
11 8 18 20 16 28 -3 7 4 25 16 39 12 15 27 35 34 45 11 16 12 13 6 -26 -4 -25
-8 -252 -10 -505 -2 -253 -6 -474 -8 -492 -2 -17 -18 -68 -35 -112 -28 -71
-41 -151 -25 -151 18 0 44 23 44 39 0 10 6 24 13 30 21 17 41 -109 28 -169 -5
-24 -8 -47 -6 -50 2 -4 -2 -42 -10 -86 -7 -43 -16 -133 -19 -199 -6 -138 6
-179 61 -205 24 -11 34 -25 43 -57 7 -23 9 -46 6 -51 -3 -6 1 -12 9 -16 8 -3
15 -11 15 -19 0 -7 9 -32 20 -55 11 -22 20 -50 20 -62 0 -11 12 -39 27 -61 23
-35 28 -56 33 -133 5 -64 3 -97 -5 -111 -8 -12 -13 -58 -13 -113 0 -51 -4 -98
-9 -105 -11 -14 -12 -156 -1 -173 5 -7 6 -43 4 -82 -4 -68 10 -140 37 -187 6
-11 19 -37 29 -57 10 -21 22 -38 26 -38 4 0 14 -21 21 -47 7 -27 23 -69 36
-94 16 -34 20 -51 13 -63 -16 -29 1 -146 27 -192 13 -22 27 -64 31 -92 l7 -52
223 0 224 0 0 64 c0 44 5 67 15 76 17 14 19 146 3 167 -5 7 -18 29 -29 50 -17
34 -19 51 -13 158 3 66 8 123 10 127 3 4 11 5 18 2 8 -3 17 0 21 6 5 8 -2 11
-21 9 -16 -2 -34 0 -40 4 -8 4 -10 63 -6 194 2 104 5 204 5 223 0 19 -1 96 -2
170 -3 131 -3 135 18 138 25 4 29 30 4 28 -13 -1 -19 10 -25 44 -4 26 -4 48 2
54 13 13 40 -12 40 -38 1 -18 2 -19 10 -5 6 10 6 28 1 46 -5 18 -5 51 0 78 12
62 4 70 -11 13 -7 -23 -14 -49 -16 -56 -6 -19 -27 -10 -30 14 -2 10 5 48 16
84 10 36 21 99 23 140 3 72 4 75 28 75 33 1 46 -29 39 -88 -5 -39 -4 -47 9
-45 9 2 17 -6 19 -17 2 -16 1 -17 -7 -5 -15 21 -14 10 4 -39 7 -22 14 -60 15
-83 7 -399 8 -410 47 -468 12 -19 23 -38 23 -43 0 -4 12 -26 27 -50 44 -67 53
-95 53 -161 0 -43 3 -57 10 -46 7 11 10 -4 11 -50 1 -36 1 -72 0 -80 -1 -8 -2
-35 -2 -60 0 -32 -2 -41 -9 -30 -7 11 -10 -2 -10 -42 0 -31 4 -59 9 -62 13 -9
-3 -149 -18 -154 -7 -2 -11 -37 -11 -88 0 -54 4 -83 10 -79 6 4 10 -27 10 -84
l0 -91 295 0 295 0 0 33 c0 42 18 107 30 107 6 0 10 7 10 15 0 8 6 34 14 57
28 90 62 444 44 465 -6 7 -6 13 -1 13 13 0 3 176 -11 199 -5 7 -5 15 -2 18 3
3 -2 11 -11 18 -11 8 -13 17 -7 26 5 8 9 63 11 123 2 99 0 111 -18 124 -10 7
-19 20 -19 28 0 8 -7 17 -15 20 -18 7 -20 54 -2 54 17 0 77 79 77 100 0 10 9
29 21 44 11 14 17 30 14 36 -3 5 -3 15 1 21 9 15 9 93 0 107 -3 6 0 13 6 15
10 4 9 8 -2 17 -11 9 -12 13 -2 17 15 6 16 40 1 45 -8 3 -8 10 2 26 12 18 12
25 0 43 -8 14 -9 24 -3 28 6 4 11 25 10 49 0 23 -4 39 -9 36 -5 -3 -6 2 -3 10
4 9 1 16 -6 16 -9 0 -11 11 -7 35 3 19 1 37 -5 41 -5 3 -8 15 -5 25 3 11 -1
23 -9 27 -12 6 -11 14 6 47 11 22 20 47 20 57 0 10 4 18 8 18 4 0 8 18 9 40 1
25 -2 40 -10 40 -7 0 -6 4 3 10 13 9 13 11 0 20 -10 6 -11 10 -2 10 14 0 16
46 2 55 -5 3 -10 14 -10 24 0 23 -39 114 -53 123 -16 10 -16 121 0 140 16 18
34 128 22 128 -8 0 -17 -38 -23 -92 -3 -29 -22 -58 -38 -58 -6 0 -22 -9 -36
-19 -15 -10 -31 -19 -37 -20 -23 -3 -51 -14 -65 -26 -8 -8 -28 -16 -45 -20
l-30 -7 25 19 c20 14 25 28 27 63 l1 45 -23 -52 c-14 -31 -30 -53 -39 -53 -9
0 -16 -6 -16 -12 -1 -17 -75 -68 -98 -67 -10 0 -12 3 -4 6 6 2 12 10 12 17 0
6 10 24 22 39 12 15 23 37 25 48 3 18 -1 17 -27 -11 -16 -18 -30 -35 -30 -39
0 -11 -42 -33 -68 -36 -13 -1 -28 -9 -33 -16 -7 -12 -11 -11 -25 2 -15 16 -14
21 14 75 38 73 55 152 58 269 l3 90 -14 -65 c-32 -154 -60 -210 -105 -210 -30
0 -34 23 -16 77 9 25 16 59 16 73 0 15 9 53 20 86 11 32 23 86 27 119 4 39 14
71 29 90 12 17 34 53 50 80 15 28 50 77 79 111 28 33 57 75 64 92 8 19 18 29
25 25 6 -4 18 -8 26 -8 45 -4 49 -6 44 -20 -4 -10 0 -15 15 -15 29 0 80 -23
114 -52 15 -12 41 -34 57 -48 17 -13 30 -33 31 -45 0 -19 1 -19 8 -1 6 15 18
20 49 21 23 1 45 5 49 9 4 4 9 35 9 69 2 94 45 159 143 218 17 10 29 30 36 58
6 23 14 39 17 36 15 -16 48 76 48 133 0 32 5 85 11 118 6 32 15 122 19 199 4
77 15 165 23 195 8 30 16 51 16 45 1 -5 6 -2 12 7 7 12 6 23 -3 37 -10 17 -10
23 3 33 9 7 22 38 29 70 12 52 11 59 -10 102 -16 35 -20 54 -14 74 21 71 0
410 -36 582 -20 93 -70 377 -76 425 -3 28 -12 79 -19 115 -8 36 -24 124 -36
195 -11 72 -30 159 -41 195 -23 78 -84 185 -128 223 -19 17 -29 34 -26 43 3 9
-4 19 -19 26 -13 6 -22 15 -19 19 3 5 -6 9 -21 9 -18 0 -29 8 -37 28 -8 21
-12 23 -15 10 -3 -13 -9 -15 -26 -8 -12 5 -62 21 -112 36 -49 15 -95 31 -101
35 -6 5 -53 24 -106 43 -52 18 -104 38 -115 44 -30 16 -36 91 -12 164 10 31
21 74 25 95 4 21 16 56 26 77 61 122 74 218 52 411 -16 144 -38 225 -80 304
-13 25 -24 43 -24 40 0 -4 -19 12 -43 35 -87 84 -124 104 -207 113 -33 3 -63
10 -66 14 -3 5 -8 9 -12 8 -4 0 -39 -7 -77 -14z m-20 -273 c111 -16 183 -42
215 -79 17 -18 30 -40 30 -47 0 -8 6 -18 13 -24 7 -6 14 -39 15 -79 5 -110 6
-117 22 -130 11 -9 12 -12 2 -13 -10 0 -9 -4 3 -16 12 -13 14 -29 10 -78 -4
-33 -11 -75 -16 -92 -10 -32 -49 -61 -67 -50 -6 3 -23 -19 -37 -49 -15 -30
-30 -55 -34 -55 -3 0 -12 -15 -20 -32 -19 -45 -71 -93 -115 -108 -20 -6 -34
-16 -31 -21 4 -5 -4 -9 -15 -9 -12 0 -36 -6 -53 -14 -37 -17 -107 -26 -107
-14 0 4 -10 8 -22 8 -28 1 -49 17 -66 50 -7 14 -21 40 -33 59 -14 24 -17 37
-10 44 17 17 13 40 -4 33 -8 -3 -15 -3 -15 -1 0 3 -9 49 -21 102 -18 84 -19
104 -9 158 7 35 21 77 32 95 21 36 6 34 154 13 36 -5 44 -2 54 17 10 18 8 27
-12 56 -24 36 -49 49 -110 60 -29 5 -38 11 -38 25 0 11 6 22 14 25 8 3 13 11
10 18 -3 7 8 37 23 67 34 66 89 102 143 95 19 -3 62 -9 95 -14z m125 -1002 c0
-36 -131 -252 -162 -268 -30 -15 -190 -72 -203 -72 -5 0 5 10 24 22 33 21 33
22 11 30 -23 8 -59 46 -60 62 0 5 8 2 18 -7 32 -29 41 -20 25 24 -7 23 -15 71
-16 108 -2 64 -1 66 21 63 13 -2 30 2 37 8 15 12 76 -1 102 -23 13 -9 35 -4
109 29 83 36 94 39 94 24z"/>
<path d="M1412 7334 c-34 -24 -27 -74 12 -87 21 -7 35 -6 49 3 16 9 21 9 28
-1 5 -8 33 -14 73 -15 58 -2 64 0 51 13 -20 20 -19 25 8 23 41 -4 41 0 3 34
-27 23 -52 35 -84 40 -73 10 -116 7 -140 -10z"/>
<path d="M1158 7087 c-7 -8 -24 -19 -36 -26 -19 -10 -23 -19 -20 -49 2 -30 7
-37 24 -37 12 0 32 -9 44 -20 20 -18 22 -18 31 -2 10 17 68 25 82 11 3 -4 25
-8 49 -11 78 -8 83 -9 86 -26 4 -17 24 -16 78 4 12 4 31 5 42 2 45 -11 40 52
-7 80 -33 19 -51 22 -51 6 0 -5 5 -7 11 -3 7 4 10 1 7 -7 -3 -9 -16 -13 -34
-11 -24 2 -26 1 -11 -8 46 -29 -11 -35 -118 -13 -11 2 -58 6 -104 10 -75 6
-82 8 -65 20 13 10 32 12 59 8 131 -19 132 -19 165 16 16 19 30 36 30 39 0 9
-73 0 -98 -13 -19 -9 -30 -8 -54 6 -28 16 -32 16 -48 2 -30 -27 -64 -9 -40 20
16 19 -3 20 -22 2z"/>
<path d="M260 3215 c-1 -5 -2 -18 -1 -27 1 -10 -3 -18 -9 -18 -7 0 -23 -9 -37
-20 -14 -11 -20 -20 -14 -20 12 0 11 -56 -3 -78 -4 -6 -2 -21 4 -32 6 -11 11
-35 12 -54 1 -26 9 -40 30 -56 15 -11 28 -29 28 -38 0 -10 14 -31 32 -48 18
-16 26 -21 18 -10 -14 18 -13 18 18 12 40 -9 41 -1 2 19 -34 18 -50 63 -50
143 0 28 -4 52 -8 52 -10 0 -32 67 -32 94 0 9 9 20 19 24 17 6 18 10 6 37 -7
17 -14 26 -15 20z"/>
</g>
</svg>
